<svg width="1500" height="1500" viewBox="0 0 1500 1500" fill="none" xmlns="http://www.w3.org/2000/svg">
<g clip-path="url(#clip0_3_60)">
<path d="M767.659 347.848C756.702 329.732 743.718 310.391 723.384 304.476C699.836 297.625 675.647 311.233 655.129 324.662C593.767 364.821 534.675 408.343 478.123 455.027L478.185 455.73C522.213 452.695 566.241 449.66 610.269 446.625C642.079 444.432 674.983 441.937 703.094 426.894C713.761 421.186 724.16 413.561 736.248 413.03C751.266 412.37 764.361 422.855 774.651 433.809C835.524 498.605 853.139 597.694 921.433 654.622C878.369 548.461 826.95 445.881 767.659 347.848V347.848Z" fill="#2BD832"/>
<path d="M1141.83 897.437C1135.1 888.94 1132.35 886.95 1125.71 878.375C1071.65 808.475 1020.83 736.215 973.26 661.594C940.949 610.914 910.24 559.26 881.133 506.634C867.276 481.615 853.799 456.399 840.702 430.987C830.539 411.283 820.602 391.461 810.893 371.522C808.116 365.827 805.418 360.106 802.733 354.371C796.407 340.886 790.199 327.336 783.532 314.034C775.936 298.873 766.689 282.979 752.74 272.793C746.392 267.968 738.801 265.048 730.855 264.375C719.5 263.642 709.022 268.329 699.173 273.448C627.111 311.01 559.648 358.103 498.627 411.689C437.451 465.396 382.769 526.072 335.697 592.48C334.257 594.535 330.851 592.571 332.305 590.503C338.028 582.412 343.866 574.408 349.816 566.492C423.806 468.124 514.529 383.534 617.838 316.587C635.219 305.328 652.927 294.596 670.961 284.393C680.05 279.248 689.18 274.168 698.465 269.403C707.568 264.729 717.234 260.526 727.633 260.369C763.022 259.819 781.345 299.881 793.932 326.838C797.887 335.322 801.89 343.78 805.942 352.211C821.252 384.221 837.152 415.94 853.642 447.365C863.819 466.768 874.218 486.057 884.84 505.233C917.897 564.947 953.033 623.451 990.247 680.747C1039.55 756.643 1088.45 823.688 1144.61 894.661C1146.16 896.625 1143.39 899.427 1141.83 897.437Z" fill="#E4E4E4"/>
<path d="M495.13 391.907C493.074 389.616 491.031 387.325 488.961 385.033C472.642 366.992 455.132 349.161 432.722 338.818C422.037 333.73 410.372 331.028 398.538 330.897C386.305 330.936 374.347 334.144 363.044 338.635C357.701 340.769 352.475 343.191 347.328 345.77C341.447 348.729 335.671 351.884 329.921 355.065C319.129 361.035 308.477 367.267 297.964 373.761C277.048 386.683 256.786 400.591 237.179 415.486C227.016 423.21 217.062 431.188 207.317 439.419C198.254 447.064 189.374 454.915 180.678 462.971C178.818 464.687 176.041 461.911 177.901 460.196C180.193 458.062 182.511 455.941 184.829 453.846C191.378 447.929 198.032 442.124 204.79 436.434C217.114 426.038 229.757 416.045 242.72 406.452C262.877 391.527 283.727 377.614 305.272 364.714C316.038 358.273 326.953 352.102 338.015 346.202C341.355 344.421 344.735 342.68 348.153 341.03C355.909 337.12 363.968 333.84 372.252 331.224C383.986 327.43 396.401 326.211 408.649 327.65C420.475 329.37 431.869 333.31 442.231 339.263C464.234 351.557 481.299 370.566 497.907 389.118C499.584 391.003 496.82 393.792 495.13 391.907Z" fill="#E4E4E4"/>
<path d="M945.969 578.86L998.695 559.583L1024.87 550.012C1033.4 546.895 1041.9 543.346 1050.72 541.114C1058.38 538.927 1066.51 539.031 1074.11 541.412C1080.89 543.92 1087.09 547.765 1092.36 552.718C1097.73 557.667 1102.73 563.007 1107.32 568.694C1113.02 575.541 1118.64 582.46 1124.28 589.355C1147.56 617.814 1170.68 646.397 1193.66 675.103C1216.63 703.808 1239.45 732.636 1262.12 761.585C1284.84 790.606 1307.41 819.747 1329.82 849.01C1332.57 852.595 1335.31 856.182 1338.05 859.77C1339.56 861.753 1342.98 859.798 1341.44 857.788C1318.87 828.231 1296.13 798.794 1273.24 769.479C1250.3 740.094 1227.19 710.833 1203.93 681.697C1180.67 652.562 1157.25 623.552 1133.67 594.67C1127.79 587.474 1121.91 580.286 1116.02 573.107C1111.05 567.05 1106.13 560.929 1100.68 555.292C1090.67 544.945 1078.17 535.8 1063.2 535.552C1054.4 535.406 1045.88 538.198 1037.7 541.155C1028.89 544.342 1020.1 547.59 1011.29 550.808L958.198 570.22L944.925 575.073C942.569 575.934 943.587 579.732 945.969 578.86V578.86Z" fill="#E4E4E4"/>
<path d="M425.783 361.519C398.989 347.753 364.676 350.45 340.054 367.647C387.018 375.747 433.468 386.584 479.167 400.103C460.19 388.986 445.346 371.569 425.783 361.519Z" fill="#2BD832"/>
<path d="M339.79 367.6L334.632 371.791C336.377 370.324 338.191 368.949 340.054 367.647C339.966 367.632 339.878 367.615 339.79 367.6Z" fill="#2BD832"/>
<path d="M1090.37 579.053C1085.18 572.738 1079.57 566.125 1071.81 563.56L1064.56 563.846C1119.73 661.301 1194.25 746.456 1283.53 814.086C1219.14 735.742 1154.76 657.397 1090.37 579.053Z" fill="#2BD832"/>
<path d="M408.973 902.372C405.808 906.64 402.442 910.767 398.874 914.71C367.828 919.953 339.029 925.62 312.646 931.381C305.016 933.044 297.595 934.715 290.385 936.394L290.552 935.878C288.14 917.203 290.815 898.224 298.295 880.943C298.758 879.882 299.235 878.821 299.726 877.774C304.639 867.219 311.313 857.577 319.462 849.26C331.859 836.689 347.354 827.277 363.225 818.433C392.933 801.89 423.901 787.278 438.126 757.468C444.035 782.292 444.489 808.102 439.456 833.118C434.423 858.134 424.023 881.762 408.973 902.372V902.372Z" fill="#2BD832"/>
<path d="M247.832 822.907C261.753 808.929 273.577 793.01 282.937 775.646C292.269 758.372 299.114 739.866 303.268 720.678C307.481 701.204 308.763 681.212 307.073 661.36C303.574 620.929 288.297 582.411 263.131 550.568C261.594 548.631 260.021 546.724 258.412 544.846C256.618 542.748 253.625 545.817 255.407 547.901C281.069 578.144 297.298 615.245 302.085 654.613C305.561 684.698 302.214 715.178 292.293 743.793C282.371 772.407 266.131 798.421 244.776 819.903C242.825 821.858 245.881 824.862 247.832 822.907H247.832Z" fill="#2BD832"/>
<path d="M264.889 554.191C263.148 553.557 261.443 552.83 259.78 552.014C259.698 552.143 259.617 552.275 259.534 552.405L264.889 554.191Z" fill="#E6E6E6"/>
<path d="M266.318 499.068C260.264 491.614 248.782 488.345 240.537 493.27C235.008 496.572 231.734 502.928 231.159 509.341C230.801 515.808 232.246 522.248 235.331 527.944C240.655 538.405 249.235 546.852 259.78 552.013C264.859 544.038 269.615 535.657 271.592 526.418C273.601 517.028 272.372 506.523 266.318 499.068Z" fill="#2BD832"/>
<path d="M340.724 552.005C343.703 539.686 343.975 526.867 341.52 514.433C339.066 501.999 333.944 490.244 326.508 479.979C325.203 505.117 298.999 521.336 289.549 544.668C286.657 551.967 285.446 559.824 286.005 567.655C286.564 575.486 288.878 583.091 292.777 589.906L294.385 608.96C305.768 603.379 315.805 595.397 323.805 585.564C331.805 575.732 337.577 564.282 340.724 552.005V552.005Z" fill="#2BD832"/>
<path d="M387.971 622.916C374.978 644.478 344.221 646.451 324.893 662.586C318.904 667.665 314.134 674.025 310.938 681.197C307.742 688.368 306.202 696.167 306.431 704.015L298.873 721.581C311.555 722.102 324.197 719.825 335.9 714.911C347.602 709.997 358.078 702.567 366.584 693.148C375.089 683.73 381.415 672.554 385.111 660.416C388.808 648.277 389.784 635.474 387.971 622.916V622.916Z" fill="#2BD832"/>
<path d="M267.06 670.842C257.22 678.857 249.266 688.94 243.764 700.374C238.262 711.808 235.347 724.314 235.227 737.002C235.106 749.689 237.783 762.248 243.066 773.785C248.349 785.322 256.11 795.554 265.796 803.754L272.133 785.712C277.617 780.092 281.766 773.31 284.271 765.869C286.777 758.429 287.576 750.52 286.608 742.729C283.314 717.773 262.016 695.504 267.06 670.842Z" fill="#2BD832"/>
<path d="M268.485 914.41C263.298 929.864 250.769 941.951 236.462 949.868C235.708 950.288 234.954 950.694 234.2 951.086C233.575 951.42 232.934 951.74 232.294 952.045C227.131 953.202 221.925 954.188 216.748 955.288C216.733 955.288 216.719 955.302 216.705 955.302C208.979 957.48 201.691 959.602 194.841 961.668C190.993 962.815 187.273 963.945 183.711 965.06C183.24 965.193 182.784 965.339 182.314 965.486C181.701 965.677 181.103 965.868 180.504 966.044C180.49 966.016 180.475 966.001 180.475 965.973C180.461 965.959 180.461 965.959 180.475 965.944C177.723 959.797 175.057 953.635 172.505 947.373C162.436 923.285 154.442 898.381 148.61 872.934C141.708 841.857 138.958 810.174 142.637 778.552C145.188 756.802 151.149 735.589 160.301 715.693C161.621 712.854 163.002 710.048 164.446 707.275C164.882 706.4 165.332 705.539 165.81 704.679L165.81 704.664C165.852 704.578 165.909 704.492 165.965 704.392L166.176 704.004L166.176 703.99C167.428 701.666 168.733 699.375 170.091 697.116C176.826 685.743 184.791 675.145 193.844 665.513C209.154 648.96 228.055 636.134 249.096 628.019L249.11 628.019C250.121 627.625 251.147 627.26 252.172 626.894C251.782 627.997 251.391 629.086 251.014 630.189C245.88 645.013 241.936 660.223 239.22 675.675C239.016 676.862 238.812 678.063 238.622 679.264C232.527 716.543 233.411 754.629 241.229 791.584C241.244 791.684 241.274 791.784 241.289 791.884C243.029 800.067 245.12 808.162 247.563 816.168C247.623 816.396 247.681 816.61 247.755 816.838C248.225 818.39 248.724 819.943 249.222 821.481C250.674 825.968 252.24 830.42 253.92 834.839C263.707 860.622 277.268 888.273 268.485 914.41Z" fill="#2BD832"/>
<path d="M252.797 628.117C252.188 628.808 251.594 629.498 251.014 630.189C238.554 644.699 227.737 660.543 218.761 677.43C218.311 678.277 217.861 679.137 217.425 679.998C205.166 703.573 196.634 728.903 192.133 755.089C192.148 755.103 192.148 755.103 192.134 755.117C192.093 755.361 192.052 755.604 192.011 755.861C192.026 755.875 192.026 755.889 192.012 755.89C190.977 762.011 190.185 768.187 189.637 774.362C188.605 785.967 188.561 797.836 191.199 809.254C193.391 818.653 197.75 827.41 203.928 834.826C204.52 835.579 205.14 836.316 205.789 837.053C206.294 837.635 206.814 838.216 207.347 838.783C212.321 844.154 217.807 849.221 222.455 854.938C224.58 857.516 226.472 860.277 228.11 863.189C233.594 873.141 233.902 884.492 230.276 895.134C225.856 908.153 217.029 918.824 208.013 928.939C198.345 939.802 188.151 950.941 183.711 965.06C183.24 965.193 182.784 965.339 182.314 965.486C181.701 965.677 181.103 965.867 180.504 966.044C180.65 966.4 180.81 966.755 180.97 967.111C180.807 966.99 180.675 966.831 180.587 966.647C180.498 966.464 180.455 966.262 180.461 966.059C180.459 966.029 180.464 966 180.475 965.973C180.461 965.959 180.461 965.959 180.475 965.944C180.474 965.843 180.488 965.742 180.515 965.644C181.629 961.728 183.149 957.939 185.05 954.338C185.05 954.309 185.05 954.309 185.064 954.295C195.219 935.016 214.465 921.387 224.359 901.739C229.841 890.882 232.065 878.309 226.755 866.928C225.185 863.638 223.242 860.539 220.963 857.693C216.515 851.989 211.073 846.978 206.157 841.749C204.932 840.46 203.764 839.141 202.638 837.794C196.501 830.732 191.949 822.438 189.291 813.469C186.083 802.241 185.655 790.348 186.387 778.759C186.854 771.314 187.72 763.866 188.93 756.472C189.079 755.514 189.243 754.57 189.421 753.612L189.421 753.598C197.744 707.165 218.348 663.805 249.096 628.02L249.11 628.02C249.676 627.329 250.27 626.639 250.864 625.963C252.096 624.567 254.028 626.736 252.797 628.117Z" fill="white"/>
<path d="M190.269 756.816C181.295 754.717 173.359 749.497 167.879 742.089C162.399 734.681 159.731 725.567 160.353 716.375C160.382 716 160.555 715.652 160.836 715.402C161.117 715.153 161.484 715.022 161.86 715.037C162.235 715.053 162.59 715.214 162.849 715.486C163.109 715.758 163.252 716.12 163.25 716.495C162.655 725.054 165.141 733.544 170.258 740.431C175.375 747.319 182.786 752.152 191.155 754.057C192.973 754.473 192.077 757.229 190.269 756.816L190.269 756.816Z" fill="white"/>
<path d="M203.16 835.297C219.255 825.507 231.069 810.013 236.244 791.903C236.755 790.109 239.514 790.996 239.003 792.789C233.583 811.624 221.257 827.723 204.485 837.874C202.885 838.84 201.569 836.258 203.16 835.297H203.16Z" fill="white"/>
<path d="M217.937 677.085C221.24 678.62 224.873 679.311 228.51 679.096C232.146 678.882 235.672 677.767 238.771 675.853C240.358 674.867 241.673 677.451 240.097 678.43C236.663 680.529 232.767 681.755 228.75 682.001C224.733 682.247 220.716 681.507 217.051 679.843C216.693 679.716 216.396 679.456 216.222 679.118C216.048 678.779 216.01 678.387 216.114 678.021C216.234 677.657 216.492 677.354 216.833 677.178C217.174 677.003 217.571 676.969 217.937 677.085V677.085Z" fill="white"/>
<path d="M442.867 741.832C441.887 742.469 440.935 743.119 439.955 743.77C439.955 743.772 439.954 743.774 439.954 743.776C439.953 743.777 439.952 743.779 439.951 743.78C439.949 743.782 439.948 743.783 439.946 743.783C439.944 743.784 439.942 743.785 439.94 743.785C426.911 752.506 414.612 762.271 403.165 772.983L403.151 772.997C402.243 773.819 401.35 774.655 400.471 775.491C373.235 801.546 351.05 832.41 335.036 866.526L334.91 866.784C328.553 880.412 323.24 894.502 319.016 908.934C316.877 916.25 314.883 923.864 312.646 931.381C305.016 933.044 297.595 934.715 290.385 936.393C281.23 938.512 272.413 940.637 263.935 942.769C260.256 943.671 256.644 944.582 253.099 945.502C246.407 948.392 239.435 950.584 232.294 952.045C227.131 953.202 221.925 954.188 216.747 955.288C216.733 955.288 216.719 955.302 216.705 955.302C208.979 957.48 201.691 959.602 194.841 961.668C190.993 962.814 187.273 963.945 183.711 965.06C183.24 965.193 182.784 965.339 182.314 965.486C183.198 961.78 184.095 958.045 185.05 954.338C185.05 954.309 185.05 954.309 185.064 954.295C193.572 920.89 204.942 887.904 220.963 857.693C221.441 856.775 221.919 855.842 222.455 854.938C228.948 842.858 236.31 831.264 244.483 820.25C245.471 818.885 246.503 817.534 247.549 816.182L247.563 816.168C251.946 810.533 256.572 805.072 261.443 799.785C262.292 798.85 263.17 797.914 264.048 796.993C264.473 796.547 264.912 796.1 265.352 795.654C266.995 793.955 268.681 792.27 270.396 790.642C273.089 788.048 275.869 785.526 278.706 783.074C290.109 773.267 302.541 764.721 315.783 757.587C315.869 757.543 315.968 757.485 316.054 757.442C354.273 736.929 398.625 728.847 439.716 740.873C440.776 741.192 441.807 741.498 442.867 741.832Z" fill="#2BD832"/>
<path d="M194.841 961.668C201.909 958.855 209.231 956.724 216.705 955.302C208.979 957.48 201.691 959.602 194.841 961.668Z" fill="white"/>
<path d="M442.636 743.191C441.737 743.37 440.839 743.563 439.955 743.77C421.266 747.866 403.086 754.009 385.744 762.088C384.861 762.496 383.993 762.903 383.139 763.324C359.153 774.775 337.084 789.87 317.719 808.071C317.719 808.073 317.718 808.075 317.718 808.077C317.717 808.079 317.716 808.08 317.715 808.081C317.713 808.083 317.712 808.084 317.71 808.085C317.708 808.085 317.706 808.086 317.704 808.086C317.514 808.247 317.334 808.42 317.166 808.604C317.166 808.619 317.166 808.619 317.152 808.619C312.644 812.869 308.299 817.309 304.118 821.938C296.304 830.587 289.11 840.044 284.342 850.738C280.443 859.566 278.649 869.178 279.103 878.817C279.14 879.774 279.191 880.744 279.27 881.715C279.32 882.486 279.383 883.256 279.461 884.041C280.535 894.63 282.854 905.35 281.328 916.017C279.721 927.228 273.169 936.437 263.935 942.769C260.256 943.671 256.644 944.582 253.099 945.502C253.782 945.21 254.451 944.891 255.12 944.557C266.033 939.167 275.391 930.477 278.003 918.201C280.285 907.457 277.893 896.408 276.718 885.692C276.532 883.966 276.389 882.267 276.303 880.569C276.291 880.493 276.286 880.417 276.287 880.34C275.644 871.031 277.008 861.693 280.288 852.957C284.484 842.068 291.317 832.313 298.873 823.496C303.741 817.828 308.911 812.401 314.326 807.243C315.02 806.551 315.729 805.889 316.438 805.24C336.241 786.904 358.73 771.7 383.127 760.153C401.199 751.606 420.184 745.137 439.716 740.873C440.6 740.68 441.499 740.487 442.383 740.308C444.209 739.936 444.447 742.819 442.636 743.191Z" fill="white"/>
<path d="M315.188 808.314C309.286 801.237 306.094 792.293 306.18 783.08C306.266 773.868 309.626 764.985 315.659 758.02C316.884 756.615 319.126 758.452 317.899 759.859C312.269 766.335 309.141 774.609 309.078 783.189C309.015 791.768 312.022 800.087 317.556 806.644C318.757 808.071 316.382 809.732 315.188 808.314V808.314Z" fill="white"/>
<path d="M278.211 878.735C296.958 880.606 315.723 875.344 330.762 863.999C332.251 862.874 333.92 865.243 332.433 866.367C316.76 878.143 297.222 883.58 277.716 881.59C275.857 881.399 276.362 878.545 278.21 878.735H278.211Z" fill="white"/>
<path d="M385.301 761.305C387.014 764.519 389.498 767.258 392.531 769.275C395.564 771.292 399.051 772.524 402.678 772.861C404.538 773.028 404.032 775.882 402.184 775.716C398.178 775.325 394.329 773.959 390.973 771.738C387.617 769.517 384.857 766.509 382.932 762.975C382.723 762.657 382.643 762.272 382.707 761.897C382.772 761.522 382.978 761.185 383.282 760.956C383.596 760.737 383.985 760.65 384.363 760.716C384.741 760.781 385.078 760.993 385.301 761.305V761.305Z" fill="white"/>
<path d="M595.147 843.085C590.959 861.766 580.923 878.626 566.497 891.217C565.453 892.131 564.385 893.023 563.294 893.891C560.619 894.125 557.956 894.371 555.328 894.629C553.146 894.829 550.983 895.036 548.84 895.251C548.711 895.263 548.582 895.274 548.464 895.286L548.194 892.941L547.103 883.464C542.89 876.589 540.278 868.855 539.462 860.833C538.645 852.812 539.645 844.71 542.387 837.128C546.153 826.96 552.993 817.976 559.704 809.075C568.972 796.76 577.995 784.587 578.323 769.587C588.632 782.91 594.976 798.868 596.626 815.63C597.585 824.803 597.086 834.069 595.147 843.085V843.085Z" fill="#E6E6E6"/>
<path d="M642.581 805.65C621.662 820.849 622.378 852.479 607.584 873.683C603.076 880.081 597.206 885.4 590.396 889.258C588.537 890.316 586.617 891.263 584.647 892.096C577.396 892.659 570.279 893.257 563.294 893.89C560.619 894.125 557.956 894.371 555.328 894.629C553.145 894.828 550.983 895.036 548.84 895.251C548.828 894.465 548.828 893.667 548.851 892.882C549.298 871.962 556.994 851.845 570.627 835.966C571.272 835.216 571.929 834.489 572.598 833.762C579.506 826.383 587.634 820.249 596.626 815.63C610.782 808.272 626.647 804.826 642.581 805.65Z" fill="#2BD832"/>
<path d="M557.803 887.3L556.161 892.167L555.328 894.63C553.146 894.829 550.983 895.036 548.84 895.251C548.711 895.263 548.582 895.275 548.464 895.286C546.083 895.533 543.724 895.767 541.378 896.014C540.756 895.298 540.146 894.571 539.548 893.832C524.636 875.779 517.479 852.561 519.64 829.249C521.801 805.938 533.104 784.429 551.081 769.423C548.453 783.156 553.732 796.057 559.704 809.075C563.775 817.894 568.163 826.76 570.627 835.967C571.255 838.273 571.745 840.615 572.093 842.98C573.191 850.966 572.477 859.096 570.003 866.768C567.529 874.441 563.36 881.458 557.803 887.3V887.3Z" fill="#2BD832"/>
<path d="M972.182 896.609C971.764 897.274 971.326 897.92 970.88 898.556C969.815 898.442 968.761 898.338 967.706 898.224C965.862 898.034 964.022 897.844 962.185 897.654C961.956 897.635 961.728 897.606 961.5 897.587L960.36 895.374L958.231 891.251C953.064 887.255 948.863 882.147 945.941 876.305C943.019 870.464 941.451 864.04 941.354 857.509C941.287 848.713 943.891 839.945 946.419 831.272C949.907 819.293 953.242 807.485 949.184 796.039C960.816 803.181 970.202 813.452 976.268 825.677C979.623 832.345 981.903 839.5 983.025 846.879C985.494 864.219 981.645 881.869 972.182 896.609V896.609Z" fill="#E6E6E6"/>
<path d="M1001.23 866.486C999.587 872.806 996.54 878.674 992.317 883.657C988.094 888.639 982.804 892.608 976.838 895.269L975.365 896.96L973.712 898.87C972.771 898.765 971.82 898.661 970.88 898.556C969.815 898.442 968.761 898.338 967.706 898.224C965.862 898.034 964.022 897.844 962.184 897.654C961.918 896.941 961.681 896.219 961.453 895.488C956.599 880.15 956.936 863.64 962.412 848.513C962.679 847.763 962.964 847.022 963.268 846.29C966.388 838.726 970.786 831.753 976.268 825.677C984.87 816.036 995.894 808.87 1008.2 804.92C996.728 822.428 1006.35 846.186 1001.23 866.486Z" fill="#2BD832"/>
<path d="M967.63 896.124L967.706 898.224C965.862 898.034 964.022 897.844 962.184 897.654C961.956 897.635 961.728 897.606 961.5 897.587C956.986 897.131 952.494 896.704 948.025 896.305C947.027 895.554 946.039 894.775 945.079 893.949C932.175 883.238 923.446 868.337 920.415 851.848C917.384 835.359 920.244 818.329 928.496 803.733C930.444 814.885 938.151 823.14 946.419 831.272C952.025 836.791 957.898 842.253 962.412 848.513C963.55 850.084 964.594 851.721 965.539 853.415C968.66 859.151 970.451 865.515 970.78 872.036C971.109 878.557 969.967 885.069 967.439 891.09L967.63 896.124Z" fill="#2BD832"/>
<path d="M1348.48 980.031C1348.4 980.322 1348.22 980.577 1347.97 980.757C1347.73 980.937 1347.43 981.033 1347.13 981.031C1346.98 981.028 1346.84 981.004 1346.7 980.959C1219.61 940.798 1088.86 913.301 956.351 898.87C954.937 898.713 953.508 898.556 952.093 898.398C950.493 898.227 948.907 898.07 947.322 897.899C944.55 897.613 941.783 897.327 939.021 897.042C938.678 897.013 938.335 896.97 937.992 896.942C931.206 896.256 924.453 895.614 917.733 895.014C805.616 884.901 692.852 884.117 580.605 892.672C571.775 893.357 563.108 894.085 554.602 894.857C551.345 895.142 548.102 895.442 544.901 895.756C542.244 895.999 539.611 896.252 537.001 896.513C536.844 896.528 536.687 896.542 536.544 896.556C533.643 896.856 530.772 897.142 527.914 897.442C516.242 898.656 504.898 899.941 493.883 901.298C279.85 927.533 146.182 980.402 144.853 980.931C144.501 981.071 144.107 981.065 143.759 980.915C143.41 980.765 143.136 980.483 142.996 980.131C142.856 979.779 142.861 979.385 143.011 979.037C143.161 978.689 143.443 978.415 143.796 978.274C145.124 977.746 279.064 924.762 493.426 898.484C504.155 897.17 514.908 895.937 525.686 894.785C529.2 894.414 532.7 894.057 536.215 893.7C536.486 893.671 536.758 893.657 537.015 893.629C539.987 893.329 542.944 893.043 545.916 892.757C550.116 892.357 554.302 891.972 558.503 891.6C568.189 890.729 577.89 889.934 587.605 889.216C683.478 882.115 779.737 881.876 875.644 888.501C888.202 889.373 900.756 890.363 913.304 891.472C920.962 892.129 928.62 892.857 936.278 893.614C936.821 893.671 937.364 893.728 937.921 893.785C941.021 894.085 944.107 894.414 947.207 894.742C949.493 894.971 951.765 895.214 954.051 895.471C955.651 895.642 957.251 895.813 958.837 895.999C1090.79 910.659 1220.98 938.206 1347.56 978.246C1347.74 978.3 1347.9 978.39 1348.05 978.509C1348.19 978.629 1348.31 978.777 1348.4 978.943C1348.48 979.109 1348.54 979.291 1348.55 979.478C1348.57 979.665 1348.54 979.853 1348.48 980.031Z" fill="#2BD832"/>
<path d="M523.401 614.301C526.755 626.482 534.312 637.085 544.733 644.233C548.762 646.975 553.529 649.606 554.908 654.279C555.633 657.259 555.186 660.403 553.66 663.062C552.136 665.688 550.282 668.107 548.143 670.262L547.948 670.993C537.949 665.07 528.437 657.578 522.914 647.356C517.391 637.133 516.62 623.736 523.401 614.301" fill="#2BD832"/>
<path d="M1027.24 667.35C1021.72 657.128 1020.95 643.73 1027.73 634.295C1031.08 646.476 1038.64 657.079 1049.06 664.227C1053.09 666.969 1057.86 669.6 1059.24 674.273C1059.96 677.253 1059.51 680.397 1057.99 683.056C1056.46 685.682 1054.61 688.102 1052.47 690.256L1052.28 690.987C1042.28 685.064 1032.77 677.572 1027.24 667.35Z" fill="#2BD832"/>
<path d="M811.51 922.988C805.987 912.765 805.216 899.368 811.997 889.933C815.351 902.114 822.908 912.716 833.329 919.865C837.358 922.607 842.125 925.237 843.504 929.911C844.229 932.89 843.782 936.034 842.256 938.694C840.732 941.32 838.878 943.739 836.739 945.894L836.544 946.625C826.545 940.702 817.033 933.21 811.51 922.988Z" fill="#2BD832"/>
<path d="M1113.68 352.405C1153.92 352.405 1186.54 319.795 1186.54 279.57C1186.54 239.344 1153.92 206.734 1113.68 206.734C1073.44 206.734 1040.82 239.344 1040.82 279.57C1040.82 319.795 1073.44 352.405 1113.68 352.405Z" fill="#FF76B8"/>
<path d="M1245.17 223.687C1209.86 218.916 1169.54 237.995 1160.39 272.42C1158.08 266.3 1153.89 261.07 1148.41 257.488C1142.94 253.905 1136.47 252.155 1129.93 252.49C1123.4 252.826 1117.14 255.229 1112.06 259.352C1106.98 263.476 1103.35 269.107 1101.68 275.432L1105.72 278.326C1181.4 294.685 1259.73 294.331 1335.25 277.289C1310.69 251.484 1280.48 228.458 1245.17 223.687Z" fill="#5E6EE4"/>
<path d="M1093.73 320.801C1058.41 316.029 1018.1 335.109 1008.95 369.534C1006.64 363.413 1002.45 358.184 996.973 354.601C991.498 351.019 985.026 349.269 978.492 349.604C971.957 349.939 965.698 352.342 960.619 356.466C955.541 360.59 951.905 366.221 950.237 372.546L954.28 375.44C1029.95 391.798 1108.29 391.444 1183.81 374.403C1159.25 348.598 1129.04 325.572 1093.73 320.801Z" fill="#5E6EE4"/>
<path d="M1238.61 876.017C1236.87 875.369 1235.18 874.628 1233.52 873.797C1233.44 873.926 1233.35 874.058 1233.27 874.186L1238.61 876.017Z" fill="#E6E6E6"/>
<path d="M470.052 313.171C464.529 302.948 463.758 289.551 470.539 280.116C473.894 292.297 481.45 302.9 491.871 310.048C495.901 312.79 500.668 315.421 502.046 320.094C502.771 323.074 502.324 326.217 500.798 328.877C499.274 331.503 497.42 333.922 495.281 336.077L495.086 336.808C485.087 330.885 475.575 323.393 470.052 313.171Z" fill="#2BD832"/>
<path d="M1347.13 1176.69C1346.98 1176.69 1346.84 1176.66 1346.7 1176.62C968.941 1057.2 636.001 1072.82 423.218 1106.95C394.26 1111.59 365.225 1116.95 336.919 1122.89C329.693 1124.4 322.196 1126.02 314.637 1127.71C305.609 1129.72 296.701 1131.79 288.16 1133.86C284.471 1134.73 280.854 1135.61 277.309 1136.5C271.94 1137.82 266.491 1139.2 260.651 1140.72C254.125 1142.4 247.494 1144.17 240.939 1145.97C240.915 1145.97 240.89 1145.98 240.866 1145.99L240.866 1145.99C233.462 1148.01 226.097 1150.09 218.974 1152.17C215.119 1153.28 211.397 1154.38 207.831 1155.46C207.433 1155.57 207.08 1155.68 206.722 1155.78L205.956 1156.02C205.512 1156.15 205.074 1156.28 204.636 1156.41L204.608 1156.42L204.609 1156.42L203.45 1156.78C202.067 1157.2 200.718 1157.61 199.391 1158.01C164.324 1168.82 145.046 1176.51 144.856 1176.58C144.682 1176.65 144.495 1176.69 144.308 1176.69C144.12 1176.68 143.935 1176.64 143.762 1176.57C143.414 1176.42 143.139 1176.14 142.998 1175.79C142.857 1175.44 142.861 1175.04 143.01 1174.7C143.16 1174.35 143.441 1174.07 143.793 1173.93C143.984 1173.86 163.356 1166.13 198.551 1155.28C199.883 1154.88 201.235 1154.47 202.622 1154.05L203.699 1153.71C203.736 1153.7 203.773 1153.69 203.811 1153.68C204.247 1153.55 204.682 1153.42 205.125 1153.29L205.892 1153.05C206.274 1152.94 206.651 1152.82 207.037 1152.72C210.578 1151.64 214.313 1150.54 218.177 1149.42C225.303 1147.34 232.675 1145.26 240.085 1143.24C240.108 1143.23 240.132 1143.23 240.155 1143.22V1143.22C246.733 1141.42 253.388 1139.64 259.935 1137.96C265.785 1136.44 271.243 1135.05 276.622 1133.73C280.182 1132.84 283.806 1131.96 287.493 1131.08C296.045 1129.01 304.971 1126.94 314.014 1124.92C321.585 1123.23 329.095 1121.61 336.333 1120.09C364.683 1114.15 393.764 1108.78 422.765 1104.13C635.853 1069.95 969.27 1054.31 1347.56 1173.9C1347.88 1174 1348.16 1174.22 1348.34 1174.5C1348.52 1174.79 1348.59 1175.14 1348.54 1175.48C1348.49 1175.81 1348.32 1176.12 1348.06 1176.34C1347.8 1176.56 1347.47 1176.69 1347.13 1176.69V1176.69Z" fill="#2BD832"/>
<path d="M419.605 1004.7C437.12 997.553 520.132 988.1 538.989 989.498C541.745 989.702 541.976 985.423 539.227 985.219C519.575 983.763 435.853 993.462 417.616 1000.9C415.067 1001.94 417.065 1005.73 419.605 1004.7V1004.7Z" fill="#2BD832"/>
<path d="M179.334 1059.44C197.033 1052.66 216.058 1050.08 234.923 1051.87C237.674 1052.13 237.993 1047.86 235.249 1047.6C215.614 1045.77 195.823 1048.51 177.423 1055.6C174.853 1056.59 176.773 1060.42 179.334 1059.44Z" fill="#2BD832"/>
<path d="M872.896 985.548C891.565 982.294 910.734 983.4 928.904 988.78C931.555 989.562 932.687 985.429 930.043 984.648C911.124 979.089 891.175 977.983 871.757 981.417C869.045 981.894 870.194 986.023 872.896 985.548V985.548Z" fill="#2BD832"/>
<path d="M1292.27 763.71L1313.41 746.975C1311.52 732.943 1306.22 719.586 1297.99 708.064C1296.47 733.19 1270.14 749.19 1260.49 772.442C1257.54 779.717 1256.26 787.563 1256.76 795.399C1257.25 803.234 1259.5 810.858 1263.34 817.706L1264.79 836.773C1276.22 831.286 1286.32 823.388 1294.41 813.622C1302.49 803.857 1308.35 792.456 1311.6 780.205C1313.36 773.315 1314.24 766.231 1314.22 759.12C1303.58 761.981 1292.27 763.71 1292.27 763.71Z" fill="#5E6EE4"/>
<path d="M1242.35 932.026C1233.91 933.962 1226.55 935.087 1226.55 935.087L1239.59 924.761C1236.64 916.119 1235.03 907.417 1236.95 898.425C1227.05 906.358 1219.01 916.374 1213.41 927.762C1207.81 939.15 1204.79 951.631 1204.57 964.317C1204.34 977.003 1206.91 989.584 1212.1 1001.16C1217.29 1012.74 1224.96 1023.04 1234.58 1031.32L1241.07 1013.33C1246.6 1007.76 1250.8 1001.01 1253.37 993.592C1255.94 986.173 1256.8 978.271 1255.9 970.472C1254.26 957.175 1247.51 944.596 1242.35 932.026Z" fill="#5E6EE4"/>
<path d="M1233.42 722.662C1228.97 726.565 1224.77 730.734 1220.83 735.147L1227.57 719.599C1225.04 718.626 1222.33 718.215 1219.62 718.394C1216.92 718.574 1214.29 719.34 1211.91 720.638C1206.35 723.894 1203.03 730.223 1202.4 736.63C1201.99 743.095 1203.38 749.547 1206.42 755.268C1211.65 765.772 1220.16 774.291 1230.66 779.54C1235.81 771.607 1240.63 763.266 1242.69 754.044C1244.77 744.671 1243.63 734.156 1237.64 726.651C1236.42 725.137 1235 723.795 1233.42 722.662V722.662Z" fill="#5E6EE4"/>
<path d="M1337.98 893.671L1357.59 878.158C1359.21 869.364 1359.43 860.371 1358.26 851.507C1345.09 872.961 1314.31 874.677 1294.85 890.651C1288.82 895.679 1284 902 1280.74 909.145C1277.49 916.289 1275.88 924.075 1276.04 931.924L1268.34 949.427C1281.01 949.966 1293.64 947.755 1305.37 942.944C1317.1 938.133 1327.65 930.837 1336.29 921.559C1344.45 912.58 1350.64 901.983 1354.44 890.457C1345.74 892.486 1337.98 893.671 1337.98 893.671Z" fill="#5E6EE4"/>
<path d="M1230.75 1027.79C1227 1032.62 1223.04 1037.26 1218.85 1041.73C1220.4 1042.2 1221.92 1042.66 1223.4 1043.11C1227.07 1039.13 1230.57 1035 1233.9 1030.73C1234.46 1030.02 1235.02 1029.29 1235.58 1028.55C1241.65 1020.56 1247.12 1012.14 1251.95 1003.35C1261.27 986.453 1268.2 968.336 1272.52 949.526C1272.61 949.198 1272.68 948.883 1272.75 948.555C1273.91 943.385 1274.86 938.158 1275.61 932.917C1275.76 931.86 1275.91 930.789 1276.05 929.732C1276.41 926.833 1276.71 923.934 1276.95 921.035C1277.83 910.467 1277.86 899.845 1277.04 889.273C1275.63 871.191 1271.85 853.373 1265.81 836.274C1265.38 835.06 1264.95 833.846 1264.48 832.647C1264.22 831.933 1263.95 831.219 1263.68 830.505C1256.4 811.694 1246.41 794.046 1234.03 778.12C1233.58 777.535 1233.12 776.964 1232.66 776.392C1231.58 775.036 1230.47 773.693 1229.36 772.365C1229.18 772.133 1228.94 771.949 1228.67 771.826C1228.41 771.704 1228.11 771.647 1227.82 771.661C1227.52 771.675 1227.23 771.759 1226.98 771.907C1226.72 772.054 1226.51 772.26 1226.35 772.508C1225.99 772.903 1225.79 773.414 1225.79 773.945C1225.78 774.475 1225.97 774.99 1226.32 775.393C1227.22 776.464 1228.12 777.549 1228.97 778.649C1230.05 779.948 1231.07 781.276 1232.08 782.619C1254.15 811.713 1267.97 846.21 1272.11 882.489C1274.58 904.847 1273.24 927.463 1268.12 949.369H1268.11C1265.05 962.567 1260.67 975.424 1255.03 987.743C1253.91 990.199 1252.73 992.632 1251.51 995.041C1248.33 1001.31 1244.83 1007.41 1241.02 1013.31C1237.82 1018.29 1234.39 1023.12 1230.75 1027.79Z" fill="#3F3D56"/>
<path d="M1192.92 1048.39C1211.59 1045.13 1230.76 1046.24 1248.93 1051.62C1251.58 1052.4 1252.71 1048.27 1250.07 1047.49C1231.15 1041.93 1211.2 1040.82 1191.78 1044.26C1189.07 1044.73 1190.22 1048.86 1192.92 1048.39V1048.39Z" fill="#2BD832"/>
</g>
<g clip-path="url(#clip1_3_60)">
<path d="M419.279 945.259C497.845 945.259 561.534 881.551 561.534 802.964C561.534 724.377 497.845 660.669 419.279 660.669C340.714 660.669 277.025 724.377 277.025 802.964C277.025 881.551 340.714 945.259 419.279 945.259Z" fill="#F2F2F2"/>
<path d="M428.058 945.847C506.623 945.847 570.312 882.14 570.312 803.552C570.312 724.965 506.623 661.257 428.058 661.257C349.493 661.257 285.803 724.965 285.803 803.552C285.803 882.14 349.493 945.847 428.058 945.847Z" fill="#F2F2F2"/>
<path d="M420.551 808.896C451.88 808.896 477.277 783.491 477.277 752.153C477.277 720.815 451.88 695.411 420.551 695.411C389.221 695.411 363.824 720.815 363.824 752.153C363.824 783.491 389.221 808.896 420.551 808.896Z" fill="#2F2E41"/>
<path d="M562.305 476.416C562.255 504.559 553.863 532.056 538.191 555.428C522.518 578.801 500.269 597 474.256 607.723C448.243 618.447 419.636 621.214 392.051 615.675C364.466 610.136 339.143 596.538 319.283 576.603C299.424 556.667 285.92 531.289 280.48 503.676C275.04 476.064 277.908 447.459 288.721 421.477C299.534 395.495 317.807 373.304 341.228 357.71C364.649 342.116 392.167 333.819 420.303 333.869C438.998 333.854 457.511 337.534 474.78 344.698C492.048 351.863 507.731 362.37 520.926 375.616C534.122 388.863 544.571 404.587 551.672 421.886C558.773 439.184 562.387 457.716 562.305 476.416V476.416Z" fill="#F2F2F2"/>
<path d="M756.846 945.259C835.411 945.259 899.1 881.551 899.1 802.964C899.1 724.377 835.411 660.669 756.846 660.669C678.281 660.669 614.591 724.377 614.591 802.964C614.591 881.551 678.281 945.259 756.846 945.259Z" fill="#F2F2F2"/>
<path d="M789.212 945.847C867.777 945.847 931.466 882.14 931.466 803.552C931.466 724.965 867.777 661.257 789.212 661.257C710.647 661.257 646.957 724.965 646.957 803.552C646.957 882.14 710.647 945.847 789.212 945.847Z" fill="#F2F2F2"/>
<path d="M756.432 618.459C834.997 618.459 898.686 554.751 898.686 476.164C898.686 397.576 834.997 333.869 756.432 333.869C677.867 333.869 614.177 397.576 614.177 476.164C614.177 554.751 677.867 618.459 756.432 618.459Z" fill="#F2F2F2"/>
<path d="M1103.14 618.459C1181.7 618.459 1245.39 554.751 1245.39 476.164C1245.39 397.576 1181.7 333.869 1103.14 333.869C1024.57 333.869 960.885 397.576 960.885 476.164C960.885 554.751 1024.57 618.459 1103.14 618.459Z" fill="#F2F2F2"/>
<path d="M1108.28 945.258C1186.85 945.258 1250.54 881.551 1250.54 802.963C1250.54 724.376 1186.85 660.668 1108.28 660.668C1029.72 660.668 966.027 724.376 966.027 802.963C966.027 881.551 1029.72 945.258 1108.28 945.258Z" fill="#F2F2F2"/>
<path d="M547.74 1144.74C547.74 1172.88 539.397 1200.4 523.766 1223.8C508.135 1247.2 485.917 1265.43 459.924 1276.2C433.93 1286.97 405.328 1289.79 377.733 1284.3C350.138 1278.81 324.791 1265.26 304.896 1245.36C285.002 1225.46 271.453 1200.1 265.964 1172.5C260.475 1144.9 263.292 1116.29 274.059 1090.29C284.826 1064.29 303.059 1042.06 326.453 1026.43C349.847 1010.79 377.35 1002.45 405.485 1002.45C424.19 1002.36 442.725 1005.99 460.022 1013.11C477.319 1020.23 493.034 1030.71 506.26 1043.94C519.486 1057.17 529.962 1072.89 537.081 1090.19C544.201 1107.49 547.823 1126.03 547.74 1144.74V1144.74Z" fill="#F2F2F2"/>
<path d="M547.74 1142.23C547.74 1170.38 539.397 1197.89 523.766 1221.29C508.135 1244.69 485.917 1262.93 459.924 1273.7C433.93 1284.47 405.328 1287.28 377.733 1281.79C350.138 1276.3 324.791 1262.75 304.896 1242.85C285.002 1222.95 271.453 1197.59 265.964 1169.99C260.475 1142.39 263.292 1113.78 274.059 1087.78C284.826 1061.78 303.059 1039.55 326.453 1023.92C349.847 1008.28 377.35 999.937 405.485 999.937C424.19 999.854 442.725 1003.48 460.022 1010.6C477.319 1017.72 493.034 1028.2 506.26 1041.43C519.486 1054.66 529.962 1070.38 537.081 1087.68C544.201 1104.98 547.823 1123.52 547.74 1142.23V1142.23Z" fill="#F2F2F2"/>
<path d="M765.574 1292.27C844.139 1292.27 907.828 1228.56 907.828 1149.97C907.828 1071.38 844.139 1007.68 765.574 1007.68C687.009 1007.68 623.319 1071.38 623.319 1149.97C623.319 1228.56 687.009 1292.27 765.574 1292.27Z" fill="#F2F2F2"/>
<path d="M354.117 429.875C359.999 411.124 373.375 393.925 391.874 387.586C410.374 381.247 437.463 390.904 451.371 404.769C476.812 430.13 483.02 517.256 465.541 544.789C462.065 544.605 450.069 544.469 446.55 544.337L441.572 527.742V544.173C435.967 544 430.317 543.881 424.624 543.815C405.535 543.578 387.281 535.947 373.7 522.527C360.118 509.107 352.268 490.942 351.798 471.852C351.343 453.589 351.799 437.265 354.117 429.875Z" fill="#2F2E41"/>
<path d="M417.94 492.022C440.331 492.022 458.482 473.866 458.482 451.469C458.482 429.072 440.331 410.916 417.94 410.916C395.55 410.916 377.399 429.072 377.399 451.469C377.399 473.866 395.55 492.022 417.94 492.022Z" fill="#FFB8B8"/>
<path d="M382.952 415.854L429.632 392.474C439.175 396.775 447.394 403.553 453.437 412.102C459.479 420.652 463.125 430.664 463.996 441.098L465.159 455.039L445.612 450.061L443.47 432.235L440.151 448.671L431.13 446.375L431.216 418.7L422.189 446.355L389.971 438.951L382.952 415.854Z" fill="#2F2E41"/>
<path d="M717.782 749.57C728.874 749.57 737.866 740.575 737.866 729.48C737.866 718.385 728.874 709.391 717.782 709.391C706.69 709.391 697.698 718.385 697.698 729.48C697.698 740.575 706.69 749.57 717.782 749.57Z" fill="#2F2E41"/>
<path d="M749.916 825.911C778.016 825.911 800.796 803.125 800.796 775.017C800.796 746.909 778.016 724.123 749.916 724.123C721.817 724.123 699.037 746.909 699.037 775.017C699.037 803.125 721.817 825.911 749.916 825.911Z" fill="#2F2E41"/>
<path d="M754.126 825.898C776.961 825.898 795.472 807.382 795.472 784.541C795.472 761.7 776.961 743.184 754.126 743.184C731.292 743.184 712.781 761.7 712.781 784.541C712.781 807.382 731.292 825.898 754.126 825.898Z" fill="#FFB8B8"/>
<path d="M782.204 742.383C774.959 737.965 766.661 735.575 758.176 735.464C749.692 735.352 741.333 737.522 733.974 741.747C726.616 745.973 720.527 752.098 716.345 759.483C712.162 766.868 710.041 775.242 710.201 783.728C731.268 789.019 753.401 793.068 775.868 784.993L781.174 772.004L784.302 785.003C791.144 787.8 798.003 790.167 804.863 784.976C805.143 776.514 803.198 768.126 799.222 760.652C795.245 753.178 789.377 746.878 782.204 742.383Z" fill="#2F2E41"/>
<path d="M786.685 749.715C779.44 745.297 771.142 742.907 762.657 742.795C754.173 742.683 745.814 744.853 738.455 749.079C731.096 753.304 725.008 759.43 720.825 766.815C716.643 774.2 714.521 782.573 714.682 791.059C735.749 796.35 757.882 800.399 780.349 792.325L785.655 779.336L788.783 792.334C795.625 795.132 802.484 797.499 809.344 792.307C809.624 783.845 807.679 775.458 803.703 767.983C799.726 760.509 793.858 754.21 786.685 749.715Z" fill="#2F2E41"/>
<path d="M699.083 674.944C685.195 668.575 667.769 671.564 656.205 681.551C644.641 691.539 639.144 707.795 641.376 722.914C643.653 738.337 653.027 751.618 661.668 764.594C670.308 777.569 678.749 791.788 678.74 807.378C678.733 818.607 674.274 829.375 666.342 837.321C658.409 845.267 647.65 849.741 636.424 849.764C649.6 855.437 663.351 861.222 677.68 860.55C692.009 859.877 707.028 850.663 709.365 836.506C711.049 826.306 706.046 816.359 701.873 806.9C695.077 791.487 690.164 775.311 687.241 758.721C685.848 750.803 684.94 742.479 687.521 734.865C689.576 729.222 693.389 724.39 698.399 721.08C703.408 717.77 709.348 716.158 715.342 716.481L720.077 712.221C722.183 697.084 712.971 681.314 699.083 674.944Z" fill="#2F2E41"/>
<path d="M1045.08 420.506C1043.13 430.998 1039.93 441.22 1035.55 450.951C1010.45 504.052 1081.92 486.743 1107.45 486.743C1135.38 486.743 1162.09 501.431 1158.01 436.171C1156.27 408.295 1135.38 385.599 1107.45 385.599C1083.6 385.599 1050.07 396.203 1045.08 420.506Z" fill="#2F2E41"/>
<path d="M1103.27 486.731C1125.96 486.731 1144.35 468.332 1144.35 445.635C1144.35 422.939 1125.96 404.54 1103.27 404.54C1080.58 404.54 1062.19 422.939 1062.19 445.635C1062.19 468.332 1080.58 486.731 1103.27 486.731Z" fill="#FFB6B6"/>
<path d="M1075.37 403.744C1082.57 399.353 1090.82 396.979 1099.25 396.867C1107.68 396.756 1115.98 398.913 1123.3 403.112C1130.61 407.31 1136.66 413.397 1140.81 420.735C1144.97 428.074 1147.08 436.394 1146.92 444.827C1125.98 450.084 1103.99 454.108 1081.67 446.084L1076.39 433.177L1073.29 446.094C1066.49 448.873 1059.67 451.225 1052.85 446.067C1052.58 437.658 1054.51 429.324 1058.46 421.897C1062.41 414.47 1068.24 408.21 1075.37 403.744V403.744Z" fill="#2F2E41"/>
<path d="M420.573 816.35C448.561 816.35 471.25 793.655 471.25 765.659C471.25 737.664 448.561 714.969 420.573 714.969C392.586 714.969 369.897 737.664 369.897 765.659C369.897 793.655 392.586 816.35 420.573 816.35Z" fill="#FFB8B8"/>
<path d="M762.442 1164.73C786.277 1164.73 805.599 1145.4 805.599 1121.56C805.599 1097.72 786.277 1078.39 762.442 1078.39C738.607 1078.39 719.285 1097.72 719.285 1121.56C719.285 1145.4 738.607 1164.73 762.442 1164.73Z" fill="#FFB8B8"/>
<path d="M762.23 490.679C787.849 490.679 808.617 469.905 808.617 444.279C808.617 418.653 787.849 397.879 762.23 397.879C736.611 397.879 715.843 418.653 715.843 444.279C715.843 469.905 736.611 490.679 762.23 490.679Z" fill="#FFB8B8"/>
<path d="M803.072 413.626C803.072 413.626 815.149 390.531 788.578 388.431C788.578 388.431 765.927 367.877 742.838 384.674C742.838 384.674 730.244 384.674 723.358 398.929C723.358 398.929 713.453 395.172 711.276 405.228C711.276 405.228 704.028 426.223 711.276 445.119C718.524 464.015 720.931 466.115 720.931 466.115C720.931 466.115 715.846 442.666 744.835 440.566C773.824 438.467 800.418 420.301 802.834 443.397C805.25 466.492 807.906 456.059 807.906 456.059C807.906 456.059 830.851 423.074 803.072 413.626Z" fill="#2F2E41"/>
<path d="M1104.35 820.591C1129.43 820.591 1149.76 800.255 1149.76 775.169C1149.76 750.083 1129.43 729.747 1104.35 729.747C1079.28 729.747 1058.95 750.083 1058.95 775.169C1058.95 800.255 1079.28 820.591 1104.35 820.591Z" fill="#FFB6B6"/>
<path d="M478.23 1115.92V1115.92L477.526 1117.19C483.791 1101.75 478.094 1082.72 466.917 1071.07C455.742 1059.42 440.205 1054.1 424.906 1051.99C413.549 1050.42 401.76 1050.47 390.961 1054.63C375.323 1060.65 363.375 1074.6 353.4 1089.11C348.837 1095.75 344.351 1103.32 344.805 1111.61C345.227 1119.31 349.796 1125.85 353.537 1132.38C357.279 1138.91 360.403 1147.01 357.718 1154.14C356.118 1158.39 352.736 1161.45 349.992 1164.93C347.248 1168.4 344.991 1173.1 346.316 1177.46C346.904 1179.13 347.916 1180.61 349.25 1181.77C350.585 1182.94 352.198 1183.73 353.932 1184.08C357.249 1184.85 360.69 1184.35 364.05 1183.84L451.253 1170.66C457.179 1169.77 462.8 1167.45 467.637 1163.91C472.475 1160.37 476.385 1155.72 479.035 1150.34C481.685 1144.96 482.996 1139.03 482.855 1133.03C482.715 1127.04 481.128 1121.17 478.23 1115.92V1115.92Z" fill="#2F2E41"/>
<path d="M455.451 1134.24C459.223 1110.99 443.439 1089.08 420.196 1085.31C396.953 1081.54 375.053 1097.32 371.282 1120.57C367.51 1143.82 383.294 1165.73 406.537 1169.5C429.78 1173.28 451.679 1157.49 455.451 1134.24Z" fill="#FFB9B9"/>
<path d="M526.867 1243.92C502.222 1271.97 467.537 1289.2 430.301 1291.89C393.065 1294.59 356.265 1282.52 327.843 1258.31L340.045 1224.25C342.802 1218.2 347.153 1213.02 352.632 1209.26C358.111 1205.49 364.51 1203.29 371.144 1202.89L378.906 1202.41L397.416 1186.45C397.416 1186.45 447.287 1184.67 446.548 1183.81L476.757 1201.99L476.732 1201.86L488.607 1202.59C495.241 1202.99 501.641 1205.19 507.12 1208.95C512.599 1212.72 516.95 1217.9 519.706 1223.95L526.867 1243.92Z" fill="#5E6EE4"/>
<path d="M870.465 1243.92C845.82 1271.97 811.135 1289.2 773.899 1291.89C736.663 1294.59 699.863 1282.52 671.441 1258.31L683.643 1224.25C686.4 1218.2 690.752 1213.02 696.23 1209.26C701.709 1205.49 708.108 1203.29 714.742 1202.89L722.505 1202.41L741.014 1186.45C741.014 1186.45 790.886 1184.67 790.146 1183.81L820.355 1201.99L820.33 1201.86L832.205 1202.59C838.84 1202.99 845.24 1205.19 850.719 1208.95C856.198 1212.72 860.549 1217.9 863.305 1223.95L870.465 1243.92Z" fill="#5E6EE4"/>
<path d="M453.807 1087.82C452.706 1082 446.768 1079.34 441.68 1078.05C426.923 1074.28 411.572 1073.44 396.491 1075.56C385.497 1077.13 374.242 1080.59 366.265 1089.17C359.833 1096.4 356.189 1105.69 355.986 1115.36C355.661 1121.14 356.953 1126.91 359.718 1132C362.589 1136.86 367.481 1140.38 372.532 1140.26L373.044 1142.04C394.45 1139.05 414.334 1125.73 426.857 1105.98C424.507 1114.38 419.829 1121.94 413.366 1127.78C427.817 1122 440.38 1112.31 449.653 1099.81C452.185 1096.45 454.644 1092.25 453.807 1087.82Z" fill="#2F2E41"/>
<path d="M525.613 896.463C500.968 924.513 466.283 941.744 429.047 944.436C391.811 947.128 355.011 935.065 326.589 910.851L338.791 876.795C341.548 870.746 345.899 865.562 351.378 861.799C356.857 858.035 363.256 855.835 369.89 855.433L377.653 854.956L396.162 838.988C396.162 838.988 446.034 837.207 445.294 836.354L475.503 854.53L475.478 854.404L487.353 855.132C493.987 855.532 500.388 857.732 505.867 861.495C511.346 865.259 515.697 870.444 518.452 876.494L525.613 896.463Z" fill="#5E6EE4"/>
<path d="M863.881 898.17C839.236 926.22 804.552 943.451 767.316 946.143C730.08 948.835 693.279 936.771 664.858 912.557L677.059 878.501C679.817 872.452 684.168 867.268 689.647 863.505C695.125 859.742 701.525 857.541 708.159 857.139L715.921 856.663L734.43 840.695C734.43 840.695 784.302 838.913 783.562 838.061L813.771 856.236L813.746 856.111L825.622 856.838C832.256 857.239 838.656 859.438 844.135 863.202C849.614 866.965 853.965 872.15 856.721 878.2L863.881 898.17Z" fill="#5E6EE4"/>
<path d="M1215 898.17C1190.36 926.22 1155.67 943.451 1118.44 946.143C1081.2 948.835 1044.4 936.771 1015.98 912.557L1028.18 878.501C1030.94 872.452 1035.29 867.268 1040.77 863.505C1046.25 859.742 1052.65 857.541 1059.28 857.139L1067.04 856.663L1085.55 840.695C1085.55 840.695 1135.42 838.913 1134.68 838.061L1164.89 856.236L1164.87 856.111L1176.74 856.838C1183.38 857.239 1189.78 859.438 1195.26 863.202C1200.74 866.965 1205.09 872.15 1207.84 878.2L1215 898.17Z" fill="#5E6EE4"/>
<path d="M525.613 570.329C500.968 598.379 466.283 615.61 429.047 618.302C391.811 620.994 355.011 608.931 326.589 584.716L338.791 550.66C341.548 544.612 345.899 539.428 351.378 535.664C356.857 531.901 363.256 529.701 369.89 529.299L377.653 528.822L396.162 512.854C396.162 512.854 446.034 511.073 445.294 510.22L475.503 528.395L475.478 528.27L487.353 528.998C493.987 529.398 500.388 531.598 505.867 535.361C511.346 539.125 515.697 544.31 518.452 550.359L525.613 570.329Z" fill="#5E6EE4"/>
<path d="M862.628 570.781C837.982 598.831 803.298 616.062 766.062 618.754C728.826 621.446 692.025 609.383 663.604 585.168L675.805 551.113C678.563 545.064 682.914 539.88 688.393 536.117C693.872 532.353 700.271 530.153 706.905 529.751L714.667 529.274L733.176 513.306C733.176 513.306 783.048 511.525 782.308 510.672L812.517 528.848L812.492 528.722L824.368 529.45C831.002 529.85 837.402 532.05 842.881 535.813C848.36 539.577 852.711 544.762 855.467 550.812L862.628 570.781Z" fill="#5E6EE4"/>
<path d="M1213.75 570.781C1189.1 598.831 1154.42 616.062 1117.18 618.754C1079.95 621.446 1043.15 609.383 1014.73 585.168L1026.93 551.113C1029.68 545.064 1034.04 539.88 1039.51 536.117C1044.99 532.353 1051.39 530.153 1058.03 529.751L1065.79 529.274L1084.3 513.306C1084.3 513.306 1134.17 511.525 1133.43 510.672L1163.64 528.848L1163.61 528.722L1175.49 529.45C1182.12 529.85 1188.52 532.05 1194 535.813C1199.48 539.577 1203.83 544.762 1206.59 550.812L1213.75 570.781Z" fill="#5E6EE4"/>
<path d="M1152.25 746.999C1148.41 733.261 1139.69 721.396 1127.73 713.631C1118.2 707.532 1106.3 704.418 1095.5 707.644C1084.7 710.869 1075.76 721.472 1076.46 732.927C1072.56 731.6 1068.13 733.365 1065.28 736.382C1062.43 739.398 1060.89 743.456 1059.79 747.495C1056.33 760.338 1056.56 773.899 1060.45 786.618L1060.24 788.444C1065.51 787.572 1069.51 783.049 1071.99 778.231C1074.48 773.413 1075.91 768.067 1078.6 763.367C1081.29 758.667 1085.77 754.474 1091.1 754.327L1090.63 762.486C1095.22 760.12 1099.82 757.754 1104.41 755.388C1103.31 758.001 1102.22 760.614 1101.13 763.227C1105.14 761.551 1109.15 759.875 1113.16 758.198C1112.71 760.711 1112.26 763.224 1111.81 765.736C1115.79 756.683 1128.09 752.706 1136.45 757.768C1141.31 760.707 1144.5 765.946 1146.17 771.448C1147.85 776.95 1148.18 782.77 1148.5 788.522C1154.7 775.58 1156.03 760.84 1152.25 746.999V746.999Z" fill="#2F2E41"/>
<path d="M723.229 1141.52C723.144 1141.28 723.067 1141.04 722.983 1140.81C722.817 1140.95 722.658 1141.11 722.478 1141.24L723.229 1141.52Z" fill="#2F2E41"/>
<path d="M814.139 1106.2C813.918 1101.82 812.771 1097.54 810.774 1093.64C808.777 1089.73 805.975 1086.29 802.553 1083.55C800.038 1081.56 797.129 1079.88 795.463 1077.14C794.514 1075.2 793.709 1073.19 793.055 1071.13C789.742 1063.25 780.3 1059.05 771.831 1060.25C763.361 1061.44 756.031 1067.14 751.094 1074.13C748.662 1072.96 745.946 1072.52 743.269 1072.85C740.592 1073.18 738.066 1074.27 735.989 1075.99C733.912 1077.71 732.372 1079.99 731.551 1082.56C730.73 1085.13 730.663 1087.88 731.357 1090.49C726.971 1086.96 719.876 1089.78 717.138 1094.71C714.401 1099.63 714.835 1105.66 715.649 1111.23C717.124 1121.31 719.58 1131.21 722.983 1140.81C727.254 1137.05 726.991 1130.2 726.47 1124.41C725.927 1118.39 726.252 1111.04 731.512 1108.08C736.593 1105.21 742.76 1108.36 748.363 1109.98C752.793 1111.24 757.442 1111.52 761.99 1110.8C766.538 1110.09 770.877 1108.39 774.707 1105.84C777.626 1103.86 780.224 1101.39 783.37 1099.8C786.516 1098.21 790.52 1097.66 793.449 1099.62C796.124 1101.41 797.212 1104.75 798.122 1107.84C800.279 1115.16 802.437 1122.47 804.594 1129.79C807.761 1126.76 810.249 1123.09 811.894 1119.02C813.539 1114.96 814.304 1110.59 814.139 1106.2V1106.2Z" fill="#2F2E41"/>
<path d="M474.038 747.882C474.393 744.097 474.556 740.297 474.526 736.496C474.733 728.978 473.356 721.501 470.485 714.551C466.953 706.855 460.656 700.77 452.845 697.505C445.104 694.382 436.451 694.389 428.715 697.526C421.73 693.112 413.969 689.613 405.796 689.179C397.623 688.746 388.982 691.779 383.945 698.455C382.82 700.218 381.543 701.878 380.128 703.416C376.079 707.167 369.926 706.626 364.545 705.859C366.958 707.928 369.373 709.998 371.788 712.067C368.866 712.83 365.944 713.594 363.022 714.357C366.431 716.426 369.841 718.494 373.25 720.563C363.352 726.506 358.853 739.477 360.041 751.257C361.166 762.411 366.549 772.61 372.984 781.675C375.551 776.256 374.998 769.772 374.955 763.669C374.932 761.689 375.053 759.711 375.317 757.749C397.065 762.963 419.788 766.31 442.833 758.028L447.458 746.706C448.106 746.773 448.756 746.836 449.404 746.905L452.084 758.039C458.158 760.522 464.245 762.693 470.335 760.412C470.631 762.132 470.809 763.887 470.946 765.573C471.469 763.556 471.923 761.523 472.331 759.482C473.136 759.05 473.907 758.558 474.637 758.009C474.784 754.622 474.583 751.228 474.038 747.882V747.882Z" fill="#2F2E41"/>
<ellipse cx="399.29" cy="456.169" rx="5.64303" ry="5.64463" fill="black"/>
<ellipse cx="439.419" cy="466.204" rx="5.64303" ry="5.64463" fill="black"/>
<ellipse cx="742.889" cy="462.441" rx="5.64303" ry="5.64463" fill="black"/>
<ellipse cx="783.017" cy="462.441" rx="5.64303" ry="5.64463" fill="black"/>
<ellipse cx="1078.96" cy="461.187" rx="5.64303" ry="5.64463" fill="black"/>
<ellipse cx="1121.6" cy="462.441" rx="5.64303" ry="5.64463" fill="black"/>
<ellipse cx="399.29" cy="781.049" rx="5.64303" ry="5.64463" fill="black"/>
<ellipse cx="448.197" cy="782.303" rx="5.64303" ry="5.64463" fill="black"/>
<ellipse cx="736.619" cy="803.628" rx="5.64303" ry="5.64463" fill="black"/>
<ellipse cx="771.731" cy="807.391" rx="5.64303" ry="5.64463" fill="black"/>
<ellipse cx="1090.25" cy="783.558" rx="5.64303" ry="5.64463" fill="black"/>
<ellipse cx="1130.38" cy="784.813" rx="5.64303" ry="5.64463" fill="black"/>
<ellipse cx="747.904" cy="1128.51" rx="5.64303" ry="5.64463" fill="black"/>
<ellipse cx="399.29" cy="1144.81" rx="5.64303" ry="5.64463" fill="black"/>
<ellipse cx="436.911" cy="1128.51" rx="5.64303" ry="5.64463" fill="black"/>
<ellipse cx="778.001" cy="1128.51" rx="5.64303" ry="5.64463" fill="black"/>
</g>
<defs>
<clipPath id="clip0_3_60">
<rect width="1218" height="969.955" fill="white" transform="translate(141 206.734)"/>
</clipPath>
<clipPath id="clip1_3_60">
<rect width="973.511" height="958.397" fill="white" transform="translate(277.025 333.869)"/>
</clipPath>
</defs>
</svg>
