<svg xmlns="http://www.w3.org/2000/svg" xmlns:xlink="http://www.w3.org/1999/xlink" width="1500" height="1500" viewBox="0 0 1500 1500">
  <defs>
    <clipPath id="clip-undraw_start_building_re_xani">
      <rect width="1500" height="1500"/>
    </clipPath>
  </defs>
  <g id="undraw_start_building_re_xani" clip-path="url(#clip-undraw_start_building_re_xani)">
    <rect width="1500" height="1500" fill="#fff"/>
    <g id="undraw_start_building_re_xani-2" data-name="undraw_start_building_re_xani">
      <rect id="Rectangle_2211" data-name="Rectangle 2211" width="1500" height="1500" fill="#fff" opacity="0"/>
      <path id="Path_16509" data-name="Path 16509" d="M989.669,467.872a46.436,46.436,0,1,0-46.405-46.436A46.416,46.416,0,0,0,989.669,467.872Z" transform="translate(0 60)" fill="#f39728"/>
      <path id="Path_16510" data-name="Path 16510" d="M1114.06,1261.64l-16.71.34-9.32-65.77,24.67-.51Z" transform="translate(0 60)" fill="#ffb6b6"/>
      <path id="Path_16511" data-name="Path 16511" d="M1061.32,1289.79a7.485,7.485,0,0,0,7.62,7.32l33.23-.69,5.47-11.97,2.48,11.8,12.54-.25-4.39-42.2-4.37-.16-17.83-.71-5.75-.22.25,11.97-26.16,18.89a7.478,7.478,0,0,0-3.09,6.22Z" transform="translate(0 60)" fill="#3f3d56"/>
      <path id="Path_16512" data-name="Path 16512" d="M1226.53,1261.64l-16.71.34-9.32-65.77,24.67-.51Z" transform="translate(0 60)" fill="#ffb6b6"/>
      <path id="Path_16513" data-name="Path 16513" d="M1173.79,1289.79a7.487,7.487,0,0,0,7.63,7.32l33.22-.69,5.48-11.97,2.48,11.8,12.53-.25-4.39-42.2-4.37-.16-17.83-.71-5.75-.22.25,11.97-26.16,18.89a7.5,7.5,0,0,0-3.09,6.22Z" transform="translate(0 60)" fill="#3f3d56"/>
      <path id="Path_16514" data-name="Path 16514" d="M1130.91,755.923l92.02-2.558-5.11,7.674,11.64,11.51s42.04,57.553,29.26,109.989-5.59,362.442-5.59,362.442l-74.93-8.17,8.3-312.706-61.34,117.666,17.83,190.75-63.85-.19-20.45-205.91,72.22-270.5Z" transform="translate(0 60)" fill="#3f3d56"/>
      <path id="Path_16515" data-name="Path 16515" d="M745.96,508.529a1.016,1.016,0,0,0,1.888,0,86.358,86.358,0,0,1,9.594-17.731,1.023,1.023,0,0,0-1.178-1.563l-8.018,2.9V442.473h-2.684v49.665l-8.02-2.9a1.023,1.023,0,0,0-1.179,1.563,86.39,86.39,0,0,1,9.6,17.731Z" transform="translate(0 60)" fill="#3f3d56"/>
      <path id="Path_16516" data-name="Path 16516" d="M798.537,559.667a1.017,1.017,0,0,0,1.479,1.175,86.277,86.277,0,0,1,18.532-7.914,1.023,1.023,0,0,0,.049-1.957l-8.082-2.717,30.866-38.892-2.1-1.671-30.866,38.893-4.477-7.265a1.022,1.022,0,0,0-1.894.491,86.432,86.432,0,0,1-3.505,19.857Z" transform="translate(0 60)" fill="#3f3d56"/>
      <path id="Path_16517" data-name="Path 16517" d="M994.576,650.41l49.564-5.717,7.21,27.877-52.614,4.178a16.708,16.708,0,1,1-4.16-26.338Z" transform="translate(0 60)" fill="#ffb6b6"/>
      <path id="Path_16518" data-name="Path 16518" d="M1231.89,586.112l-19.4-29.456a85.309,85.309,0,0,0-8.96,8.111l-4.02,2.771-12.99,11.624-36.79,32.861-12.23,10.944-13.66,2.4-30.15,5.309-45.65,12.294-33.62,2.178c-.02.682-.02,1.7-.02,2.972-.01,6.61.14,19.983,1.44,27.274.45,2.538,1.04,4.334,1.81,4.875.25.171,25.99-7.875,27.29-7.89,10.48-.015,27.98,2.86,63.29-1.737,20.98-2.755,39.45-5.263,47.21-6.331l.17-.031,5.62-2.724,61.64-29.874,18.61-9.024a142.12,142.12,0,0,0-9.59-36.545Z" transform="translate(0 60)" fill="#ffc932"/>
      <path id="Path_16519" data-name="Path 16519" d="M168.1,418.248A35.109,35.109,0,0,0,133,453.369V1048.23h3.094V662.315c0-133.085,107.813-240.971,240.81-240.971l615.147-.563-.562-2.533Z" transform="translate(0 60)" fill="#3f3d56"/>
      <path id="Path_16520" data-name="Path 16520" d="M330.539,517.087a13.385,13.385,0,1,0-13.081-13.381A13.233,13.233,0,0,0,330.539,517.087Z" transform="translate(0 60)" fill="#3f3d56"/>
      <path id="Path_16521" data-name="Path 16521" d="M375.728,517.087a13.385,13.385,0,1,0-13.081-13.381A13.234,13.234,0,0,0,375.728,517.087Z" transform="translate(0 60)" fill="#3f3d56"/>
      <path id="Path_16522" data-name="Path 16522" d="M420.916,517.087a13.385,13.385,0,1,0-13.081-13.381A13.233,13.233,0,0,0,420.916,517.087Z" transform="translate(0 60)" fill="#3f3d56"/>
      <path id="Path_16523" data-name="Path 16523" d="M648.888,661.355a35.11,35.11,0,0,0-35.1,35.121v254.33h3.094V905.422c0-133.085,107.814-240.971,240.81-240.971l223.8-.563-.56-2.532Z" transform="translate(0 60)" fill="#f2f2f2"/>
      <path id="Path_16524" data-name="Path 16524" d="M778.843,819.2a3.1,3.1,0,0,0-3.094,3.1v47.984a3.093,3.093,0,1,0,6.187,0V822.291A3.1,3.1,0,0,0,778.843,819.2Z" transform="translate(0 60)" fill="#3f3d56"/>
      <path id="Path_16525" data-name="Path 16525" d="M809.162,865.43a18.889,18.889,0,1,0-19.278-18.885A19.085,19.085,0,0,0,809.162,865.43Z" transform="translate(0 60)" fill="#ffc932"/>
      <path id="Path_16526" data-name="Path 16526" d="M963.71,840.085H859.942a6.461,6.461,0,0,1,0-12.921H963.71a6.461,6.461,0,0,1,0,12.921Z" transform="translate(0 60)" fill="#f2f2f2"/>
      <path id="Path_16527" data-name="Path 16527" d="M1044.69,861.953H859.942a6.461,6.461,0,0,1,0-12.922H1044.69a6.461,6.461,0,0,1,0,12.922Z" transform="translate(0 60)" fill="#f2f2f2"/>
      <path id="Path_16528" data-name="Path 16528" d="M788.4,736.886A13.385,13.385,0,1,0,775.319,723.5,13.234,13.234,0,0,0,788.4,736.886Z" transform="translate(0 60)" fill="#f2f2f2"/>
      <path id="Path_16529" data-name="Path 16529" d="M833.589,736.886A13.385,13.385,0,1,0,820.508,723.5,13.234,13.234,0,0,0,833.589,736.886Z" transform="translate(0 60)" fill="#f2f2f2"/>
      <path id="Path_16530" data-name="Path 16530" d="M878.777,736.886A13.385,13.385,0,1,0,865.7,723.5,13.233,13.233,0,0,0,878.777,736.886Z" transform="translate(0 60)" fill="#f2f2f2"/>
      <path id="Path_16531" data-name="Path 16531" d="M272.762,637.217a3.1,3.1,0,0,0-3.094,3.1V688.3a3.094,3.094,0,1,0,6.188,0V640.313A3.1,3.1,0,0,0,272.762,637.217Z" transform="translate(0 60)" fill="#3f3d56"/>
      <path id="Path_16532" data-name="Path 16532" d="M303.082,683.452A18.889,18.889,0,1,0,283.8,664.567,19.085,19.085,0,0,0,303.082,683.452Z" transform="translate(0 60)" fill="#ffc932"/>
      <path id="Path_16533" data-name="Path 16533" d="M457.629,658.107H353.861a6.461,6.461,0,0,1,0-12.921H457.629a6.461,6.461,0,0,1,0,12.921Z" transform="translate(0 60)" fill="#f2f2f2"/>
      <path id="Path_16534" data-name="Path 16534" d="M538.611,679.974H353.861a6.461,6.461,0,0,1,0-12.921h184.75a6.461,6.461,0,0,1,0,12.921Z" transform="translate(0 60)" fill="#f2f2f2"/>
      <path id="Path_16535" data-name="Path 16535" d="M272.762,770.332a3.1,3.1,0,0,0-3.094,3.1v47.983a3.094,3.094,0,1,0,6.188,0V773.428A3.1,3.1,0,0,0,272.762,770.332Z" transform="translate(0 60)" fill="#3f3d56"/>
      <path id="Path_16536" data-name="Path 16536" d="M303.082,816.569A18.889,18.889,0,1,0,283.8,797.684,19.084,19.084,0,0,0,303.082,816.569Z" transform="translate(0 60)" fill="#ffc932"/>
      <path id="Path_16537" data-name="Path 16537" d="M457.629,791.224H353.861a6.461,6.461,0,0,1,0-12.921H457.629a6.461,6.461,0,0,1,0,12.921Z" transform="translate(0 60)" fill="#f2f2f2"/>
      <path id="Path_16538" data-name="Path 16538" d="M538.611,813.091H353.861a6.461,6.461,0,0,1,0-12.921h184.75a6.461,6.461,0,0,1,0,12.921Z" transform="translate(0 60)" fill="#f2f2f2"/>
      <path id="Path_16539" data-name="Path 16539" d="M272.762,903.449a3.1,3.1,0,0,0-3.094,3.1v47.984a3.094,3.094,0,1,0,6.188,0V906.545A3.1,3.1,0,0,0,272.762,903.449Z" transform="translate(0 60)" fill="#3f3d56"/>
      <path id="Path_16540" data-name="Path 16540" d="M303.082,949.684A18.889,18.889,0,1,0,283.8,930.8,19.084,19.084,0,0,0,303.082,949.684Z" transform="translate(0 60)" fill="#ffc932"/>
      <path id="Path_16541" data-name="Path 16541" d="M457.629,924.339H353.861a6.46,6.46,0,0,1,0-12.921H457.629a6.46,6.46,0,0,1,0,12.921Z" transform="translate(0 60)" fill="#f2f2f2"/>
      <path id="Path_16542" data-name="Path 16542" d="M538.611,946.206H353.861a6.461,6.461,0,0,1,0-12.921h184.75a6.461,6.461,0,0,1,0,12.921Z" transform="translate(0 60)" fill="#f2f2f2"/>
      <path id="Path_16543" data-name="Path 16543" d="M1247.58,805.494c-1.92,14.578-101.09-19.936-112.92-26.314-22.14-11.9,1.02.306,1.02.306l-2.57-73.055-2.68-43.53s-1.5-11.562-4.64-26.313c-.71-3.313-1.47-7.151-1.95-11.222-1.36-11.749-.32-25.4,11.23-33.666l40.3-60.119,19.84-1.161,17.28,26.236,19.4,29.456a142.12,142.12,0,0,1,9.59,36.545,143.842,143.842,0,0,1,1.09,17.615,142.369,142.369,0,0,1-3.41,31.05l-12.15,34.068a8.306,8.306,0,0,0,3.81,8.993c10.82,6.549-11.08,24.553,2.32,46.854,0,0-1.25,10.247,4.72,11.145s10.52,26.973,9.72,33.112Z" transform="translate(0 60)" fill="#ffc932"/>
      <path id="Path_16544" data-name="Path 16544" d="M1054.91,840.521l29.43-40.316,25.36,13.608-32.63,41.516a16.464,16.464,0,0,1-.44,4.91,16.7,16.7,0,1,1-21.72-19.718Z" transform="translate(0 60)" fill="#ffb6b6"/>
      <path id="Path_16545" data-name="Path 16545" d="M1179.19,586.2a56.237,56.237,0,0,0-23.22-9.768c-11.81-2.061-18.43,14.94-21.04,31.521a96.887,96.887,0,0,0-1.13,20.83l-.7,4.852-.41,25.117-.96,58.068-29.55,43.788-12.38,29.409-25.29,32.346c.5.475,1.25,1.168,2.18,2.038,4.85,4.489,14.75,13.442,20.99,17.436,2.17,1.377,3.88,2.16,4.8,1.967.29-.063,18.1-17.226,18.98-18.186,5.9-6.434,7.07-15.068,24.92-40.163,16.27-22.84,32.13-45.552,37.86-53.771l.11-.147,25.74-84.972,2.34-7.7a56.643,56.643,0,0,0-23.24-52.663Z" transform="translate(0 60)" fill="#ffc932"/>
      <path id="Path_16546" data-name="Path 16546" d="M1164.59,587.471l-.13-.059c-.4.033-.8.057-1.18.059Z" transform="translate(0 60)" fill="#3f3d56"/>
      <path id="Path_16547" data-name="Path 16547" d="M1176.14,520.746a45.025,45.025,0,1,0-44.99-45.024A45.014,45.014,0,0,0,1176.14,520.746Z" transform="translate(0 60)" fill="#ffb6b6"/>
      <path id="Path_16548" data-name="Path 16548" d="M1115.22,463.207c-3.04-21.827,5.82-28.505,19.68-30.483,27.41-14.257,33.69-10.673,42.38-9.126l3.2-.687c9.8-2.111,13.36-1.21,22.07,2.087,18.39,6.938,30.47,24.53,31.81,44.147.92,13.524-3.32,15.629,4.52,26.612a15.663,15.663,0,0,1-9.46,24.406l-10.24,15.487a71.805,71.805,0,0,1-6.74-10.6,35.962,35.962,0,0,0-.53,12.162c-10.19,5.08-21.32,7.182-33.12,7.131-1.9-2.531-3.6-5.351-3.38-8.527a61.571,61.571,0,0,0-1.59,9.6c-7.43-4.784-13.56-3.378-18.46,3.975-12.38-10.264-13.35-33.782,1.36-39.673,12.45-4.984-7.18-39.873-20.57-40.585-.08,0-3.65,13.485-3.78,13.232-1.88-3.781-1.02-5.853-3.28-9.993a34.424,34.424,0,0,0-.7,10.153,56.407,56.407,0,0,1-9.68-3.077c-3.78-5.137-5.24-10.52-3.49-16.241Z" transform="translate(0 60)" fill="#3f3d56"/>
      <path id="Path_16549" data-name="Path 16549" d="M1282.07,1274.17a3.516,3.516,0,0,0,2.55-6.09l-.25-.95c.04-.08.07-.16.1-.23a9.426,9.426,0,0,1,17.39.06c2.84,6.86,6.46,13.72,7.35,20.97a28.16,28.16,0,0,1-.48,9.6,112.046,112.046,0,0,0,10.17-46.47,107.991,107.991,0,0,0-.67-12.05q-.555-4.92-1.54-9.77a113.214,113.214,0,0,0-22.43-47.96,30.1,30.1,0,0,1-12.52-13,22.979,22.979,0,0,1-2.09-6.28c.61.08,2.3-9.21,1.84-9.78.85-1.29,2.37-1.93,3.3-3.19,4.61-6.25,10.97-5.16,14.28,3.34,7.09,3.58,7.16,9.52,2.81,15.23-2.77,3.63-3.15,8.55-5.57,12.44.25.32.51.63.76.95a113.477,113.477,0,0,1,11.88,18.83,47.353,47.353,0,0,1,2.82-21.99c2.71-6.53,7.78-12.03,12.24-17.67,5.36-6.78,16.35-3.82,17.3,4.77.01.08.02.17.03.25-.67.37-1.32.77-1.95,1.19a4.764,4.764,0,0,0,1.92,8.67l.1.02a47.414,47.414,0,0,1-1.25,7.09c5.72,22.15-6.64,30.23-24.29,30.59-.39.2-.77.4-1.16.59a115.485,115.485,0,0,1,6.25,29.45,110.305,110.305,0,0,1-.08,17.81l.03-.21a29.185,29.185,0,0,1,9.94-16.83c7.65-6.29,18.46-8.6,26.72-13.66a5.467,5.467,0,0,1,8.37,5.32l-.04.22a31.055,31.055,0,0,0-3.58,1.73c-.67.38-1.32.77-1.95,1.19a4.764,4.764,0,0,0,1.92,8.67l.1.02.2.03a47.459,47.459,0,0,1-8.73,13.67c-3.58,19.34-18.95,21.17-35.4,15.54h-.01a116.26,116.26,0,0,1-7.81,22.8h-27.87c-.1-.31-.19-.63-.28-.94a31.618,31.618,0,0,0,7.71-.46c-2.07-2.54-4.13-5.1-6.2-7.64a1.755,1.755,0,0,1-.13-.15c-1.05-1.3-2.11-2.59-3.16-3.89h0a46.615,46.615,0,0,1,1.36-11.83Z" transform="translate(0 60)" fill="#f2f2f2"/>
      <path id="Path_16550" data-name="Path 16550" d="M970.306,1299.16a1.835,1.835,0,0,0,1.84,1.84H1363.94a1.84,1.84,0,1,0,0-3.68H972.146A1.835,1.835,0,0,0,970.306,1299.16Z" transform="translate(0 60)" fill="#ccc"/>
      <path id="Path_16551" data-name="Path 16551" d="M773.427,592.809H721.266a5.882,5.882,0,0,1-5.873-5.877c-6.9-20.171-6.76-39.936,0-59.318a5.882,5.882,0,0,1,5.873-5.878h52.161a5.883,5.883,0,0,1,5.874,5.878v59.318A5.882,5.882,0,0,1,773.427,592.809Z" transform="translate(0 60)" fill="#e6e6e6"/>
      <path id="Path_16552" data-name="Path 16552" d="M732.442,523.488a15.305,15.305,0,0,0-15.3,15.31v46.877a5.383,5.383,0,0,0,5.381,5.384h28.845a26.191,26.191,0,0,0,26.182-26.2V528.873a5.383,5.383,0,0,0-5.381-5.385Z" transform="translate(0 60)" fill="#fff"/>
      <path id="Path_16553" data-name="Path 16553" d="M759.494,540.727H735.073a1.117,1.117,0,0,1,0-2.235h24.421a1.117,1.117,0,0,1,0,2.235Z" transform="translate(0 60)" fill="#e6e6e6"/>
      <path id="Path_16554" data-name="Path 16554" d="M759.494,564.553H735.073a1.117,1.117,0,0,1,0-2.235h24.421a1.117,1.117,0,0,1,0,2.235Z" transform="translate(0 60)" fill="#e6e6e6"/>
      <path id="Path_16555" data-name="Path 16555" d="M772.6,552.647h-50.63a1.117,1.117,0,0,1,0-2.235H772.6a1.117,1.117,0,0,1,0,2.235Z" transform="translate(0 60)" fill="#e6e6e6"/>
      <path id="Path_16556" data-name="Path 16556" d="M773.2,574.238H752.07a1.117,1.117,0,1,1,0-2.234H773.2a1.117,1.117,0,0,1,0,2.234Z" transform="translate(0 60)" fill="#e6e6e6"/>
      <path id="Path_16557" data-name="Path 16557" d="M17438.191-15396.425h-4v-103.055h-51.746v-175.437H17215.3v175.438h-153.789v103.055h-4v-107.055H17211.3v-175.437h175.141v175.438h51.746Z" transform="translate(-16639 15850)" fill="#3f3d56"/>
      <rect id="Rectangle_2212" data-name="Rectangle 2212" width="25" height="25" transform="translate(597 193)" fill="#f2f2f2"/>
      <rect id="Rectangle_2215" data-name="Rectangle 2215" width="25" height="25" transform="translate(597 261)" fill="#f2f2f2"/>
      <rect id="Rectangle_2218" data-name="Rectangle 2218" width="25" height="25" transform="translate(597 325)" fill="#f2f2f2"/>
      <rect id="Rectangle_2221" data-name="Rectangle 2221" width="25" height="25" transform="translate(446 370)" fill="#f2f2f2"/>
      <rect id="Rectangle_2224" data-name="Rectangle 2224" width="25" height="25" transform="translate(446 429)" fill="#f2f2f2"/>
      <rect id="Rectangle_2234" data-name="Rectangle 2234" width="25" height="25" transform="translate(598 429)" fill="#f2f2f2"/>
      <rect id="Rectangle_2213" data-name="Rectangle 2213" width="25" height="25" transform="translate(648 193)" fill="#f2f2f2"/>
      <rect id="Rectangle_2216" data-name="Rectangle 2216" width="25" height="25" transform="translate(648 261)" fill="#f2f2f2"/>
      <rect id="Rectangle_2219" data-name="Rectangle 2219" width="25" height="25" transform="translate(648 325)" fill="#f2f2f2"/>
      <rect id="Rectangle_2222" data-name="Rectangle 2222" width="25" height="25" transform="translate(497 370)" fill="#f2f2f2"/>
      <rect id="Rectangle_2225" data-name="Rectangle 2225" width="25" height="25" transform="translate(497 429)" fill="#f2f2f2"/>
      <rect id="Rectangle_2214" data-name="Rectangle 2214" width="25" height="25" transform="translate(698 193)" fill="#f2f2f2"/>
      <rect id="Rectangle_2217" data-name="Rectangle 2217" width="25" height="25" transform="translate(698 261)" fill="#f2f2f2"/>
      <rect id="Rectangle_2220" data-name="Rectangle 2220" width="25" height="25" transform="translate(698 325)" fill="#f2f2f2"/>
      <rect id="Rectangle_2223" data-name="Rectangle 2223" width="25" height="25" transform="translate(547 370)" fill="#f2f2f2"/>
      <rect id="Rectangle_2233" data-name="Rectangle 2233" width="25" height="25" transform="translate(598 370)" fill="#f2f2f2"/>
      <rect id="Rectangle_2235" data-name="Rectangle 2235" width="25" height="25" transform="translate(648 370)" fill="#f2f2f2"/>
      <rect id="Rectangle_2237" data-name="Rectangle 2237" width="25" height="25" transform="translate(698 370)" fill="#f2f2f2"/>
      <rect id="Rectangle_2239" data-name="Rectangle 2239" width="25" height="25" transform="translate(748 370)" fill="#f2f2f2"/>
      <rect id="Rectangle_2236" data-name="Rectangle 2236" width="25" height="25" transform="translate(648 429)" fill="#f2f2f2"/>
      <rect id="Rectangle_2238" data-name="Rectangle 2238" width="25" height="25" transform="translate(698 429)" fill="#f2f2f2"/>
      <rect id="Rectangle_2240" data-name="Rectangle 2240" width="25" height="25" transform="translate(748 429)" fill="#f2f2f2"/>
      <rect id="Rectangle_2226" data-name="Rectangle 2226" width="25" height="25" transform="translate(547 429)" fill="#f2f2f2"/>
    </g>
  </g>
</svg>
