<svg xmlns="http://www.w3.org/2000/svg" xmlns:xlink="http://www.w3.org/1999/xlink" width="1500" height="1500" viewBox="0 0 1500 1500">
  <defs>
    <clipPath id="clip-undraw_loving_it_re_jfh4">
      <rect width="1500" height="1500"/>
    </clipPath>
  </defs>
  <g id="undraw_loving_it_re_jfh4" clip-path="url(#clip-undraw_loving_it_re_jfh4)">
    <rect width="1500" height="1500" fill="#fff"/>
    <g id="undraw_loving_it_re_jfh4-2" data-name="undraw_loving_it_re_jfh4">
      <g id="Group_318" data-name="Group 318" transform="translate(-33.502 -35.378)">
        <path id="Path_10906" data-name="Path 10906" d="M522.357,1028.282c8.77,30.426,34.378,51.73,61.091,69.819,3.731,2.517,7.461,5,11.194,7.4l.076.052c.181.122.359.226.528.347.769.5,1.54.99,2.3,1.493l-.42.174s-.411.226.04.035l.408-.156c15.518-6.25,31.312-12.985,43.205-24.7,12.337-12.169,19.547-31.272,12.867-47.267a30.6,30.6,0,0,0-3.307-5.935c-.542-.774-1.127-1.517-1.734-2.245a32.732,32.732,0,0,0-56.22,9.945c-1.963-18.271,13.1-33.577,27.6-44.872s30.989-23.58,33.794-41.752c1.566-10.109-1.95-19.907-8.354-27.772-.2-.24-.4-.477-.6-.71a47.77,47.77,0,0,0-30.7-16.473c-22.245-2.312-43.851,9.463-60.009,24.929C528.11,955.468,512.387,993.689,522.357,1028.282Z" transform="translate(-153.915 149.725)" fill="#e2c7b6"/>
        <path id="Path_10907" data-name="Path 10907" d="M550.332,981.416a81.248,81.248,0,0,0-9.73,21.458,70.56,70.56,0,0,0-2.437,20.827A90.364,90.364,0,0,0,550,1064.817a130.167,130.167,0,0,0,19.616,26.214c3.729,2.517,7.46,5,11.192,7.4l.078.052c.179.122.359.226.526.347.771.5,1.542.989,2.305,1.493,0,0-.832.4-.382.208.135-.052.276-.1.41-.156a71.241,71.241,0,0,1,52.763-77.9c-.542-.776-1.125-1.519-1.732-2.246a75.217,75.217,0,0,0-12.407,4.694,73.646,73.646,0,0,0-33.3,32.105,75.3,75.3,0,0,0-8.2,41.32c-.637-.573-1.276-1.163-1.9-1.753-11.792-10.989-22.266-23.609-29.354-38.179a84.029,84.029,0,0,1-8.8-39.766c.578-15.021,6.564-28.935,15.23-41.049A175.933,175.933,0,0,1,589.4,943.221a199.941,199.941,0,0,1,41.478-25.606,1.439,1.439,0,0,0,.722-1.845,1.227,1.227,0,0,0-.6-.71,1.066,1.066,0,0,0-.465-.085,1.053,1.053,0,0,0-.458.125c-1.83.842-3.647,1.7-5.449,2.587a202.152,202.152,0,0,0-41.771,27.555C570.556,955.723,558.981,967.7,550.332,981.416Z" transform="translate(-140.082 156.795)" fill="#fff"/>
        <path id="Path_10908" data-name="Path 10908" d="M726.6,751.365c25.076-13.707,33.932-45.807,19.778-71.7S700.422,643.9,675.346,657.61s-33.93,45.807-19.778,71.7S701.523,765.072,726.6,751.365Z" transform="translate(-58.61 -37.165)" fill="#5d2224"/>
        <path id="Path_10909" data-name="Path 10909" d="M696.941,750.615A42.637,42.637,0,1,0,654.3,707.977,42.637,42.637,0,0,0,696.941,750.615Z" transform="translate(-54.579 -26.93)" fill="#f69c74"/>
        <path id="Path_10910" data-name="Path 10910" d="M668.021,731.077l-5.484,15.509,8.065,46.679,33.237,27.616,26.394-40.813-12.707-38.615L707.994,730.7a7.051,7.051,0,0,0-6.876-7.725l-20.816-.4a12.756,12.756,0,0,0-12.28,8.506Z" transform="translate(-48.52 15.189)" fill="#e8cfbe"/>
        <path id="Path_10911" data-name="Path 10911" d="M716.579,1045.507h21.283l2.939-82.1-24.229,0Z" transform="translate(-8.751 192.441)" fill="#f69c74"/>
        <path id="Path_10912" data-name="Path 10912" d="M780.84,1033.039H713.951l0-25.849h41.045a25.845,25.845,0,0,1,25.845,25.849Z" transform="translate(-10.681 224.664)" fill="#5d2224"/>
        <path id="Path_10913" data-name="Path 10913" d="M630.7,1045.507h21.283l10.121-82.1-31.411,0Z" transform="translate(-71.958 192.441)" fill="#f69c74"/>
        <path id="Path_10914" data-name="Path 10914" d="M694.957,1033.039H628.068l0-25.849H669.11a25.848,25.848,0,0,1,25.847,25.849Z" transform="translate(-73.889 224.664)" fill="#5d2224"/>
        <path id="Path_10915" data-name="Path 10915" d="M749.822,679.707a17.458,17.458,0,0,1,4.083,26.455l17.6,35.8-19.144,16-24.149-50.9a17.551,17.551,0,0,1,21.608-27.352Z" transform="translate(-3.954 -18.266)" fill="#f69c74"/>
        <path id="Path_10916" data-name="Path 10916" d="M683.143,923.26a256.794,256.794,0,0,1-31.017-2.288,12.4,12.4,0,0,1-10.419-15.541l23.038-85.308-18.554-52.052a23.4,23.4,0,0,1,12.919-29.383l25.484-10.775,7.659,47.415,18.25,23.01a5.932,5.932,0,0,0,9.829-.8l13.858-24.84L722.872,727.06l16.875,2a29.3,29.3,0,0,1,24.151,19.5,78.231,78.231,0,0,1,1.3,46.738L758.2,820.143l12.28,79.371a16.168,16.168,0,0,1-14.266,18.559,162.5,162.5,0,0,1-23.642.99c-7.164-.306-12.2-4.673-14.551-12.633a2.215,2.215,0,0,0-4.265-.023q-.979,3.468-2.151,7.722C709.708,921.016,697.826,923.26,683.143,923.26Z" transform="translate(-64.166 18.495)" fill="#cdad3f"/>
        <path id="Path_10917" data-name="Path 10917" d="M714.644,789.456a16.023,16.023,0,0,1-6.166-1.219,15.165,15.165,0,0,1-9.058-11,18.344,18.344,0,0,1,9.458-19.7l49.729-27-2.72-10.754a8.646,8.646,0,0,1,3.342-8.911l12.824-9.527A8.219,8.219,0,0,1,779,699.878a7.25,7.25,0,0,1,4.824,4l6.663,14.383c5.27,11.381.764,25.4-10.484,32.6l-55.775,35.73a17.822,17.822,0,0,1-9.579,2.865Z" transform="translate(-21.619 -1.682)" fill="#cdad3f"/>
        <path id="Path_10918" data-name="Path 10918" d="M662.51,1116.129c-.172,0-.347-.005-.521-.016l-27.1-1.089a7.812,7.812,0,0,1-7.284-8.605l27.5-264.582,72.175-26.246,42.5,24.052,46.5,256.369a7.814,7.814,0,0,1-5.819,9.018l-.111.028-27.739-.682a7.836,7.836,0,0,1-9.192-5.255l-59.074-207.3a2.6,2.6,0,0,0-5.014.233l-39.216,217.957a7.789,7.789,0,0,1-7.612,6.118Z" transform="translate(-74.258 83.651)" fill="#f0685b"/>
        <path id="Path_10919" data-name="Path 10919" d="M658.708,684.393c-6.784,8.881-1.622,23.995,9.176,26.871s22.793-7.67,21.327-18.747c-2.331,11.622,7.616,23.785,19.424,24.817s23.29-8.218,25.873-19.787-3.182-24.207-13-30.852-22.958-7.51-34.065-3.366a65.695,65.695,0,0,0-28.737,21.063Z" transform="translate(-53.584 -30.263)" fill="#5d2224"/>
        <path id="Path_10920" data-name="Path 10920" d="M758.937,675.09c-6.315-13.254-12.8-26.762-23.012-37.315s-24.976-17.822-39.445-15.332-26.93,17.092-23.726,31.42c1.628,7.277-4.6,14.49-11.787,16.494s-14.839.13-21.939-2.147-14.3-5-21.747-4.678c-14.94.644-27.43,14.785-27.956,29.73s9.641,29.17,23.281,35.3,29.954,4.757,43.408-1.772,24.21-17.785,32.076-30.5c11.624-18.792,40.834-23.429,57.7-9.157a9.136,9.136,0,0,0,12.353-.99C761.131,682.657,760.7,676.785,758.937,675.09Z" transform="translate(-102.416 -58.862)" fill="#5d2224"/>
        <path id="Path_10921" data-name="Path 10921" d="M912.134,686.422,897.911,673.59c-50.512-46.375-83.86-76.475-83.86-113.971,0-30.591,23.54-54.274,53.945-54.274a58.025,58.025,0,0,1,44.137,20.724,58.017,58.017,0,0,1,44.137-20.724c30.407,0,53.946,23.682,53.946,54.274,0,37.5-33.347,67.6-83.858,113.971Z" transform="translate(62.992 -144.682)" fill="#cdad3f"/>
        <path id="Path_10922" data-name="Path 10922" d="M737.585,795.526a6.757,6.757,0,0,1-4.534-6.432V492.624A15.641,15.641,0,0,1,748.675,477h446.146a15.645,15.645,0,0,1,15.622,15.624V742.6a15.644,15.644,0,0,1-15.622,15.624H773.959L745.167,793.42a6.749,6.749,0,0,1-5.248,2.516,6.945,6.945,0,0,1-2.333-.41Zm11.089-315.054a12.168,12.168,0,0,0-12.152,12.152V789.094a3.359,3.359,0,0,0,5.958,2.127l29.833-36.464h422.508a12.159,12.159,0,0,0,12.15-12.152V492.624a12.159,12.159,0,0,0-12.15-12.152Z" transform="translate(3.377 -165.544)" fill="#e2c7b6"/>
        <path id="Path_10923" data-name="Path 10923" d="M666.982,848.112l-3.014-7.008C653.4,815.925,646.33,799.49,652.563,785.92a21.243,21.243,0,0,1,27.982-10.93c.188.082.375.168.561.255a23.1,23.1,0,0,1,12.529,14.836,23.1,23.1,0,0,1,19.417-.163,21.241,21.241,0,0,1,10.76,28.048c-.083.187-.17.373-.259.559-6.232,13.569-23.3,18.919-49.29,27.305Z" transform="translate(-57.58 52.455)" fill="#cdad3f"/>
        <path id="Path_10924" data-name="Path 10924" d="M693.559,810.6a17.457,17.457,0,0,0-24.923-9.763l-31.2-23.439L629.9,798.839l32.246,26.873A17.551,17.551,0,0,0,693.559,810.6Z" transform="translate(-72.539 55.543)" fill="#f69c74"/>
        <path id="Path_10925" data-name="Path 10925" d="M652.964,848.739a7.28,7.28,0,0,1-3.882-1.127l-13.4-8.47c-10.6-6.7-14.421-20.919-8.881-33.074l27.47-60.275a17.068,17.068,0,0,1,12.332-9.923,15.154,15.154,0,0,1,13.579,4.326,18.346,18.346,0,0,1,2.743,21.679L655.8,811.537l8.119,7.558a8.641,8.641,0,0,1,2.028,9.3l-5.6,14.959a8.225,8.225,0,0,1-5.036,5,7.41,7.41,0,0,1-2.342.385Z" transform="translate(-76.683 24.797)" fill="#cdad3f"/>
        <path id="Path_10926" data-name="Path 10926" d="M1037.833,1024.472h-545.1a1.787,1.787,0,0,1-1.227-.5,1.748,1.748,0,0,1,0-2.465,1.787,1.787,0,0,1,1.227-.5h545.1a1.787,1.787,0,0,1,1.227.5,1.747,1.747,0,0,1,0,2.465A1.786,1.786,0,0,1,1037.833,1024.472Z" transform="translate(-174.767 234.828)" fill="#e2c7b6"/>
        <path id="Path_11062" data-name="Path 11062" d="M-10633.212,10963.322s14.16,6.483,21.378,1.32" transform="translate(11247.229 -10271.615)" fill="none" stroke="#551f11" stroke-linecap="round" stroke-width="1"/>
        <path id="Path_11063" data-name="Path 11063" d="M-10611.833,10963.322s-14.16,6.483-21.378,1.32" transform="translate(11281.076 -10271.615)" fill="none" stroke="#551f11" stroke-linecap="round" stroke-width="1"/>
        <ellipse id="Ellipse_1360" data-name="Ellipse 1360" cx="64.069" cy="64.069" rx="64.069" ry="64.069" transform="translate(1059.54 1010.112)" fill="#f8eee7"/>
        <path id="Path_11064" data-name="Path 11064" d="M365.608,519.474a64.074,64.074,0,0,0,106.758,67.809,64.075,64.075,0,1,1-106.758-67.809Z" transform="translate(710.695 511.913)" opacity="0.2" style="isolation: isolate"/>
        <path id="Path_11065" data-name="Path 11065" d="M249.322,325.819h.175l3.169,181.646h-6.689Z" transform="translate(874.463 748.363)" fill="#cea191"/>
        <ellipse id="Ellipse_1361" data-name="Ellipse 1361" cx="129.175" cy="129.175" rx="129.175" ry="129.175" transform="translate(864.803 760.42)" fill="#e8cfbe"/>
        <path id="Path_11066" data-name="Path 11066" d="M246.669,360.416A129.185,129.185,0,0,0,461.913,497.131,129.186,129.186,0,1,1,246.669,360.416Z" transform="translate(651.93 442.901)" fill="#dbc4b4" style="isolation: isolate"/>
        <path id="Path_11067" data-name="Path 11067" d="M160.069,197.087h.356l6.388,366.233H153.327Z" transform="translate(834.263 692.507)" fill="#cea191"/>
      </g>
      <rect id="Rectangle_1992" data-name="Rectangle 1992" width="1500" height="1500" fill="#fff" opacity="0"/>
    </g>
  </g>
</svg>
