<svg xmlns="http://www.w3.org/2000/svg" xmlns:xlink="http://www.w3.org/1999/xlink" width="1500" height="1500" viewBox="0 0 1500 1500">
  <defs>
    <clipPath id="clip-path">
      <rect id="Rectangle_2352" data-name="Rectangle 2352" width="1320" height="611" transform="translate(90 444)" fill="#fff"/>
    </clipPath>
    <clipPath id="clip-undraw_online_test_gba7">
      <rect width="1500" height="1500"/>
    </clipPath>
  </defs>
  <g id="undraw_online_test_gba7" clip-path="url(#clip-undraw_online_test_gba7)">
    <rect width="1500" height="1500" fill="#fff"/>
    <g id="undraw_online_test_gba7-2" data-name="undraw_online_test_gba7">
      <g id="undraw_online_test_gba7-3" data-name="undraw_online_test_gba7">
        <rect id="Rectangle_2351" data-name="Rectangle 2351" width="1500" height="1500" fill="#fff" opacity="0"/>
        <g id="Group_497" data-name="Group 497" clip-path="url(#clip-path)">
          <path id="Path_18537" data-name="Path 18537" d="M208.473,1025.68l-1.776-.67c-.391-.15-39.251-15.05-57.454-48.831s-9.291-74.465-9.2-74.871l.419-1.853,1.776.667c.391.147,39.249,15.047,57.454,48.832s9.29,74.466,9.2,74.876Zm-56.315-51.073c15.39,28.563,46.1,43.2,53.879,46.553,1.479-8.35,6.118-42.1-9.258-70.634s-46.1-43.2-53.879-46.55C141.42,912.326,136.782,946.07,152.158,974.607Z" fill="#3f3d56"/>
          <path id="Path_18538" data-name="Path 18538" d="M163.155,964.327c32.714,19.7,45.313,58.823,45.313,58.823s-40.441,7.19-73.155-12.51S90,951.819,90,951.819,130.441,944.63,163.155,964.327Z" fill="#d0cde1"/>
          <path id="Path_18539" data-name="Path 18539" d="M1210.12,451.525h-364.8V444H679.9v7.525H313.6a24.689,24.689,0,0,0-24.676,24.7V976.128A24.68,24.68,0,0,0,313.6,1000.82h896.52a24.692,24.692,0,0,0,24.67-24.692V476.22a24.674,24.674,0,0,0-24.67-24.7Z" fill="#3f3d56"/>
          <path id="Path_18540" data-name="Path 18540" d="M1201.71,495.168h-879.7V991.794h879.7Z" fill="#ffc932"/>
          <path id="Path_18541" data-name="Path 18541" d="M761.107,481.624a9.03,9.03,0,1,0-9.023-9.03A9.026,9.026,0,0,0,761.107,481.624Z" fill="#ffc932"/>
          <path id="Path_18542" data-name="Path 18542" d="M1151.21,558.373h-41.7V516.641h41.7Zm-39.89-1.814h38.08v-38.1h-38.08Z" fill="#3f3d56"/>
          <path id="Path_18543" data-name="Path 18543" d="M1259.49,982.764h-85.85v-6.191a1.26,1.26,0,0,0-.09-.47,1.488,1.488,0,0,0-.27-.4,1.186,1.186,0,0,0-.4-.266,1.231,1.231,0,0,0-.47-.093h-29.43a1.231,1.231,0,0,0-.47.093,1.186,1.186,0,0,0-.4.266,1.488,1.488,0,0,0-.27.4,1.26,1.26,0,0,0-.09.47v6.191h-18.4v-6.191a1.26,1.26,0,0,0-.09-.47,1.274,1.274,0,0,0-.66-.664,1.231,1.231,0,0,0-.47-.093h-29.44a1.231,1.231,0,0,0-.47.093,1.294,1.294,0,0,0-.4.266,1.234,1.234,0,0,0-.35.868v6.191h-18.4v-6.191a1.1,1.1,0,0,0-.1-.47,1.256,1.256,0,0,0-.26-.4,1.187,1.187,0,0,0-.4-.266,1.231,1.231,0,0,0-.47-.093h-29.43a1.231,1.231,0,0,0-.47.093,1.187,1.187,0,0,0-.4.266,1.285,1.285,0,0,0-.27.4,1.258,1.258,0,0,0-.09.47v6.191h-18.4v-6.191a1.259,1.259,0,0,0-.09-.47,1.134,1.134,0,0,0-.27-.4,1.251,1.251,0,0,0-.39-.266,1.231,1.231,0,0,0-.47-.093H992.121a1.228,1.228,0,0,0-1.227,1.227v6.191H972.5v-6.191a1.226,1.226,0,0,0-.757-1.134,1.218,1.218,0,0,0-.469-.093H941.835a1.224,1.224,0,0,0-.867.359,1.224,1.224,0,0,0-.359.868v6.191h-18.4v-6.191a1.225,1.225,0,0,0-1.227-1.227H891.55a1.223,1.223,0,0,0-.47.093,1.222,1.222,0,0,0-.663.664,1.224,1.224,0,0,0-.094.47v6.191h-18.4v-6.191a1.224,1.224,0,0,0-.359-.868,1.224,1.224,0,0,0-.867-.359H640.122a1.224,1.224,0,0,0-.867.359,1.241,1.241,0,0,0-.266.4,1.223,1.223,0,0,0-.093.47v6.191H620.5v-6.191a1.225,1.225,0,0,0-.094-.47,1.228,1.228,0,0,0-.664-.664,1.215,1.215,0,0,0-.469-.093H589.837a1.224,1.224,0,0,0-.868.359,1.224,1.224,0,0,0-.359.868v6.191h-18.4v-6.191a1.226,1.226,0,0,0-.757-1.134,1.219,1.219,0,0,0-.47-.093H539.551a1.215,1.215,0,0,0-.469.093,1.225,1.225,0,0,0-.757,1.134v6.191h-18.4v-6.191a1.223,1.223,0,0,0-.093-.47,1.227,1.227,0,0,0-.664-.664,1.218,1.218,0,0,0-.469-.093H489.266a1.224,1.224,0,0,0-.868.359,1.224,1.224,0,0,0-.359.868v6.191h-18.4v-6.191a1.224,1.224,0,0,0-.359-.868,1.224,1.224,0,0,0-.868-.359H438.98a1.215,1.215,0,0,0-.469.093,1.229,1.229,0,0,0-.758,1.134v6.191h-18.4v-6.191a1.223,1.223,0,0,0-.093-.47,1.227,1.227,0,0,0-.664-.664,1.218,1.218,0,0,0-.469-.093H388.694a1.224,1.224,0,0,0-.867.359,1.224,1.224,0,0,0-.359.868v6.191h-18.4v-6.191a1.224,1.224,0,0,0-.094-.47,1.221,1.221,0,0,0-.663-.664,1.223,1.223,0,0,0-.47-.093H338.409a1.215,1.215,0,0,0-.469.093,1.229,1.229,0,0,0-.758,1.134v6.191H280.765a29.448,29.448,0,0,0-29.436,29.456v13.32A29.451,29.451,0,0,0,280.765,1055H1259.49a29.448,29.448,0,0,0,29.44-29.46v-13.32a29.444,29.444,0,0,0-29.44-29.456Z" fill="#3f3d56"/>
          <path id="Path_18544" data-name="Path 18544" d="M1410,1024.78H130.258v3.91H1410Z" fill="#3f3d56"/>
          <path id="Path_18545" data-name="Path 18545" d="M1147.33,771.9H864.094V610.523H1147.33ZM866.9,769.09H1144.53V613.33H866.9Z" fill="#3f3d56"/>
          <path id="Path_18546" data-name="Path 18546" d="M628.531,804.171H376.142V647.008H628.531Zm-249.585-2.807h246.78V649.814H378.946Z" fill="#3f3d56"/>
          <path id="Path_18547" data-name="Path 18547" d="M494.055,743.831l-.241-3.138c-.723-6.516,1.447-13.636,7.476-20.876,5.426-6.4,8.441-11.1,8.441-16.533,0-6.154-3.859-10.257-11.456-10.378a21.421,21.421,0,0,0-12.179,3.741l-2.894-7.6c3.98-2.9,10.853-4.828,17.244-4.828,13.867,0,20.137,8.569,20.137,17.739,0,8.207-4.582,14.12-10.37,21-5.305,6.275-7.235,11.585-6.873,17.739l.12,3.138Zm-2.653,16.9a7.13,7.13,0,0,1,7.235-7.6c4.221,0,7.115,3.136,7.115,7.6a7.181,7.181,0,1,1-14.35,0Z" fill="#fff"/>
          <path id="Path_18548" data-name="Path 18548" d="M997.43,708.751l-.241-3.138c-.723-6.516,1.447-13.636,7.471-20.876,5.43-6.4,8.45-11.1,8.45-16.533,0-6.154-3.86-10.257-11.46-10.378a21.413,21.413,0,0,0-12.179,3.741l-2.894-7.6c3.98-2.9,10.853-4.827,17.243-4.827,13.87,0,20.14,8.569,20.14,17.739,0,8.207-4.58,14.12-10.37,21-5.31,6.275-7.24,11.585-6.88,17.739l.13,3.138Zm-2.653,16.9a7.13,7.13,0,0,1,7.233-7.6c4.22,0,7.12,3.136,7.12,7.6a7.238,7.238,0,0,1-.46,2.84,7.182,7.182,0,0,1-13.893-2.84Z" fill="#fff"/>
          <path id="Path_18549" data-name="Path 18549" d="M766.813,931.123a121.089,121.089,0,1,0-121-121.089A121.042,121.042,0,0,0,766.813,931.123Z" fill="#464353"/>
          <path id="Path_18550" data-name="Path 18550" d="M720.082,975.854,683.91,969.3l11.732-75.584,36.17,6.553Z" fill="#464353"/>
          <path id="Path_18551" data-name="Path 18551" d="M804.154,913.375l-36.171-6.553-11.731,64.855,36.17,6.553Z" fill="#464353"/>
          <path id="Path_18552" data-name="Path 18552" d="M816.6,981.762c1.255-6.223-11.17-13.984-27.753-17.334s-31.044-1.021-32.3,5.2,11.17,13.984,27.753,17.335S815.342,987.986,816.6,981.762Z" fill="#464353"/>
          <path id="Path_18553" data-name="Path 18553" d="M741.261,979.808c.833-6.294-12.087-13.2-28.858-15.422s-31.042,1.076-31.875,7.37,12.087,13.2,28.858,15.422S740.428,986.1,741.261,979.808Z" fill="#464353"/>
          <path id="Path_18554" data-name="Path 18554" d="M775.285,821.8a41.385,41.385,0,1,0-41.353-41.385A41.37,41.37,0,0,0,775.285,821.8Z" fill="#fff"/>
          <path id="Path_18555" data-name="Path 18555" d="M792.28,779.375A13.8,13.8,0,1,0,778.5,765.58,13.79,13.79,0,0,0,792.28,779.375Z" fill="#3f3d56"/>
          <path id="Path_18556" data-name="Path 18556" d="M671.364,678.3c-1.819-44.828,36.787-82.8,86.23-84.809s91,32.7,92.819,77.531-32.55,55.014-81.992,57.024S673.184,723.131,671.364,678.3Z" fill="#fff"/>
          <path id="Path_18557" data-name="Path 18557" d="M882.779,806.5c32.568-7.47,57.069-21.821,54.726-32.053s-30.645-12.47-63.212-5-57.069,21.821-54.726,32.053S850.212,813.971,882.779,806.5Z" fill="#464353"/>
          <path id="Path_18558" data-name="Path 18558" d="M645.27,846.028c32.567-7.471,57.068-21.822,54.725-32.054s-30.645-12.47-63.212-5-57.069,21.821-54.725,32.053S612.7,853.5,645.27,846.028Z" fill="#464353"/>
          <path id="Path_18559" data-name="Path 18559" d="M733.582,857.753a27.569,27.569,0,1,0,54.255,9.829c2.712-14.994-8.872-20.3-23.854-23.014S736.294,842.759,733.582,857.753Z" fill="#fff"/>
          <path id="Path_18560" data-name="Path 18560" d="M505.631,462.414H306.683V651.806H505.631Z" fill="#d0cde1"/>
          <path id="Path_18561" data-name="Path 18561" d="M483.023,485.039H329.29V602.69H483.023Z" fill="#fff"/>
          <path id="Path_18562" data-name="Path 18562" d="M412.758,616.57h-83.62v4.4h83.62Z" fill="#f2f2f2"/>
          <path id="Path_18563" data-name="Path 18563" d="M412.758,629.783h-83.62v4.4h83.62Z" fill="#f2f2f2"/>
          <path id="Path_18564" data-name="Path 18564" d="M356.645,561.515a17.618,17.618,0,1,0-17.6-17.618A17.612,17.612,0,0,0,356.645,561.515Z" fill="#3f3d56"/>
          <path id="Path_18565" data-name="Path 18565" d="M406.157,561.515a17.618,17.618,0,1,0-17.6-17.618A17.611,17.611,0,0,0,406.157,561.515Z" fill="#ffc932"/>
          <path id="Path_18566" data-name="Path 18566" d="M455.669,561.515A17.618,17.618,0,1,0,438.064,543.9,17.611,17.611,0,0,0,455.669,561.515Z" fill="#e6e6e6"/>
          <path id="Path_18567" data-name="Path 18567" d="M406.157,482.233a8.809,8.809,0,1,0-8.8-8.809A8.806,8.806,0,0,0,406.157,482.233Z" fill="#3f3d56"/>
          <path id="Path_18568" data-name="Path 18568" d="M600.259,829.133H401.311V1018.52H600.259Z" fill="#d0cde1"/>
          <path id="Path_18569" data-name="Path 18569" d="M577.652,851.758H423.919V969.409H577.652Z" fill="#fff"/>
          <path id="Path_18570" data-name="Path 18570" d="M511.642,871.092H457.747v53.936h53.895Z" fill="#ffc932"/>
          <path id="Path_18571" data-name="Path 18571" d="M478.379,884.58v65.494h65.444V884.58Zm62.605,62.653H481.218V887.421h59.766Z" fill="#3f3d56"/>
          <path id="Path_18572" data-name="Path 18572" d="M507.387,981.086h-83.62v4.4h83.62Z" fill="#f2f2f2"/>
          <path id="Path_18573" data-name="Path 18573" d="M500.785,848.952a8.809,8.809,0,1,0-8.8-8.809A8.806,8.806,0,0,0,500.785,848.952Z" fill="#3f3d56"/>
          <path id="Path_18574" data-name="Path 18574" d="M1118.24,772.434H919.289V961.825H1118.24Z" fill="#d0cde1"/>
          <path id="Path_18575" data-name="Path 18575" d="M1095.63,795.059H941.9V912.71H1095.63Z" fill="#fff"/>
          <path id="Path_18576" data-name="Path 18576" d="M1035.3,887.162h-33.07v9.808h33.07Z" fill="#3f3d56"/>
          <path id="Path_18577" data-name="Path 18577" d="M1075.28,810.8H962.244V815H1075.28Z" fill="#3f3d56"/>
          <path id="Path_18578" data-name="Path 18578" d="M1075.28,824.109H962.244v4.2H1075.28Z" fill="#3f3d56"/>
          <path id="Path_18579" data-name="Path 18579" d="M1075.28,837.42H962.244v4.2H1075.28Z" fill="#3f3d56"/>
          <path id="Path_18580" data-name="Path 18580" d="M1075.28,850.73H962.244v4.2H1075.28Z" fill="#3f3d56"/>
          <path id="Path_18581" data-name="Path 18581" d="M1075.28,864.041H962.244v4.2H1075.28Z" fill="#3f3d56"/>
          <path id="Path_18582" data-name="Path 18582" d="M1025.36,924.387H941.744v4.4h83.616Z" fill="#f2f2f2"/>
          <path id="Path_18583" data-name="Path 18583" d="M1058.37,935.4H941.744v4.4H1058.37Z" fill="#f2f2f2"/>
          <path id="Path_18584" data-name="Path 18584" d="M1018.76,792.253a8.809,8.809,0,1,0-8.8-8.809A8.813,8.813,0,0,0,1018.76,792.253Z" fill="#3f3d56"/>
        </g>
      </g>
      <g id="Group_498" data-name="Group 498">
        <rect id="Rectangle_2353" data-name="Rectangle 2353" width="492" height="280" transform="translate(508 173)" fill="#f1f1f1"/>
        <rect id="Rectangle_2354" data-name="Rectangle 2354" width="210" height="254" transform="translate(531 199)" fill="#fff"/>
        <rect id="Rectangle_2355" data-name="Rectangle 2355" width="210" height="254" transform="translate(764 199)" fill="#fff"/>
      </g>
    </g>
  </g>
</svg>
