<svg width="1500" height="1500" viewBox="0 0 1500 1500" fill="none" xmlns="http://www.w3.org/2000/svg">
<g clip-path="url(#clip0_5_94)">
<path d="M1023.81 608.579H594.842C588.023 608.571 581.484 605.86 576.662 601.042C571.84 596.224 569.127 589.691 569.119 582.876V330.031C569.125 324.934 571.154 320.048 574.76 316.444C578.367 312.841 583.257 310.813 588.357 310.808H1029.99C1035.17 310.814 1040.14 312.873 1043.81 316.534C1047.47 320.196 1049.53 325.16 1049.54 330.338V582.876C1049.53 589.691 1046.82 596.224 1041.99 601.042C1037.17 605.86 1030.63 608.571 1023.81 608.579Z" fill="white"/>
<path d="M1023.81 608.579H594.842C588.023 608.571 581.484 605.86 576.662 601.042C571.84 596.224 569.127 589.691 569.119 582.876V330.031C569.125 324.934 571.154 320.048 574.76 316.444C578.367 312.841 583.257 310.813 588.357 310.808H1029.99C1035.17 310.814 1040.14 312.873 1043.81 316.534C1047.47 320.196 1049.53 325.16 1049.54 330.338V582.876C1049.53 589.691 1046.82 596.224 1041.99 601.042C1037.17 605.86 1030.63 608.571 1023.81 608.579ZM588.357 313.745C584.036 313.75 579.893 315.467 576.838 318.52C573.782 321.574 572.064 325.713 572.059 330.031V582.876C572.066 588.912 574.468 594.698 578.74 598.966C583.011 603.234 588.802 605.634 594.842 605.641H1023.81C1029.85 605.634 1035.65 603.234 1039.92 598.966C1044.19 594.698 1046.59 588.912 1046.6 582.876V330.338C1046.59 325.939 1044.84 321.721 1041.73 318.61C1038.62 315.5 1034.39 313.75 1029.99 313.745H588.357Z" fill="#3F3D56"/>
<path d="M618.361 582.876H1000.3C1006.53 582.876 1012.52 580.4 1016.93 575.993C1021.34 571.586 1023.81 565.609 1023.81 559.377V374.982C1023.81 368.75 1021.34 362.773 1016.93 358.366C1012.52 353.959 1006.53 351.483 1000.3 351.483H618.361C612.123 351.483 606.141 353.959 601.731 358.366C597.32 362.773 594.842 368.75 594.842 374.982V559.377C594.842 565.609 597.32 571.586 601.731 575.993C606.141 580.4 612.123 582.876 618.361 582.876Z" fill="#F2F2F2"/>
<path d="M1050.18 328.645H568.055V316.307C568.1 309.825 570.716 303.626 575.329 299.069C579.943 294.512 586.177 291.97 592.664 292H1025.57C1032.06 291.97 1038.29 294.512 1042.91 299.069C1047.52 303.626 1050.14 309.825 1050.18 316.307V328.645Z" fill="#5E6EE4"/>
<path d="M614.486 316.65C617.963 316.65 620.782 313.834 620.782 310.359C620.782 306.885 617.963 304.068 614.486 304.068C611.008 304.068 608.19 306.885 608.19 310.359C608.19 313.834 611.008 316.65 614.486 316.65Z" fill="white"/>
<path d="M638.385 316.65C641.862 316.65 644.681 313.834 644.681 310.359C644.681 306.885 641.862 304.068 638.385 304.068C634.907 304.068 632.088 306.885 632.088 310.359C632.088 313.834 634.907 316.65 638.385 316.65Z" fill="white"/>
<path d="M662.283 316.65C665.761 316.65 668.579 313.834 668.579 310.359C668.579 306.885 665.761 304.068 662.283 304.068C658.806 304.068 655.987 306.885 655.987 310.359C655.987 313.834 658.806 316.65 662.283 316.65Z" fill="white"/>
<path d="M686.343 515.647C676.749 515.647 667.371 512.805 659.394 507.479C651.418 502.153 645.2 494.584 641.529 485.727C637.858 476.871 636.897 467.126 638.769 457.724C640.64 448.322 645.26 439.686 652.044 432.908C658.828 426.129 667.471 421.513 676.88 419.643C686.289 417.773 696.042 418.733 704.906 422.401C713.769 426.07 721.345 432.282 726.675 440.252C732.005 448.223 734.85 457.594 734.85 467.18C734.835 480.03 729.72 492.349 720.626 501.435C711.533 510.522 699.203 515.633 686.343 515.647Z" fill="#5E6EE4"/>
<path d="M969.06 506.835H781.329C778.297 506.875 775.361 505.77 773.109 503.741C770.857 501.711 769.454 498.908 769.182 495.89C769.073 494.283 769.296 492.671 769.836 491.154C770.377 489.637 771.223 488.247 772.323 487.07C773.423 485.893 774.753 484.954 776.231 484.312C777.708 483.669 779.302 483.337 780.914 483.335H968.595C971.642 483.291 974.593 484.399 976.856 486.438C979.119 488.478 980.527 491.297 980.796 494.33C980.897 495.933 980.669 497.54 980.125 499.051C979.582 500.562 978.734 501.947 977.634 503.118C976.535 504.29 975.207 505.224 973.732 505.863C972.258 506.502 970.668 506.833 969.06 506.835Z" fill="#3F3D56"/>
<path d="M870.578 456.899H781.329C778.297 456.939 775.361 455.834 773.109 453.805C770.857 451.775 769.454 448.972 769.182 445.954C769.073 444.347 769.296 442.735 769.836 441.218C770.377 439.701 771.223 438.311 772.323 437.134C773.423 435.957 774.753 435.018 776.231 434.376C777.708 433.733 779.302 433.401 780.914 433.399H870.112C873.159 433.354 876.11 434.463 878.373 436.502C880.636 438.542 882.044 441.361 882.313 444.394C882.414 445.997 882.186 447.604 881.643 449.115C881.099 450.626 880.251 452.011 879.152 453.182C878.052 454.354 876.724 455.288 875.25 455.927C873.775 456.566 872.185 456.897 870.578 456.899Z" fill="#3F3D56"/>
<path d="M1244.26 956.45C1244.98 954.415 1245.25 952.247 1245.04 950.097C1244.84 947.948 1244.16 945.87 1243.06 944.01C1241.97 942.15 1240.47 940.553 1238.69 939.332C1236.91 938.111 1234.88 937.294 1232.75 936.941L1223.89 885.209L1203.96 903.85L1215.43 950.118C1215.08 953.735 1216.06 957.358 1218.2 960.3C1220.34 963.241 1223.48 965.297 1227.03 966.077C1230.59 966.858 1234.3 966.309 1237.48 964.534C1240.65 962.76 1243.07 959.883 1244.26 956.45V956.45Z" fill="#FFB8B8"/>
<path d="M1231.02 931.699L1211.46 936.829C1210.53 937.069 1209.54 936.936 1208.71 936.46C1207.87 935.983 1207.26 935.2 1206.99 934.276L1171.84 809.831L1161.22 778.085C1160.2 775.026 1159.96 771.758 1160.54 768.585C1161.12 765.412 1162.5 762.437 1164.54 759.938C1166.58 757.438 1169.22 755.495 1172.21 754.289C1175.21 753.082 1178.46 752.653 1181.66 753.039C1185.37 753.485 1188.87 755.006 1191.72 757.415C1194.57 759.824 1196.66 763.016 1197.72 766.596L1225.81 861.465L1233.74 927.712C1233.82 928.449 1233.68 929.194 1233.34 929.851C1233 930.508 1232.46 931.046 1231.8 931.394C1231.56 931.526 1231.29 931.628 1231.02 931.699Z" fill="#5E6EE4"/>
<path d="M1159.53 732.047C1179.47 732.047 1195.63 715.897 1195.63 695.974C1195.63 676.051 1179.47 659.901 1159.53 659.901C1139.59 659.901 1123.43 676.051 1123.43 695.974C1123.43 715.897 1139.59 732.047 1159.53 732.047Z" fill="#FFB8B8"/>
<path d="M1053.23 1189.46L1035.96 1184.32L1047.57 1115.31L1073.06 1122.89L1053.23 1189.46Z" fill="#FFB8B8"/>
<path d="M1052.66 1207.5L996.965 1190.94L997.175 1190.24C998.021 1187.39 999.421 1184.74 1001.29 1182.44C1003.16 1180.13 1005.47 1178.22 1008.08 1176.81C1010.7 1175.4 1013.56 1174.51 1016.51 1174.2C1019.47 1173.9 1022.45 1174.17 1025.3 1175.02L1025.3 1175.02L1059.32 1185.13L1052.66 1207.5Z" fill="#2F2E41"/>
<path d="M1242.47 1188.57H1224.44L1215.87 1119.12L1233.65 1119.12L1242.47 1188.57Z" fill="#FFB8B8"/>
<path d="M1247.06 1206.03L1188.96 1206.03V1205.29C1188.96 1202.33 1189.54 1199.39 1190.68 1196.64C1191.81 1193.9 1193.48 1191.41 1195.58 1189.31C1197.68 1187.21 1200.17 1185.55 1202.92 1184.41C1205.66 1183.28 1208.6 1182.69 1211.57 1182.69H1211.57L1247.06 1182.7L1247.06 1206.03Z" fill="#2F2E41"/>
<path d="M1059.88 1169.04H1041.78C1040.82 1169.04 1039.86 1168.83 1038.98 1168.42C1038.1 1168 1037.32 1167.41 1036.7 1166.66C1036.08 1165.92 1035.63 1165.04 1035.39 1164.11C1035.14 1163.17 1035.1 1162.19 1035.28 1161.24C1023.74 1156.11 1085.87 858.409 1100.55 864.18L1101.03 863.484L1174.95 869.511C1208.05 935.72 1229.01 1045.28 1248.62 1159.65C1248.86 1160.6 1248.89 1161.59 1248.7 1162.55C1248.51 1163.51 1248.11 1164.42 1247.53 1165.2C1246.94 1165.99 1246.19 1166.64 1245.33 1167.1C1244.47 1167.56 1243.51 1167.83 1242.53 1167.87L1222.2 1168.86C1220.83 1168.93 1219.46 1168.57 1218.3 1167.83C1217.14 1167.08 1216.25 1165.99 1215.74 1164.71L1137.85 970.155C1137.7 969.73 1137.41 969.366 1137.03 969.116C1136.65 968.867 1136.21 968.746 1135.75 968.771C1135.3 968.775 1134.86 968.92 1134.5 969.185C1134.14 969.45 1133.86 969.823 1133.72 970.25L1066.13 1164.6C1065.67 1165.9 1064.83 1167.02 1063.71 1167.82C1062.59 1168.61 1061.25 1169.04 1059.88 1169.04Z" fill="#FF76B8"/>
<path d="M1176.49 875.337L1175.93 875.295L1097.23 869.36L1111.03 781.634C1112.55 771.842 1117.19 762.802 1124.27 755.863C1131.35 748.924 1140.48 744.458 1150.31 743.132C1150.92 743.047 1151.53 742.965 1152.14 742.884C1159.86 741.869 1167.71 742.854 1174.94 745.745C1182.17 748.636 1188.53 753.336 1193.42 759.393C1198.43 765.484 1201.78 772.759 1203.16 780.519C1204.54 788.279 1203.89 796.262 1201.29 803.702L1176.49 875.337Z" fill="#5E6EE4"/>
<path d="M1229.64 737.237C1204.81 748.584 1171.13 746.554 1132.62 737.237C1137.95 722.654 1142.1 708.567 1137.39 698.227C1135.49 694.323 1134.42 690.069 1134.24 685.731C1134.06 681.393 1134.78 677.065 1136.36 673.019C1140.05 664.197 1146.27 656.663 1154.24 651.364C1162.2 646.065 1171.56 643.238 1181.13 643.239C1193.99 643.239 1206.33 648.346 1215.43 657.435C1224.52 666.525 1229.64 678.853 1229.64 691.707V737.237Z" fill="#2F2E41"/>
<path d="M1145.85 646.537H1176.72V684.466H1112.04V680.318C1112.04 671.358 1115.61 662.766 1121.95 656.431C1128.29 650.096 1136.89 646.537 1145.85 646.537Z" fill="#2F2E41"/>
<path d="M1095.53 964.609C1097.12 963.15 1098.37 961.36 1099.2 959.364C1100.02 957.369 1100.4 955.217 1100.31 953.06C1100.21 950.903 1099.64 948.793 1098.64 946.88C1097.64 944.967 1096.23 943.296 1094.51 941.985L1110.94 892.136L1084.6 899.273L1073.03 945.517C1071.02 948.546 1070.19 952.207 1070.7 955.806C1071.21 959.406 1073.02 962.694 1075.79 965.047C1078.57 967.4 1082.11 968.656 1085.74 968.575C1089.38 968.494 1092.86 967.083 1095.53 964.609Z" fill="#FFB8B8"/>
<path d="M1095.44 936.545L1075.76 931.917C1074.82 931.693 1074.01 931.113 1073.5 930.301C1072.98 929.49 1072.81 928.509 1073 927.569L1100.32 801.175L1105.82 768.158C1106.36 764.976 1107.68 761.98 1109.68 759.449C1111.68 756.918 1114.29 754.934 1117.27 753.681C1120.24 752.428 1123.49 751.948 1126.7 752.284C1129.91 752.62 1132.98 753.763 1135.63 755.605C1138.7 757.735 1141.07 760.717 1142.46 764.181C1143.86 767.646 1144.2 771.441 1143.46 775.1L1123.78 872.059L1099.71 934.295C1099.44 934.986 1098.97 935.58 1098.36 935.999C1097.74 936.417 1097.02 936.642 1096.28 936.643C1096 936.643 1095.72 936.61 1095.44 936.545Z" fill="#5E6EE4"/>
<path d="M1370.53 1208H810.501C810.111 1208 809.737 1207.85 809.461 1207.57C809.186 1207.29 809.031 1206.92 809.031 1206.53C809.031 1206.14 809.186 1205.77 809.461 1205.49C809.737 1205.22 810.111 1205.06 810.501 1205.06H1370.53C1370.92 1205.06 1371.29 1205.22 1371.57 1205.49C1371.85 1205.77 1372 1206.14 1372 1206.53C1372 1206.92 1371.85 1207.29 1371.57 1207.57C1371.29 1207.85 1370.92 1208 1370.53 1208Z" fill="#CCCCCC"/>
<path d="M325.486 857.374C324.698 857.576 323.927 857.839 323.181 858.162L261.924 818.677L262.769 801.002L236.24 796.241L231.701 827.386C231.334 829.902 231.794 832.469 233.012 834.702C234.229 836.934 236.139 838.712 238.454 839.768L313.898 874.18C314.274 877.289 315.587 880.209 317.664 882.553C319.741 884.897 322.483 886.554 325.525 887.303C328.568 888.052 331.766 887.858 334.695 886.746C337.624 885.635 340.145 883.658 341.923 881.08C343.701 878.502 344.65 875.444 344.646 872.313C344.642 869.182 343.684 866.127 341.9 863.553C340.115 860.98 337.589 859.01 334.657 857.906C331.725 856.803 328.526 856.617 325.486 857.374H325.486Z" fill="#FFB8B8"/>
<path d="M259.425 817.589L226.573 811.529C225.638 811.357 224.752 810.985 223.974 810.439C223.196 809.893 222.544 809.187 222.064 808.367C221.584 807.547 221.287 806.634 221.192 805.689C221.097 804.744 221.208 803.789 221.515 802.891L232.296 771.403C233.205 766.629 235.973 762.41 239.991 759.671C244.009 756.933 248.95 755.898 253.73 756.794C258.51 757.691 262.74 760.445 265.491 764.452C268.242 768.46 269.29 773.394 268.405 778.173L267.236 811.324C267.202 812.274 266.964 813.204 266.538 814.053C266.112 814.902 265.507 815.649 264.766 816.244C264.025 816.838 263.164 817.266 262.242 817.498C261.32 817.73 260.36 817.761 259.425 817.589V817.589Z" fill="#3F3D56"/>
<path d="M899.18 726.29H339.151C334.327 726.285 329.585 727.535 325.392 729.918C324.388 730.487 323.421 731.12 322.497 731.812C318.998 734.404 316.156 737.779 314.198 741.666C312.241 745.553 311.222 749.844 311.223 754.196V1045C311.229 1052.4 314.174 1059.49 319.41 1064.73C324.646 1069.96 331.746 1072.9 339.151 1072.91H899.18C906.585 1072.9 913.685 1069.96 918.921 1064.73C924.157 1059.49 927.102 1052.4 927.108 1045V754.196C927.102 746.797 924.157 739.703 918.921 734.471C913.685 729.239 906.585 726.297 899.18 726.29Z" fill="white"/>
<path d="M899.18 726.29H339.151C334.327 726.285 329.585 727.535 325.392 729.918C324.388 730.487 323.421 731.12 322.497 731.812C318.998 734.404 316.156 737.779 314.198 741.666C312.241 745.553 311.222 749.844 311.223 754.196V1045C311.229 1052.4 314.174 1059.49 319.41 1064.73C324.646 1069.96 331.746 1072.9 339.151 1072.91H899.18C906.585 1072.9 913.685 1069.96 918.921 1064.73C924.157 1059.49 927.102 1052.4 927.108 1045V754.196C927.102 746.797 924.157 739.703 918.921 734.471C913.685 729.239 906.585 726.297 899.18 726.29ZM924.169 1045C924.159 1051.62 921.523 1057.97 916.839 1062.65C912.155 1067.33 905.805 1069.96 899.18 1069.97H339.151C332.526 1069.96 326.176 1067.33 321.492 1062.65C316.808 1057.97 314.172 1051.62 314.163 1045V754.196C314.184 748.919 315.868 743.783 318.976 739.517C322.084 735.251 326.459 732.072 331.478 730.432C331.684 730.373 331.875 730.3 332.081 730.241C334.377 729.566 336.758 729.225 339.151 729.227H899.18C905.805 729.237 912.155 731.871 916.839 736.551C921.523 741.231 924.159 747.577 924.169 754.196V1045Z" fill="#3F3D56"/>
<path d="M618.553 899.475C616.323 899.474 614.129 898.909 612.176 897.832L319.603 736.93C319.262 736.742 319.009 736.427 318.9 736.052C318.792 735.678 318.836 735.276 319.024 734.935C319.212 734.594 319.528 734.341 319.903 734.233C320.277 734.124 320.679 734.169 321.021 734.357L613.593 895.259C615.085 896.082 616.759 896.521 618.463 896.536C620.168 896.551 621.849 896.142 623.355 895.345L920.744 738.59C920.914 738.499 921.101 738.443 921.294 738.425C921.486 738.407 921.68 738.427 921.865 738.484C922.049 738.54 922.221 738.633 922.37 738.756C922.519 738.88 922.642 739.031 922.732 739.202C922.822 739.372 922.878 739.559 922.895 739.752C922.913 739.944 922.893 740.138 922.836 740.322C922.778 740.507 922.685 740.678 922.562 740.826C922.438 740.975 922.286 741.097 922.115 741.187L624.727 897.943C622.825 898.948 620.705 899.474 618.553 899.475Z" fill="#3F3D56"/>
<path d="M404.659 999.471H363.502C360.383 999.471 357.392 998.233 355.187 996.03C352.982 993.826 351.743 990.838 351.743 987.721C351.743 984.605 352.982 981.617 355.187 979.413C357.392 977.21 360.383 975.972 363.502 975.972H404.659C407.778 975.972 410.769 977.21 412.974 979.413C415.179 981.617 416.418 984.605 416.418 987.721C416.418 990.838 415.179 993.826 412.974 996.03C410.769 998.233 407.778 999.471 404.659 999.471Z" fill="#3F3D56"/>
<path d="M453.166 1039.13H363.502C360.383 1039.13 357.392 1037.89 355.187 1035.69C352.982 1033.48 351.743 1030.49 351.743 1027.38C351.743 1024.26 352.982 1021.27 355.187 1019.07C357.392 1016.86 360.383 1015.63 363.502 1015.63H453.166C456.284 1015.63 459.275 1016.86 461.481 1019.07C463.686 1021.27 464.925 1024.26 464.925 1027.38C464.925 1030.49 463.686 1033.48 461.481 1035.69C459.275 1037.89 456.284 1039.13 453.166 1039.13Z" fill="#3F3D56"/>
<path d="M618.436 946.598C644.414 946.598 665.473 925.555 665.473 899.599C665.473 873.642 644.414 852.6 618.436 852.6C592.458 852.6 571.399 873.642 571.399 899.599C571.399 925.555 592.458 946.598 618.436 946.598Z" fill="#5E6EE4"/>
<path d="M405.217 753.939L612.507 840.355C613.221 840.653 614.024 840.658 614.742 840.367L828.452 753.951C829.085 753.696 829.608 753.228 829.934 752.629C830.259 752.03 830.365 751.336 830.235 750.667C830.105 749.998 829.746 749.395 829.219 748.962C828.693 748.528 828.032 748.291 827.35 748.291H406.349C405.669 748.291 405.011 748.526 404.485 748.957C403.96 749.387 403.6 749.986 403.466 750.652C403.333 751.317 403.434 752.009 403.753 752.608C404.073 753.208 404.59 753.678 405.217 753.939Z" fill="#F2F2F2"/>
<path d="M373.661 732.183C373.48 732.976 373.363 733.781 373.309 734.592L310.166 770.99L294.818 762.162L278.457 783.564L304.107 801.831C306.179 803.307 308.674 804.071 311.218 804.01C313.762 803.948 316.217 803.063 318.215 801.488L383.326 750.162C386.265 751.249 389.465 751.416 392.501 750.642C395.536 749.867 398.264 748.187 400.321 745.826C402.378 743.464 403.667 740.533 404.016 737.421C404.365 734.31 403.758 731.166 402.275 728.408C400.793 725.65 398.505 723.408 395.716 721.981C392.927 720.554 389.769 720.009 386.663 720.419C383.557 720.829 380.649 722.174 378.326 724.276C376.003 726.377 374.376 729.135 373.661 732.183Z" fill="#FFB8B8"/>
<path d="M308.055 772.714L287.648 799.142C287.067 799.894 286.331 800.512 285.49 800.954C284.648 801.396 283.722 801.652 282.772 801.704C281.823 801.756 280.874 801.603 279.99 801.255C279.105 800.907 278.306 800.373 277.647 799.689L254.544 775.718C250.711 772.728 248.221 768.341 247.62 763.519C247.019 758.697 248.356 753.834 251.338 749.995C254.32 746.157 258.704 743.657 263.528 743.043C268.352 742.429 273.222 743.751 277.072 746.719L306.048 762.909C306.878 763.373 307.597 764.01 308.158 764.776C308.719 765.543 309.108 766.422 309.299 767.352C309.489 768.283 309.477 769.243 309.262 770.168C309.048 771.094 308.636 771.962 308.055 772.714H308.055Z" fill="#5E6EE4"/>
<path d="M224.484 709.612C244.423 709.612 260.586 693.461 260.586 673.539C260.586 653.616 244.423 637.465 224.484 637.465C204.546 637.465 188.382 653.616 188.382 673.539C188.382 693.461 204.546 709.612 224.484 709.612Z" fill="#FFB8B8"/>
<path d="M258.563 1190.04H276.584L285.156 1120.59L258.56 1120.59L258.563 1190.04Z" fill="#FFB8B8"/>
<path d="M253.966 1184.17L289.455 1184.16H289.457C292.427 1184.16 295.368 1184.75 298.112 1185.88C300.856 1187.02 303.349 1188.68 305.449 1190.78C307.549 1192.88 309.215 1195.37 310.352 1198.11C311.488 1200.86 312.073 1203.79 312.073 1206.76V1207.5L253.967 1207.5L253.966 1184.17Z" fill="#2F2E41"/>
<path d="M196.827 1190.04H214.848L223.421 1120.59L196.824 1120.59L196.827 1190.04Z" fill="#FFB8B8"/>
<path d="M192.231 1184.17L227.72 1184.16H227.721C230.691 1184.16 233.632 1184.75 236.376 1185.88C239.12 1187.02 241.613 1188.68 243.713 1190.78C245.813 1192.88 247.479 1195.37 248.616 1198.11C249.753 1200.86 250.338 1203.79 250.338 1206.76V1207.5L192.232 1207.5L192.231 1184.17Z" fill="#2F2E41"/>
<path d="M253.156 1163.68L234.774 1021.58C234.765 1021.39 234.682 1021.21 234.542 1021.09C234.403 1020.96 234.22 1020.89 234.03 1020.89C233.936 1020.89 233.842 1020.91 233.753 1020.94C233.665 1020.98 233.585 1021.03 233.517 1021.09C233.449 1021.16 233.396 1021.24 233.359 1021.33C233.323 1021.41 233.305 1021.51 233.307 1021.6L228.024 1161.64C227.965 1163.35 227.242 1164.97 226.008 1166.16C224.775 1167.35 223.127 1168.01 221.414 1168H199.587C197.857 1168.01 196.193 1167.34 194.956 1166.14C193.718 1164.93 193.006 1163.28 192.974 1161.55L187.308 928.227L284.991 929.202L287.43 1163.28C287.408 1164.21 287.19 1165.13 286.79 1165.97C286.391 1166.81 285.818 1167.55 285.11 1168.16C284.417 1168.75 283.606 1169.2 282.73 1169.46C281.854 1169.72 280.932 1169.8 280.025 1169.68L258.858 1169.74C257.357 1169.54 255.972 1168.82 254.935 1167.72C253.897 1166.62 253.269 1165.19 253.156 1163.68Z" fill="#FF76B8"/>
<path d="M185.861 934.608C184.768 934.19 183.806 933.49 183.073 932.579C182.339 931.668 181.861 930.579 181.687 929.423L180.712 801.19C176.395 772.639 171.288 744.662 196.271 730.195L198.473 723.596C198.713 722.883 199.165 722.26 199.77 721.812C200.374 721.363 201.101 721.11 201.854 721.086L249.247 719.734C249.985 719.708 250.712 719.907 251.334 720.304C251.956 720.701 252.443 721.277 252.73 721.957L256.255 730.177L257.506 730.89C269.413 737.671 279.054 747.81 285.224 760.039C291.394 772.267 293.818 786.042 292.194 799.64L289.484 822.499L287.559 929.331C287.534 930.504 287.2 931.649 286.59 932.651C285.98 933.654 285.117 934.478 284.087 935.04C270.319 942.573 255.066 945.149 240.633 945.149C216.382 945.149 194.458 937.871 185.861 934.608Z" fill="#5E6EE4"/>
<path d="M223.309 710.949C217.875 711.066 212.479 710.033 207.473 707.918C202.468 705.802 197.967 702.653 194.266 698.675C190.566 694.698 187.75 689.984 186.003 684.841C184.256 679.699 183.617 674.246 184.13 668.839C184.643 663.433 186.294 658.197 188.977 653.474C191.659 648.751 195.312 644.649 199.694 641.437C204.076 638.224 209.089 635.975 214.403 634.837C219.717 633.699 225.212 633.697 230.526 634.832C238.466 630.015 247.696 626.774 256.947 627.598C266.199 628.423 275.348 633.911 278.808 642.523C282.267 651.136 278.551 662.489 269.948 665.99C264.434 668.234 258.206 667.145 252.321 666.241C246.435 665.336 240.015 664.745 234.893 667.779C229.771 670.814 227.469 678.95 232.056 682.743C234.487 684.834 236.224 687.615 237.034 690.717C237.844 693.818 237.689 697.093 236.589 700.104C234.284 706.061 227.991 710.847 223.309 710.949Z" fill="#2F2E41"/>
<path d="M357.773 1208H128.47C128.08 1208 127.706 1207.85 127.431 1207.57C127.155 1207.29 127 1206.92 127 1206.53C127 1206.14 127.155 1205.77 127.431 1205.49C127.706 1205.22 128.08 1205.06 128.47 1205.06H357.773C358.163 1205.06 358.537 1205.22 358.813 1205.49C359.088 1205.77 359.243 1206.14 359.243 1206.53C359.243 1206.92 359.088 1207.29 358.813 1207.57C358.537 1207.85 358.163 1208 357.773 1208Z" fill="#CCCCCC"/>
<circle cx="249.5" cy="683.5" r="4.5" fill="black"/>
<g clip-path="url(#clip1_5_94)">
<path d="M512.179 493.994H511.601C505.31 493.987 499.279 491.486 494.831 487.039C490.383 482.593 487.88 476.564 487.873 470.276V462.177H417.27V461.02H489.031V470.276C489.038 476.157 491.339 481.804 495.446 486.016C499.552 490.228 505.14 492.672 511.022 492.83V461.02H527.805C530.106 461.018 532.313 460.103 533.94 458.476C535.567 456.849 536.483 454.644 536.485 452.343V363.834C536.483 361.534 535.567 359.328 533.94 357.701C532.313 356.075 530.106 355.16 527.805 355.157H306.735C304.434 355.16 302.227 356.075 300.6 357.701C298.972 359.328 298.057 361.534 298.054 363.834V428.047H296.897V363.834C296.9 361.227 297.937 358.727 299.782 356.884C301.626 355.04 304.127 354.003 306.735 354H527.805C530.413 354.003 532.914 355.04 534.758 356.884C536.603 358.727 537.64 361.227 537.643 363.834V452.343C537.64 454.95 536.603 457.45 534.758 459.294C532.914 461.137 530.413 462.174 527.805 462.177H512.179V493.994Z" fill="#FF76B8"/>
<path d="M491.334 383.22C491.261 381.353 490.469 379.587 489.122 378.292C487.776 376.997 485.98 376.273 484.112 376.272H350.428C348.509 376.272 346.669 377.034 345.313 378.39C343.956 379.746 343.194 381.585 343.194 383.503C343.194 385.421 343.956 387.26 345.313 388.616C346.669 389.972 348.509 390.734 350.428 390.734H484.112C486.029 390.732 487.868 389.969 489.224 388.613C490.58 387.258 491.343 385.42 491.346 383.503C491.347 383.408 491.344 383.314 491.334 383.22Z" fill="#CCCCCC"/>
<path d="M491.334 407.516C491.261 405.65 490.469 403.884 489.122 402.589C487.776 401.293 485.98 400.569 484.112 400.568H350.428C348.509 400.568 346.669 401.33 345.313 402.686C343.956 404.042 343.194 405.882 343.194 407.799C343.194 409.717 343.956 411.557 345.313 412.913C346.669 414.269 348.509 415.031 350.428 415.031H484.112C486.029 415.028 487.868 414.265 489.224 412.91C490.58 411.554 491.343 409.716 491.346 407.799C491.347 407.705 491.344 407.61 491.334 407.516Z" fill="#CCCCCC"/>
<path d="M491.334 431.812C491.261 429.946 490.469 428.18 489.122 426.885C487.776 425.59 485.98 424.866 484.112 424.865H350.428C349.368 424.865 348.32 425.098 347.36 425.548C346.4 425.998 345.551 426.653 344.872 427.468C344.575 427.828 344.311 428.216 344.085 428.625H408.01C410.312 428.628 412.518 429.543 414.146 431.17C415.773 432.796 416.688 435.002 416.691 437.302V439.327H484.112C486.029 439.324 487.868 438.562 489.224 437.206C490.58 435.851 491.343 434.013 491.346 432.096C491.348 432.001 491.344 431.907 491.334 431.812Z" fill="#CCCCCC"/>
<path d="M407.432 428.625H186.362C183.754 428.629 181.254 429.666 179.409 431.509C177.565 433.353 176.527 435.852 176.524 438.459V526.968C176.527 529.575 177.565 532.074 179.409 533.918C181.254 535.761 183.754 536.799 186.362 536.802H201.987V568.619H202.566C208.857 568.613 214.888 566.112 219.336 561.665C223.785 557.218 226.287 551.19 226.293 544.901V536.802H407.432C410.04 536.799 412.54 535.761 414.384 533.918C416.228 532.074 417.266 529.575 417.27 526.968V438.459C417.266 435.852 416.228 433.353 414.384 431.509C412.54 429.666 410.04 428.629 407.432 428.625ZM416.112 526.968C416.11 529.269 415.194 531.474 413.567 533.101C411.939 534.727 409.733 535.643 407.432 535.645H225.136V544.901C225.128 550.782 222.826 556.429 218.72 560.64C214.614 564.852 209.026 567.297 203.145 567.456V535.645H186.362C184.061 535.643 181.854 534.727 180.227 533.101C178.6 531.474 177.684 529.269 177.681 526.968V438.459C177.684 436.159 178.6 433.953 180.227 432.327C181.854 430.7 184.061 429.785 186.362 429.782H407.432C409.733 429.785 411.939 430.7 413.567 432.327C415.194 433.953 416.11 436.159 416.112 438.459V526.968Z" fill="#3F3D56"/>
<path d="M363.739 450.897H230.055C228.186 450.898 226.391 451.622 225.044 452.917C223.698 454.212 222.905 455.978 222.833 457.845C222.823 457.939 222.819 458.033 222.821 458.128C222.824 460.045 223.587 461.883 224.943 463.238C226.299 464.594 228.137 465.356 230.055 465.359H363.739C365.657 465.359 367.497 464.597 368.854 463.241C370.21 461.885 370.972 460.046 370.972 458.128C370.972 456.21 370.21 454.371 368.854 453.015C367.497 451.659 365.657 450.897 363.739 450.897Z" fill="#6C63FF"/>
<path d="M363.739 475.193H230.055C228.186 475.194 226.391 475.918 225.044 477.214C223.698 478.509 222.905 480.275 222.833 482.141C222.823 482.235 222.819 482.33 222.821 482.424C222.824 484.341 223.587 486.179 224.943 487.535C226.299 488.89 228.137 489.653 230.055 489.656H363.739C365.657 489.656 367.497 488.894 368.854 487.538C370.21 486.182 370.972 484.342 370.972 482.424C370.972 480.507 370.21 478.667 368.854 477.311C367.497 475.955 365.657 475.193 363.739 475.193Z" fill="#6C63FF"/>
<path d="M363.739 499.49H230.055C228.186 499.491 226.391 500.215 225.044 501.51C223.698 502.805 222.905 504.571 222.833 506.437C222.823 506.532 222.819 506.626 222.821 506.721C222.824 508.638 223.587 510.476 224.943 511.831C226.299 513.187 228.137 513.949 230.055 513.952H363.739C365.657 513.952 367.497 513.19 368.854 511.834C370.21 510.478 370.972 508.639 370.972 506.721C370.972 504.803 370.21 502.964 368.854 501.608C367.497 500.252 365.657 499.49 363.739 499.49Z" fill="#6C63FF"/>
<path d="M531.856 565.727C550.713 565.727 566 550.446 566 531.596C566 512.746 550.713 497.465 531.856 497.465C512.998 497.465 497.711 512.746 497.711 531.596C497.711 550.446 512.998 565.727 531.856 565.727Z" fill="#2BD832"/>
<path d="M535.112 555.923C533.721 555.884 531.991 555.835 530.658 554.862C530.261 554.561 529.935 554.176 529.703 553.735C529.47 553.294 529.337 552.807 529.312 552.309C529.288 551.955 529.346 551.601 529.482 551.273C529.618 550.946 529.827 550.654 530.095 550.421C530.492 550.124 530.957 549.932 531.448 549.861C531.938 549.791 532.439 549.844 532.903 550.016L531.768 541.723L532.601 541.609L533.936 551.359L533.24 551.039C532.433 550.67 531.326 550.481 530.638 551.063C530.469 551.215 530.337 551.403 530.253 551.614C530.169 551.826 530.135 552.053 530.153 552.28C530.173 552.65 530.273 553.012 530.446 553.341C530.619 553.669 530.86 553.957 531.154 554.183C532.191 554.941 533.571 555.039 535.136 555.083L535.112 555.923Z" fill="#3F3D56"/>
<path d="M527.647 542.438H523.116V543.279H527.647V542.438Z" fill="#3F3D56"/>
<path d="M541.947 542.438H537.416V543.279H541.947V542.438Z" fill="#3F3D56"/>
<path d="M515.245 530.827C511.597 530.411 508.772 526.917 508.461 523.372C508.092 519.154 510.549 515.148 513.921 512.781C517.446 510.306 521.838 509.273 526.088 509.045C534.379 508.633 542.526 511.317 548.946 516.576C552.131 519.22 555.105 522.588 556.232 526.656C557.211 530.189 556.414 534.191 553.572 536.665C552.869 537.271 552.048 537.725 551.16 537.998C550.273 538.272 549.338 538.358 548.416 538.252C546.21 538.023 544.175 536.864 542.414 535.583C538.987 533.093 536.174 529.624 532 528.322C528.939 527.368 524.967 528.208 523.096 530.975C522.672 531.609 522.397 532.33 522.292 533.085C522.253 533.246 522.277 533.416 522.359 533.56C522.441 533.704 522.574 533.811 522.732 533.861C522.894 533.904 523.066 533.882 523.211 533.8C523.356 533.717 523.463 533.581 523.508 533.42C523.999 529.935 528.286 528.635 531.295 529.431C535.681 530.591 538.625 534.504 542.224 536.989C544.086 538.378 546.281 539.253 548.588 539.529C550.589 539.686 552.574 539.076 554.141 537.823C557.216 535.397 558.391 531.223 557.711 527.465C556.924 523.114 553.994 519.384 550.779 516.497C544.262 510.705 535.801 507.581 527.082 507.746C522.635 507.848 517.995 508.766 514.163 511.115C510.447 513.394 507.575 517.207 507.199 521.639C506.869 525.54 508.963 529.621 512.557 531.33C513.404 531.731 514.313 531.987 515.245 532.088C516.051 532.18 516.044 530.918 515.245 530.827L515.245 530.827Z" fill="#3F3D56"/>
</g>
</g>
<defs>
<clipPath id="clip0_5_94">
<rect width="1245" height="916" fill="white" transform="translate(127 292)"/>
</clipPath>
<clipPath id="clip1_5_94">
<rect width="545" height="398" fill="white" transform="translate(21 354)"/>
</clipPath>
</defs>
</svg>
