<svg width="1500" height="1500" viewBox="0 0 1500 1500" fill="none" xmlns="http://www.w3.org/2000/svg">
<path d="M1245.97 635.452C1112.42 449.622 830.322 374.241 552.883 455.428C406.21 498.349 264.79 584.348 194.705 750.869C69.4221 1048.54 332.47 1143.61 504.475 1173.91C587.648 1188.57 665.982 1213.18 737.564 1246.68C866.348 1306.97 1094.3 1360.39 1266.2 1109.28C1390.79 927.269 1334.92 759.233 1245.97 635.452Z" fill="#F2F2F2"/>
<path d="M471.732 672.217C471.358 669.264 470.603 666.372 469.484 663.613C469.342 663.091 469.092 662.605 468.751 662.185C468.41 661.765 467.986 661.421 467.504 661.174C466.861 661.007 466.186 660.999 465.54 661.152L455.452 662.696C454.608 662.734 453.8 663.048 453.151 663.59C451.837 664.972 453.131 667.196 453.09 669.103C453.045 671.246 451.141 672.986 449.075 673.562C446.967 673.988 444.793 673.961 442.696 673.483L428.591 671.291C432.745 669.964 436.442 667.497 439.261 664.17C441.117 661.971 442.105 657.866 439.422 656.824C438.625 656.606 437.794 656.539 436.973 656.628C430.582 656.677 425.553 651.342 419.57 649.094C415.741 647.749 411.585 647.649 407.696 648.809C403.806 649.968 400.383 652.328 397.916 655.55L405.43 655.912C406.137 655.873 406.838 656.06 407.431 656.446C409.078 657.799 407.031 660.398 407.263 662.516C407.564 665.269 411.219 665.856 413.974 666.135C416.729 666.413 420.224 668.651 418.898 671.083C405.052 675.852 390.961 661.759 376.419 663.494C372.739 663.933 369.264 665.379 365.67 666.288C343.719 671.842 321.026 657.024 298.602 660.162C293.617 661.012 288.718 662.304 283.962 664.023C280.91 665.025 277.727 666.108 275.509 668.432C273.292 670.756 272.448 674.731 274.548 677.161C268.758 677.638 262.929 677.084 257.333 675.524C258.846 676.366 260.105 677.599 260.978 679.095C261.85 680.59 262.304 682.293 262.291 684.025C253.251 685.499 244.449 688.183 236.124 692.003C237.678 694.587 239.493 697.005 241.54 699.218L230.095 706.571C233.962 707.545 235.961 712.818 233.712 716.111C237.721 714.328 240.206 709.713 244.494 708.778C247.303 708.165 250.161 709.314 252.825 710.393C255.49 711.473 258.418 712.519 261.177 711.709C263.935 710.899 265.97 707.323 264.217 705.044C276.007 701.604 288.192 699.7 300.47 699.38C301.417 699.261 302.378 699.443 303.215 699.901C304.814 701.01 304.393 703.405 304.307 705.348C304.221 707.291 305.736 709.845 307.472 708.969C305.429 710.741 307.176 714.077 309.136 715.94C311.097 717.804 313.46 720.375 312.259 722.798C311.946 723.431 311.415 723.937 311.113 724.575C310.224 726.46 311.636 728.656 313.302 729.907C314.968 731.159 317.009 732.033 318.167 733.766C319.324 735.499 318.798 738.531 316.729 738.773L310.847 731.305C308.837 733.389 307.459 736 306.873 738.835C313.111 743.934 314.049 754.313 308.827 760.448C306.158 763.583 302.363 765.489 299.051 767.934C295.738 770.38 292.674 773.862 292.682 777.979C292.696 785.092 292.115 791.7 294.78 798.295C299.696 810.455 305.37 822.295 311.771 833.743C313.452 836.749 315.624 840.044 319.029 840.561C314.726 830.085 310.852 819.446 307.408 808.644C309.651 808.653 312.244 808.831 313.559 810.648C314.648 812.153 314.414 814.2 314.752 816.026C315.182 817.796 315.9 819.483 316.877 821.021L337.426 857.625C339.13 860.66 341.084 863.917 344.339 865.146C346.421 865.932 348.829 865.784 350.745 866.915C352.247 867.801 353.258 869.375 354.789 870.21C359.118 872.572 365.138 868.043 369.183 870.862C370.34 871.669 371.076 872.949 372.142 873.872C375.878 877.108 382.007 874.943 386.32 877.357C389.1 878.913 390.541 882.024 392.023 884.843C395.737 891.905 401.747 898.824 409.706 899.386C412.206 899.563 414.76 899.089 417.204 899.645C419.648 900.201 422.054 902.334 421.661 904.809C420.989 909.053 423.086 913.701 422.522 917.96C421.497 925.72 410.49 929.13 409.545 936.9C409.338 938.601 409.662 940.357 409.257 942.022C408.76 944.063 407.228 945.724 406.683 947.753C405.651 951.597 408.405 955.423 411.431 958.009C414.456 960.595 418.065 962.825 419.72 966.446C421.468 970.272 420.609 974.734 421.178 978.903C422.419 988.003 430.279 994.75 438.369 999.1C440.833 1000.42 443.479 1001.71 445.075 1004.01C447.157 1007.01 446.949 1010.96 447.645 1014.55C449.347 1023.33 456.74 1030.57 456.95 1039.51C457.099 1045.87 453.566 1051.63 451.455 1057.63C449.476 1063.38 448.76 1069.48 449.356 1075.53C449.951 1081.58 451.844 1087.43 454.906 1092.68C456.485 1095.34 458.373 1097.85 459.49 1100.74C461.483 1105.9 460.836 1111.77 462.674 1116.98C465.104 1123.87 471.78 1129.57 471.141 1136.85C474.172 1143.15 480.864 1146.24 487.594 1148.11L499.656 1151.47C501.965 1152.11 504.379 1152.76 506.73 1152.29C509.082 1151.83 511.326 1149.88 511.266 1147.48C505.351 1146.15 499.246 1144.73 494.371 1141.12C489.495 1137.52 486.155 1131.1 488.005 1125.33C488.862 1122.65 490.687 1119.56 488.952 1117.34C487.959 1116.08 486.142 1115.75 485.022 1114.59C483.274 1112.79 483.875 1109.76 485.131 1107.59C486.388 1105.41 488.204 1103.47 488.71 1101.01C488.966 1099.63 488.795 1098.21 488.221 1096.94C487.646 1095.66 486.695 1094.59 485.495 1093.87C487.731 1093.03 489.765 1091.72 491.465 1090.04C493.035 1088.25 493.76 1085.48 492.525 1083.45C496.192 1083.91 500.522 1084.14 502.93 1081.33C504.852 1079.09 504.72 1075.74 503.961 1072.89C503.201 1070.04 501.917 1067.27 501.877 1064.32C510.337 1064.72 518.816 1064.43 527.23 1063.46C526.013 1059.36 523.248 1055.9 519.522 1053.8C523.332 1053.16 526.804 1048.6 528.008 1044.92C529.212 1041.25 528.905 1037.25 528.161 1033.46C527.875 1032.48 527.836 1031.45 528.047 1030.46C528.476 1029.09 529.819 1028.25 531.062 1027.54L549.976 1016.68C551.105 1016.11 552.128 1015.36 553.001 1014.44C554.983 1012.12 554.689 1008.6 553.674 1005.72C552.66 1002.83 551.034 1000.12 550.643 997.091C549.474 988.024 559.181 981.518 562.457 972.982C563.742 969.633 564.004 965.992 564.253 962.412C564.52 958.568 564.54 954.103 561.589 951.625C558.759 949.251 554.338 949.78 551.377 947.571C548.663 945.546 547.726 941.613 544.761 939.977C542.068 938.492 538.691 939.437 535.696 938.738C530.422 937.508 527.104 931.43 521.718 930.867C518.679 930.55 515.24 932.035 512.749 930.265C510.555 928.706 510.467 925.572 510.049 922.912C509.317 918.779 507.336 914.969 504.372 911.996C501.409 909.023 497.605 907.029 493.474 906.284C490.341 905.781 486.931 905.972 484.265 904.25C481.566 902.507 480.329 899.243 478.209 896.828C474.792 892.937 469.41 891.554 464.369 890.369L443.863 885.548C440.223 884.693 435.531 884.239 433.578 887.428C433 888.642 432.59 889.929 432.361 891.254C431.629 893.651 430.156 895.754 428.154 897.262C426.151 898.769 423.723 899.602 421.217 899.642C419.498 896.711 416.714 894.557 413.445 893.629C411.366 893.05 409.14 892.985 407.157 892.133C406.077 891.606 405.116 890.864 404.333 889.952C403.549 889.041 402.96 887.979 402.602 886.832C402.243 885.685 402.122 884.477 402.246 883.281C402.371 882.086 402.738 880.929 403.325 879.88C404.507 877.775 404.963 875.34 404.624 872.95C404.284 870.559 403.168 868.347 401.446 866.655C397.959 863.524 392.914 862.768 388.238 863.081C387.014 860.409 389.061 857.394 391.268 855.452C393.475 853.51 396.154 851.601 396.635 848.701C397.39 844.14 391.57 840.675 387.151 842.036C382.732 843.396 379.912 847.688 378.047 851.919C376.977 854.347 376.068 856.903 374.38 858.95C372.693 860.997 369.976 862.463 367.405 861.806C363.767 860.876 362.361 856.553 361.556 852.884C360.475 847.962 359.389 842.972 359.615 837.939C359.841 832.905 361.538 827.736 365.25 824.328C371.299 818.775 380.578 819.319 388.742 820.205C386.813 818.032 387.29 814.37 389.353 812.325C390.443 811.357 391.752 810.669 393.167 810.322C394.582 809.974 396.06 809.977 397.474 810.33C399.934 810.842 402.15 812.167 403.765 814.091C406.085 816.92 406.745 820.738 408.498 823.949C410.252 827.159 414.194 829.897 417.421 828.175C420.209 826.687 420.651 822.822 419.958 819.74C419.264 816.657 417.79 813.66 418.042 810.51C418.521 804.501 424.751 800.883 430.248 798.408C435.745 795.933 442.04 792.605 442.911 786.639C442.941 785.471 443.161 784.316 443.563 783.219C444.173 782.25 445.02 781.453 446.025 780.904C462.069 770.301 478.379 759.569 496.717 753.776C497.671 753.474 497.783 753.809 498.755 753.573C500.116 752.787 499.214 750.611 497.91 749.734C496.605 748.858 494.861 748.186 494.53 746.65C494.287 745.52 494.952 744.411 495.125 743.269C495.55 740.462 492.192 737.87 489.584 738.992C488.111 737.042 491.026 734.775 493.383 734.126C500.46 732.178 507.724 730.992 515.053 730.586C515.899 730.452 516.765 730.599 517.519 731.005C518.75 731.858 518.593 733.814 517.72 735.031C516.848 736.248 515.491 737.012 514.404 738.042C513.216 739.199 512.369 740.66 511.955 742.266C511.541 743.871 511.576 745.56 512.056 747.147C515.882 749.093 520.041 751.096 524.279 750.411C528.516 749.725 532.277 744.964 530.285 741.162C528.431 737.621 522.859 736.822 521.901 732.941C520.779 728.397 527.211 724.356 525.763 719.906C525.128 717.956 523.185 716.809 521.694 715.402C519.934 713.676 518.736 711.459 518.259 709.04C517.782 706.622 518.047 704.115 519.02 701.85C516.592 702.277 514.097 702.116 511.744 701.38C509.391 700.643 507.249 699.354 505.497 697.619C502.263 694.354 499.682 689.205 495.089 689.351C490.875 689.485 487.244 694.402 483.303 692.902C482.333 692.533 481.311 691.782 480.372 692.222C480.064 692.422 479.805 692.689 479.616 693.004C479.427 693.318 479.311 693.671 479.278 694.037C478.277 698.825 480 704.281 477.39 708.419C474.55 712.922 467.981 713.546 464.538 717.606C462.669 719.81 461.945 722.78 460.227 725.104C458.51 727.428 454.863 728.905 452.802 726.88C453.815 724.797 454.092 722.432 453.587 720.172C453.082 717.911 451.825 715.889 450.022 714.435C448.108 713.186 446.044 712.183 443.88 711.448C441.462 710.424 439.162 709.142 437.02 707.624C435.946 706.977 435.074 706.044 434.501 704.929C434.047 703.534 434.108 702.022 434.673 700.668C435.719 697.67 437.563 695.016 440.007 692.99C442.45 690.965 445.401 689.645 448.54 689.174C451.285 688.8 454.48 688.932 456.296 686.841C457.258 685.734 457.762 684.061 459.157 683.611C460.049 683.432 460.976 683.546 461.798 683.937L472.043 687.543C473.186 688.059 474.445 688.267 475.693 688.146C476.312 688.063 476.877 687.749 477.274 687.266C477.67 686.784 477.87 686.17 477.833 685.546C477.505 683.845 474.887 683.028 475.126 681.312C475.259 680.756 475.558 680.253 475.983 679.871C479.681 675.935 484.202 672.866 489.225 670.883C494.247 668.899 499.646 668.051 505.034 668.398C506.328 670.522 504.282 673.037 502.581 674.85C500.879 676.663 499.512 679.903 501.569 681.298C502.413 681.729 503.351 681.94 504.297 681.913C506.82 682.254 509.271 682.998 511.558 684.115C515.099 685.656 518.571 687.341 521.975 689.172C521.675 686.927 521.388 684.563 522.238 682.464C523.089 680.365 525.507 678.719 527.62 679.536C529.655 680.324 530.699 683.019 532.868 683.266C535.76 683.595 536.902 679.322 535.693 676.673C534.485 674.024 532.093 671.806 531.893 668.901C531.759 666.942 532.504 664.511 530.939 663.325C530.382 662.969 529.75 662.747 529.092 662.677L490.008 655.485C487.687 655.058 484.334 655.385 484.231 657.743C484.174 659.059 485.349 660.361 484.829 661.571C484.273 662.862 482.447 662.744 481.118 663.201C479.055 663.91 478.019 666.359 478.218 668.532C478.58 670.69 479.416 672.742 480.666 674.539C478.123 673.476 474.274 673.281 471.732 672.217Z" fill="#3F3D56"/>
<path d="M440.547 639.04C438.082 638.224 435.427 638.186 432.94 638.931C430.453 639.676 428.255 641.168 426.644 643.204C426.001 644.051 425.46 645.219 425.999 646.136C426.772 647.452 428.74 646.932 430.191 646.462C432.323 645.7 434.645 645.644 436.811 646.304C438.174 646.772 439.393 647.598 440.761 648.049C441.428 648.327 442.157 648.419 442.871 648.315C443.586 648.21 444.258 647.913 444.817 647.456C445.756 646.498 445.815 645.009 445.817 643.667C445.882 643.218 445.846 642.761 445.712 642.327C445.577 641.894 445.348 641.496 445.04 641.163C444.493 640.846 443.877 640.664 443.245 640.632C441.829 640.37 440.549 639.622 439.625 638.517" fill="#3F3D56"/>
<path d="M454.64 635.116C454.088 635.086 453.538 635.199 453.043 635.443C452.547 635.687 452.123 636.054 451.81 636.509C451.498 636.965 451.307 637.493 451.258 638.043C451.209 638.593 451.302 639.147 451.528 639.651C453.222 640.113 454.991 640.228 456.731 639.99C457.599 639.855 458.407 639.467 459.054 638.873C459.701 638.28 460.158 637.508 460.368 636.656C458.32 637.028 456.206 636.625 454.44 635.524" fill="#3F3D56"/>
<path d="M501.923 628.563C497.313 629.543 492.834 631.065 488.581 633.095C490.586 633.866 492.29 635.261 493.443 637.073C494.596 638.886 495.136 641.021 494.983 643.164C494.803 643.987 494.824 644.84 495.044 645.653C495.534 646.841 496.954 647.287 498.202 647.592C500.445 648.274 502.787 648.573 505.129 648.476C506.301 648.415 507.439 648.062 508.44 647.45C509.441 646.839 510.274 645.987 510.863 644.972C511.202 644.009 511.601 643.068 512.055 642.154C515.048 637.597 523.937 643.107 527.149 638.702C528.281 637.151 528.177 634.815 529.653 633.586C530.416 633.05 531.3 632.713 532.226 632.604C538.687 631.32 545.213 630.391 551.775 629.82C554.884 629.549 558.936 628.433 558.962 625.312C547.251 623.012 535.108 624.645 524.421 629.958C520.571 631.887 515.478 635.944 511.769 633.387C510.38 632.43 510.449 629.852 508.538 628.775C506.584 627.675 503.997 628.122 501.923 628.563Z" fill="#3F3D56"/>
<path d="M540.222 635.725L545.719 636.782C544.707 636.737 543.698 636.908 542.757 637.285C541.817 637.661 540.967 638.234 540.266 638.964C539.564 639.695 539.027 640.567 538.689 641.521C538.351 642.476 538.22 643.492 538.306 644.502C543.454 646.221 549.067 644.548 554.49 644.776C559.913 645.005 566.222 648.879 565.297 654.227C565.017 655.844 564.082 657.46 564.568 659.028C564.909 660.127 565.878 660.906 566.425 661.918C567.564 664.027 566.654 666.694 565.214 668.611C563.775 670.528 561.841 672.057 560.578 674.094C557.436 679.161 559.221 685.711 561.092 691.371C561.633 693.51 562.633 695.506 564.021 697.22C566.794 700.168 571.313 700.425 575.36 700.484C578.305 700.527 581.679 700.381 583.542 698.099C585.974 695.12 584.273 690.471 585.874 686.974C587.328 683.799 591.033 682.436 594.389 681.47C600.539 679.7 606.805 678.195 612.618 675.521C619.837 672.201 626.583 667.026 634.518 666.599C636.744 666.479 639.025 666.742 641.169 666.132C643.313 665.522 645.35 663.668 645.187 661.445C645.049 659.545 643.441 658.15 642.186 656.718C640.93 655.286 639.944 653.084 641.098 651.569L661.894 647.685C660.42 643.667 659.272 638.376 662.659 635.761C663.882 634.818 665.518 634.441 666.559 633.3C668.332 631.356 667.44 628.007 665.393 626.354C663.346 624.7 660.577 624.317 657.955 624.099C648.836 623.341 639.665 623.842 630.528 624.343C612.668 625.322 594.808 626.301 576.949 627.28C573.353 627.477 569.202 627.176 565.905 628.402C563.113 629.441 561.128 631.347 557.936 632.016C552.042 633.253 545.555 632.416 540.222 635.725Z" fill="#3F3D56"/>
<path d="M638.706 679.178C638.146 679.09 637.573 679.22 637.106 679.541C636.797 679.881 636.614 680.317 636.585 680.775C636.23 682.799 636.653 684.882 637.769 686.608C638.337 687.454 639.122 688.133 640.041 688.574C640.961 689.014 641.981 689.201 642.997 689.114C645.472 688.798 647.297 686.687 649.572 685.656C653.08 684.069 667.975 681.596 657.671 676.029C654.12 674.11 651.826 675.804 649.027 677.067C645.843 678.696 642.275 679.426 638.706 679.178V679.178Z" fill="#3F3D56"/>
<path d="M728.956 632.583C727.753 633.074 726.747 633.95 726.094 635.074C725.793 635.645 725.723 636.309 725.899 636.93C726.074 637.551 726.482 638.08 727.037 638.409C727.486 638.572 727.962 638.648 728.44 638.632L733.332 638.778C735.411 638.84 738.007 639.283 738.565 641.286C738.98 642.773 738.052 644.684 739.172 645.746C739.652 646.119 740.23 646.344 740.836 646.395C742.447 646.809 744.13 646.864 745.765 646.555C749.325 645.6 747.454 643.427 748.575 641.493C750.291 638.533 749.994 640.325 753.016 638.628C755.248 637.376 758.133 635.103 756.27 631.91C753.03 626.358 733.737 630.197 728.956 632.583Z" fill="#3F3D56"/>
<path d="M825.515 629.791L822.674 630.17C816.269 631.025 809.826 631.888 803.657 633.811C806.327 634.867 809.129 635.555 811.985 635.855C813.558 635.932 815.119 636.154 816.651 636.518C819.376 637.33 822.122 639.424 824.755 638.351C826.387 637.686 826.92 635.986 828.272 635.085C829.206 634.463 832.747 633.457 833.143 632.829C836.344 627.754 827.975 629.463 825.515 629.791Z" fill="#3F3D56"/>
<path d="M837.989 642.702C834.195 644.824 830.674 647.402 827.506 650.379C826.171 651.634 824.808 653.194 824.929 655.022C825.09 657.452 827.678 658.861 829.92 659.81L839.001 663.655C840.103 662.102 839.094 659.959 837.956 658.433C836.817 656.907 835.464 655.141 835.967 653.305C836.541 651.21 839.096 650.496 841.239 650.135C844.729 649.547 854.146 649.594 853.015 643.968C851.681 637.339 841.493 640.743 837.989 642.702Z" fill="#3F3D56"/>
<path d="M836.163 1017.83C835.298 1020.33 835.216 1023.28 836.712 1025.47C838.39 1027.92 841.748 1028.83 844.654 1028.21C847.547 1027.44 850.126 1025.78 852.027 1023.47C853.766 1021.53 855.197 1019.34 856.269 1016.97C857.765 1013.27 858.82 1009.41 859.412 1005.46L862.232 990.659C862.862 987.35 862.837 977.207 856.756 980.512C855.095 981.414 851.249 988.543 849.508 990.564C846.37 994.208 845.955 997.743 844.303 1002.16C842.234 1007.68 838.076 1012.29 836.163 1017.83Z" fill="#3F3D56"/>
<path d="M1157.35 1093.59C1155.36 1092.81 1153.42 1091.89 1151.57 1090.84C1149.7 1095.96 1148.71 1101.35 1148.64 1106.8L1162.25 1099.1C1164.3 1097.94 1166.62 1096.33 1166.58 1093.97C1166.6 1093.68 1166.54 1093.39 1166.4 1093.13C1166.27 1092.87 1166.07 1092.66 1165.83 1092.5C1165.52 1092.38 1165.19 1092.34 1164.87 1092.39C1162.85 1092.56 1161.01 1093.55 1159.11 1094.24C1157.2 1094.93 1154.98 1095.3 1153.23 1094.27" fill="#3F3D56"/>
<path d="M1229.17 1098.16C1227.68 1098.57 1226.22 1099.09 1224.81 1099.73C1221.68 1101.32 1219.56 1104.34 1216.74 1106.43C1214.05 1108.43 1210.81 1109.54 1207.63 1110.6C1206.7 1111.43 1207.13 1113.1 1208.14 1113.82C1209.24 1114.44 1210.49 1114.73 1211.74 1114.63C1215.04 1114.7 1218.52 1114.74 1221.42 1113.14C1223.05 1112.08 1224.57 1110.87 1225.97 1109.52C1229.36 1106.7 1233.42 1104.84 1237.44 1103.04C1238.9 1102.49 1240.26 1101.68 1241.44 1100.65C1243.96 1098.16 1244.14 1094.32 1240.5 1093.47C1237.55 1092.79 1231.98 1097.25 1229.17 1098.16Z" fill="#3F3D56"/>
<path d="M1260.91 1077.43C1261.07 1075.72 1260.84 1073.99 1260.24 1072.38C1259.64 1070.76 1258.68 1069.31 1257.43 1068.12C1257.4 1071.55 1257.29 1075.2 1255.36 1078.04C1253.99 1080.06 1251.84 1081.42 1250.33 1083.34C1248.83 1085.27 1248.16 1088.32 1249.92 1090.01C1251.05 1090.86 1252.43 1091.34 1253.84 1091.36C1257.36 1091.77 1261.42 1092 1263.89 1089.46C1265.23 1088.08 1265.89 1086.02 1267.53 1085.01C1268.14 1084.75 1268.69 1084.36 1269.13 1083.86C1269.8 1082.79 1268.73 1081.37 1267.52 1080.98C1266.3 1080.59 1264.97 1080.77 1263.75 1080.4C1262.53 1080.04 1261.42 1078.67 1262.04 1077.56" fill="#3F3D56"/>
<path d="M1204.5 951.759C1202.66 952.208 1200.75 952.32 1198.87 952.092C1195.74 951.516 1193.3 949.159 1190.78 947.226C1184.78 942.654 1177.48 940.105 1169.93 939.942C1163.07 939.813 1156.14 941.672 1149.4 940.375C1149.84 942.824 1151.94 944.661 1154.18 945.753C1156.41 946.845 1158.88 947.394 1161.13 948.464C1164.73 950.194 1167.58 953.163 1169.17 956.827C1169.89 958.517 1170.35 960.355 1171.44 961.83C1173.68 964.845 1177.93 965.507 1181.68 965.26C1186.56 964.939 1191.67 963.533 1196.21 965.354C1199.69 966.747 1202.18 969.791 1205.09 972.158C1207.99 974.525 1212.08 976.281 1215.41 974.574C1211.95 973.452 1208.94 971.253 1206.81 968.297C1204.69 965.342 1203.56 961.784 1203.6 958.144C1206.87 958.444 1216.29 958.328 1215.78 952.771C1215.35 948.062 1207.31 951.251 1204.5 951.759Z" fill="#3F3D56"/>
<path d="M1161.72 990.076C1162.3 986.892 1165.48 984.079 1164.49 980.997C1163.8 978.865 1161.33 977.812 1159.09 977.76C1156.85 977.707 1154.66 978.374 1152.42 978.437C1150.96 978.359 1149.5 978.38 1148.05 978.499C1143.6 979.229 1140.87 983.885 1136.68 985.541C1134.13 986.548 1131.27 986.355 1128.63 987.051C1122.62 988.631 1118.81 994.31 1114.61 998.889C1107.83 1006.25 1098.98 1011.41 1089.23 1013.69C1085.81 1014.48 1082.14 1014.99 1079.42 1017.21C1075.83 1020.15 1074.94 1025.19 1074.14 1029.76C1071.93 1042.4 1068.55 1054.8 1064.05 1066.81L1078.32 1068.63C1081.03 1068.98 1083.84 1069.32 1086.46 1068.52C1088.36 1067.8 1090.16 1066.84 1091.81 1065.66C1098.17 1061.72 1105.28 1059.15 1112.69 1058.13C1116.43 1057.61 1120.34 1057.52 1123.85 1058.91C1127.36 1060.3 1130.37 1063.45 1130.66 1067.21C1132.18 1066.74 1133.79 1066.69 1135.34 1067.06C1136.88 1067.44 1138.29 1068.23 1139.42 1069.34C1141.66 1071.62 1143.12 1074.54 1143.61 1077.69C1143.98 1079.64 1144.36 1081.98 1146.17 1082.8C1147.65 1083.47 1149.34 1082.75 1150.96 1082.62C1156.45 1082.18 1161 1088.58 1166.39 1087.48C1172.18 1086.3 1173.6 1077.64 1179.24 1075.9C1182.48 1074.9 1187.02 1076.12 1188.58 1073.1C1189.94 1070.44 1187.21 1067.38 1187.5 1064.4C1187.84 1060.74 1192.16 1059.19 1195.49 1057.62C1206.98 1052.23 1212.43 1036.78 1206.86 1025.38C1203.57 1018.62 1197.08 1013.31 1195.88 1005.89C1194.96 1000.18 1197.21 993.521 1193.57 989.028C1191.72 986.742 1188.58 985.48 1187.48 982.752C1186.79 981.035 1187.07 979.087 1186.69 977.274C1186.32 975.46 1184.74 973.563 1182.95 974.033C1177.75 975.398 1176.09 991.458 1173.3 995.36C1169.07 1001.29 1160.39 997.384 1161.72 990.076Z" fill="#3F3D56"/>
<path d="M1065.63 957.827C1063.85 957.329 1061.91 956.838 1060.21 957.55C1058.5 958.262 1057.51 960.762 1058.88 962.002C1069.56 961.585 1080.32 961.172 1090.92 962.623C1103.13 964.296 1115.21 968.438 1127.47 967.22C1120.47 965.153 1113.35 963.501 1106.15 962.271L1094.14 959.978C1090.92 959.303 1087.67 958.8 1084.39 958.471C1077.54 957.906 1072.36 959.716 1065.63 957.827Z" fill="#3F3D56"/>
<path d="M1076.33 920.601C1075.44 920.527 1074.34 920.464 1073.88 921.226C1073.44 921.955 1073.94 922.918 1073.71 923.736C1073.39 924.853 1071.92 925.138 1070.77 924.986C1069.62 924.834 1068.37 924.47 1067.35 925.025C1066.83 925.379 1066.45 925.891 1066.24 926.484C1066.04 927.078 1066.04 927.721 1066.23 928.317C1066.65 929.501 1067.32 930.577 1068.21 931.467C1069.72 933.37 1071.44 935.095 1073.34 936.611C1077.01 939.322 1081.99 940.629 1084.3 944.565C1084.63 945.328 1085.13 946.004 1085.76 946.536C1086.87 947.24 1088.32 946.705 1089.52 946.158L1093.71 944.243C1094.47 943.971 1095.14 943.512 1095.67 942.91C1096.63 941.611 1096.04 939.763 1095.24 938.363C1094.43 936.963 1093.4 935.514 1093.58 933.909C1093.88 931.048 1097.56 929.953 1099.08 927.505C1100.6 925.037 1099.61 921.857 1099.78 918.96C1099.99 915.574 1102.12 911.168 1098.69 908.638C1095.78 906.487 1093 908.475 1090.91 910.849C1086.51 915.856 1084.42 921.278 1076.33 920.601Z" fill="#3F3D56"/>
<path d="M1101.77 869.998C1103.2 872.739 1106.19 874.374 1107.75 877.043C1109.44 879.935 1109.25 883.673 1111.08 886.476C1112.96 889.353 1116.75 890.88 1117.81 894.152C1118.96 897.724 1116.35 902.065 1118.43 905.186C1118.82 905.696 1119.31 906.12 1119.87 906.431C1120.43 906.741 1121.05 906.932 1121.69 906.991C1122.33 907.049 1122.97 906.975 1123.58 906.772C1124.19 906.568 1124.75 906.241 1125.23 905.81C1126.1 904.853 1126.57 903.591 1126.54 902.292C1126.5 900.993 1125.95 899.76 1125.02 898.857C1123.78 897.731 1122.01 897.245 1120.98 895.93C1120.44 895.171 1120.09 894.301 1119.94 893.384C1119.37 890.739 1119.46 887.997 1120.2 885.395C1120.47 884.734 1120.54 884.006 1120.4 883.305C1119.94 881.956 1118.11 881.861 1116.83 881.235C1113.92 879.814 1113.99 875.705 1114.5 872.506C1114.16 874.636 1106.57 871.013 1105.77 869.807C1104.2 867.41 1105.06 862.786 1104.74 860.138C1101.34 861.78 1100.02 866.648 1101.77 869.998Z" fill="#3F3D56"/>
<path d="M1025.33 912.16C1023.93 910.593 1021.82 908.953 1019.95 909.898C1018.51 910.619 1018.12 912.601 1018.68 914.104C1019.37 915.563 1020.42 916.818 1021.74 917.746C1025.65 920.972 1029.86 923.885 1033.28 927.636C1039.38 934.348 1042.62 943.406 1049.26 949.59C1050.6 951.024 1052.37 951.981 1054.3 952.314C1056.23 952.494 1058.41 951.256 1058.63 949.325C1058.81 947.734 1057.7 946.31 1056.62 945.131C1054.04 942.325 1051.21 939.741 1048.78 936.808C1047.65 935.681 1046.95 934.205 1046.77 932.622C1046.76 931.043 1048.2 929.39 1049.73 929.781C1047.87 929.305 1046.49 926.205 1043.76 925.622C1041.48 925.135 1040.92 926.548 1038.21 925.383C1033.03 923.161 1028.96 916.222 1025.33 912.16Z" fill="#3F3D56"/>
<path d="M1147.07 759.514C1145.58 759.072 1144.12 758.55 1142.69 757.95C1138.84 756.796 1133.75 759.623 1134.27 763.606C1134.61 766.253 1137.07 768.037 1138.43 770.333C1140.45 773.737 1139.91 778.055 1138.85 781.868C1138.59 783.048 1138.09 784.164 1137.39 785.15C1136.42 786.19 1135.25 787.032 1133.95 787.629C1128.75 790.542 1124.17 794.434 1120.46 799.09C1120.05 799.52 1119.77 800.05 1119.64 800.625C1119.46 801.97 1120.81 802.95 1121.58 804.072C1123.27 806.563 1122.05 809.916 1122.21 812.927C1122.19 813.352 1122.27 813.778 1122.46 814.162C1122.64 814.546 1122.92 814.877 1123.27 815.123C1124.29 815.643 1125.51 814.76 1126.06 813.755C1127.9 810.421 1126.51 805.068 1129.97 803.46C1130.62 803.156 1131.41 803.028 1131.85 802.454C1132.54 801.544 1131.87 800.196 1132.22 799.108C1132.75 797.475 1134.98 797.401 1136.7 797.474C1139.65 797.597 1142.6 797.204 1145.42 796.312C1146.53 796.049 1147.53 795.468 1148.31 794.64C1149.34 793.352 1149.25 791.52 1149.04 789.882C1148.01 781.717 1145.42 773.825 1141.42 766.632C1144.46 767.02 1147.76 767.356 1150.37 765.775C1151.84 764.89 1153.6 762.243 1152.87 760.441C1151.72 757.592 1149.64 759.99 1147.07 759.514Z" fill="#3F3D56"/>
<path d="M758.218 804.42C758.581 806.367 758.937 808.417 758.299 810.292C757.661 812.167 755.654 813.733 753.759 813.159C752.288 812.713 751.439 811.234 750.394 810.106C744.586 803.836 731.482 807.466 727.894 799.709C726.43 796.543 727.425 792.75 726.426 789.408C725.796 787.476 724.542 785.809 722.862 784.667C721.181 783.525 719.169 782.974 717.141 783.1C715.291 783.367 713.491 783.905 711.798 784.695C700.453 789.238 688.544 792.217 676.396 793.549C674.088 793.69 671.804 794.105 669.594 794.787C664.606 796.595 661.198 801.219 658.773 805.938C656.348 810.657 654.557 815.765 651.306 819.957C647.888 824.363 643.099 827.449 638.632 830.786C636.912 831.895 635.479 833.396 634.452 835.167C633.483 837.156 633.538 839.468 633.613 841.678L634.526 868.522C634.644 871.975 634.791 875.551 636.336 878.641C638.266 882.499 642.078 885.026 644.723 888.435C647.422 891.938 648.827 896.265 648.702 900.685C648.646 902.462 648.47 904.564 649.854 905.68C650.696 906.226 651.681 906.51 652.684 906.494L688.996 909.466C695.383 909.989 702.462 910.849 706.632 915.715C708.6 918.012 710.181 921.315 713.196 921.561C714.489 921.667 715.747 921.136 717.041 921.033C720.304 920.775 723.17 923.252 724.979 925.98C727.717 930.137 728.96 935.103 728.504 940.06C728.207 943.172 727.242 946.197 727.034 949.316C726.243 961.184 736.304 971.495 736.499 983.387C736.613 990.382 733.293 996.918 730.055 1003.12C735.28 1011.04 731.001 1021.58 733.082 1030.83C735.055 1039.61 742.376 1046.48 744.2 1055.3C745.035 1059.33 745.083 1064.29 748.641 1066.37C750.201 1067.13 751.932 1067.48 753.665 1067.38C764.121 1067.5 774.458 1065.15 783.83 1060.51C788.229 1058.33 792.788 1055.07 793.556 1050.22C794.175 1046.31 792.192 1041.93 794.21 1038.53C796.589 1034.51 802.684 1034.83 806.184 1031.74C811.863 1026.73 807.435 1017.18 809.735 1009.97C811.804 1003.49 818.923 1000.04 822.452 994.221C823.84 991.718 824.837 989.017 825.407 986.212C827.023 979.508 828.03 972.671 828.413 965.786C828.507 961.602 828.816 957.426 829.337 953.274C833.142 929.637 856.511 913.808 864.098 891.1C864.822 888.932 865.163 886.043 863.233 884.816C862.089 884.27 860.792 884.134 859.559 884.432L842.82 886.542C840.741 886.804 838.537 887.049 836.628 886.185C834.719 885.322 833.35 882.906 834.363 881.072C837.206 875.922 831.358 869.415 828.76 864.137C821.763 849.927 813.43 836.414 803.875 823.78C803.264 823.131 802.881 822.299 802.784 821.412L807.535 821.57C805.931 815.816 803.285 809.519 797.694 807.414C794.544 806.227 791.055 806.638 787.694 806.821C778.067 807.347 767.746 805.894 758.218 804.42Z" fill="#3F3D56"/>
<path d="M787.702 674.745C790.221 677.42 793.044 680.256 796.689 680.723C803.127 681.546 807.756 674.889 810.703 669.106C810.812 670.58 811.492 671.954 812.598 672.934C813.705 673.915 815.15 674.426 816.626 674.357C818.215 674.09 819.732 673.497 821.081 672.616C833.837 665.645 848.124 661.951 862.66 661.867C862.521 660.766 862.794 659.652 863.427 658.74C864.06 657.829 865.009 657.184 866.089 656.931C869.045 656.345 871.707 658.9 873.133 661.554C874.558 664.208 875.447 667.285 877.712 669.272C879.977 671.258 884.363 671.172 885.257 668.295C886.116 665.533 883.239 663.177 880.848 661.549C878.458 659.92 875.938 656.906 877.548 654.503C889.761 651.8 902.05 649.086 914.547 648.549C916.675 648.623 918.795 648.258 920.776 647.476C922.682 646.541 924.196 644.418 923.684 642.357C920.957 642.998 918.1 642.813 915.479 641.824C912.858 640.835 910.59 639.088 908.966 636.806C926.307 635.375 944.751 634.155 960.119 642.315C961.963 646.274 952.564 649.568 955.079 653.138C955.881 654.277 957.488 654.411 958.88 654.437C969.56 654.635 980.301 654.829 990.86 653.217C994.719 652.628 998.616 651.796 1002.49 652.274C1008.94 653.07 1014.46 657.375 1020.81 658.779C1023.39 659.35 1026.29 659.37 1028.47 657.867C1030.65 656.364 1031.58 652.942 1029.8 650.988C1035.78 645.13 1045.7 646.582 1053.58 649.387C1061.47 652.191 1068.94 656.714 1077.28 657.339C1083.27 657.787 1089.34 656.178 1095.25 657.201C1098.97 657.844 1102.42 659.497 1106.06 660.513C1112.92 662.434 1120.19 662.028 1127.32 662.121C1145.52 662.366 1163.52 665.942 1180.43 672.673C1182.63 673.389 1184.64 674.58 1186.33 676.161C1187.91 677.846 1188.71 680.464 1187.65 682.513L1170.18 679.96C1171.83 683.2 1176.08 683.753 1179.54 684.871C1183 685.989 1186.59 689.808 1184.51 692.79C1180.76 691.597 1177.37 695.344 1175.47 698.791C1173.58 702.239 1171.27 706.367 1167.35 706.577C1163.83 706.765 1159.58 703.771 1157.28 706.445C1160.45 710.44 1163.16 714.775 1165.37 719.371C1167.63 724.089 1169.25 730.034 1166.19 734.279C1165.7 735.037 1164.97 735.603 1164.12 735.881C1161.62 736.514 1160 733.456 1158.2 731.602C1155.94 729.266 1152.53 728.605 1149.47 727.509C1146.41 726.414 1143.19 724.259 1142.95 721.018C1142.8 719.002 1143.86 717.127 1144.65 715.264C1145.96 712.123 1146.54 708.72 1146.33 705.32C1146.16 702.585 1145.39 699.74 1143.43 697.829C1141.46 695.918 1138.07 695.311 1135.96 697.062C1134.98 697.878 1134.19 699.185 1132.91 699.234C1130.65 699.32 1128.92 695.384 1127.1 696.727C1127.32 698.159 1127.02 699.62 1126.27 700.855C1120.84 705.57 1112.52 703.575 1105.53 705.241C1102.21 706.192 1099.02 707.581 1096.07 709.372C1094.96 709.845 1094.02 710.635 1093.36 711.642C1092.49 713.337 1093.45 715.508 1094.99 716.635C1096.62 717.635 1098.45 718.261 1100.36 718.466C1108.88 720.08 1117.52 722.578 1124.25 728.05C1130.97 733.522 1135.38 742.568 1133.25 750.973L1116.45 734.92C1117.09 741.66 1117.45 748.42 1117.54 755.197C1117.65 756.521 1117.47 757.852 1117.01 759.098C1115.81 761.743 1112.56 762.633 1109.72 763.217C1108.93 763.368 1108.18 763.684 1107.52 764.144C1106.86 764.605 1106.3 765.201 1105.89 765.892C1105.47 766.583 1105.21 767.353 1105.11 768.153C1105.02 768.953 1105.09 769.763 1105.34 770.532C1106.35 773.826 1108.87 776.395 1111.17 778.954C1113.48 781.513 1115.75 784.422 1116.05 787.854C1116.36 791.287 1113.77 795.156 1110.33 794.917C1107.72 794.736 1105.79 792.404 1104.68 790.04C1103.57 787.676 1102.9 785.042 1101.23 783.034C1096.18 776.954 1084.83 779.559 1080.3 773.078C1079.14 774.387 1078.34 775.97 1077.97 777.675C1077.6 779.381 1077.67 781.153 1078.18 782.824C1080.29 781.505 1083.17 782.73 1084.75 784.646C1086.34 786.563 1087.08 789.02 1088.33 791.172C1090 794.076 1092.67 796.651 1092.91 799.997C1092.84 801.262 1092.87 802.53 1092.97 803.792C1093.39 805.819 1095.1 807.275 1096.29 808.969C1099.05 812.912 1098.92 818.328 1097.13 822.802C1095.35 827.275 1092.15 831.013 1088.98 834.637C1083.44 840.967 1077.79 847.26 1071.23 852.517C1069.35 854.017 1067.35 855.492 1066.19 857.589C1065.02 859.686 1064.96 862.63 1066.75 864.225C1065.47 864.289 1063.17 864.92 1061.89 864.984C1061.44 859.838 1061.34 854.667 1061.59 849.507C1056.53 847.076 1051.08 853.586 1051.73 859.164C1052.39 864.742 1056.42 869.218 1059.29 874.044C1061.39 877.573 1062.96 881.688 1062.25 885.734C1061.55 889.781 1057.94 893.514 1053.85 893.157C1047.34 892.589 1044.62 883.247 1038.18 882.178C1037.61 882.044 1037.01 882.103 1036.48 882.346C1035.52 882.871 1035.36 884.151 1035.3 885.241C1035.04 890.59 1034.81 896.152 1036.9 901.084C1039.95 908.299 1047.85 914.358 1046.19 922.016C1037.27 917.871 1032.64 907.87 1030.53 898.264C1028.43 888.658 1028.07 878.573 1024.3 869.492C1021.44 873.164 1015.41 870.128 1012.79 866.275C1010.31 862.622 1008.78 858.397 1006.38 854.695C1003.97 850.993 1000.28 847.678 995.867 847.474C991.241 847.261 987.229 850.435 983.702 853.434C980.801 855.9 977.822 858.463 976.127 861.873C973.659 866.833 974.305 872.682 974.186 878.221C974.057 884.21 972.788 890.528 968.706 894.912C964.625 899.297 957.091 900.824 952.589 896.872C950.239 894.81 949.101 891.728 948.087 888.769C943.201 874.509 939.132 859.982 935.899 845.258C935.143 848.619 932.192 852.95 929.373 850.971C928.74 850.438 928.228 849.778 927.869 849.033C922.611 840.121 912.873 834.776 903.034 831.57C893.195 828.365 882.844 826.87 873.114 823.348C867.661 821.373 862.453 818.779 857.593 815.616C856.353 817.437 855.63 819.558 855.499 821.757C855.367 823.955 855.833 826.148 856.847 828.103C859.005 831.924 863.889 834.136 868.07 832.8C870.23 832.109 872.055 830.61 874.198 829.869C876.342 829.128 879.219 829.492 880.157 831.557C881.054 833.534 879.698 835.926 880.37 837.99C881.395 841.133 886.136 841.375 887.794 844.236C889.028 846.365 888.013 849.191 886.252 850.909C884.49 852.626 882.14 853.568 879.99 854.764C873.014 858.643 868.053 865.265 861.956 870.418C855.86 875.57 847.258 879.331 839.992 876.026C841.724 867.256 831.277 860.818 829.355 852.087C828.722 849.213 829.05 846.161 828.147 843.361C826.839 839.306 823.242 836.518 820.291 833.446C816.712 829.679 813.924 825.233 812.091 820.371C810.258 815.508 809.417 810.328 809.619 805.136C809.778 801.528 810.441 797.861 809.619 794.344C808.797 790.827 805.885 787.423 802.277 787.582C794.036 787.946 783.654 788.559 779.33 781.534C777.787 779.027 777.115 775.354 779.347 773.433C780.92 772.078 783.244 772.206 785.311 772.409L803.879 774.236C808.222 774.663 812.916 775.016 816.643 772.745C820.37 770.475 821.985 764.448 818.534 761.777C816.012 759.826 811.495 759.931 810.762 756.828C810.152 754.244 813.012 751.312 811.467 749.152C810.36 747.603 807.869 748.033 806.36 749.194C804.851 750.355 803.756 752.052 802.067 752.931C799.104 754.473 795.563 753.006 792.376 752.008C789.188 751.011 784.914 750.926 783.368 753.887C781.639 757.198 784.902 761.537 783.186 764.855C780.917 769.242 773.233 766.744 770.047 770.518C766.39 774.848 772.535 781.304 771.302 786.835C769.728 787.615 767.978 787.973 766.224 787.875C764.47 787.776 762.772 787.224 761.294 786.273C759.842 785.285 758.684 783.922 757.944 782.328C757.205 780.734 756.911 778.97 757.094 777.223C757.399 774.734 758.696 772.194 757.827 769.843C757.124 767.942 755.215 766.81 753.441 765.829L735.397 755.858C733.722 758.966 735.84 762.819 738.489 765.153C741.137 767.487 744.455 769.245 746.195 772.317C747.296 774.446 747.543 776.914 746.885 779.218C746.227 781.522 744.715 783.488 742.657 784.715C742.399 784.893 742.105 785.013 741.797 785.067C741.488 785.121 741.171 785.107 740.868 785.027C740.58 784.858 740.329 784.633 740.13 784.365C739.931 784.097 739.787 783.792 739.708 783.467C736.524 775.32 731.744 767.287 724.102 763.031C716.46 758.775 705.479 759.65 700.468 766.819C699.277 768.522 698.479 770.463 697.442 772.264C691.933 781.829 680.122 786.359 669.088 786.063C668.008 786.122 666.935 785.87 665.995 785.336C664.211 784.104 664.292 781.491 664.565 779.341L665.723 770.216C665.956 768.384 666.293 766.359 667.743 765.215C669.787 763.603 672.736 764.62 675.339 764.583C677.311 764.491 679.207 763.794 680.771 762.588C682.334 761.382 683.488 759.724 684.077 757.839C684.603 755.936 684.6 753.926 684.067 752.025C683.535 750.123 682.494 748.403 681.057 747.05C679.863 745.929 678.262 744.522 678.892 743.011C679.144 742.593 679.484 742.235 679.888 741.963C680.293 741.691 680.752 741.51 681.234 741.434C685.91 740.076 690.851 739.72 695.449 738.118C700.047 736.516 704.506 733.238 705.595 728.492C705.929 727.037 706.081 725.276 707.387 724.554C708.043 724.278 708.747 724.134 709.458 724.131C711.951 723.777 714.221 722.502 715.821 720.557C717.421 718.613 718.235 716.14 718.102 713.626C720.306 712.086 723.393 713.218 725.525 714.856C727.657 716.494 729.539 718.658 732.133 719.364C736.967 720.679 741.639 716.399 746.649 716.379C748.756 716.371 750.937 717.116 752.919 716.402C754.928 715.678 756.128 713.677 757.67 712.2C759.212 710.722 761.918 709.821 763.342 711.413L762.13 702.431C764.572 703.047 767.118 703.135 769.596 702.687C772.075 702.239 774.429 701.265 776.5 699.832L760.828 694.537C760.283 694.401 759.779 694.132 759.363 693.754C758.223 692.527 759.355 690.615 760.282 689.22C762.498 685.884 762.87 680.388 759.225 678.727C756.737 677.593 753.882 678.954 751.494 680.285L740.055 686.663C739.692 688.838 742.351 690.07 743.998 691.534C744.995 692.42 745.7 693.587 746.022 694.882C746.344 696.176 746.266 697.538 745.8 698.787C745.333 700.037 744.5 701.116 743.409 701.883C742.318 702.65 741.021 703.07 739.687 703.086C740.44 704.065 740.964 705.202 741.218 706.41C741.473 707.619 741.452 708.87 741.158 710.07L733.462 710.624C732.598 710.797 731.701 710.622 730.966 710.136C730.143 709.405 730.254 708.124 730.063 707.04C729.603 704.423 727.041 702.589 724.425 702.119C721.81 701.648 719.135 702.251 716.545 702.846C715.446 703.242 714.238 703.214 713.158 702.768C712.539 702.366 712.068 701.772 711.818 701.077C710.683 698.324 711.744 695.089 713.567 692.734C715.391 690.38 717.887 688.659 720.129 686.7C725.49 681.996 729.428 675.887 731.5 669.062C735.737 667.287 740.123 664.875 744.36 663.1C750.892 659.793 758.217 658.374 765.511 659.002L779.859 659.276C784.107 659.357 788.47 659.461 792.398 661.08C796.326 662.7 799.777 666.203 800.049 670.443C800.13 670.923 800.089 671.416 799.928 671.875C799.767 672.335 799.492 672.746 799.129 673.07C798.574 673.373 797.946 673.515 797.315 673.479C793.353 673.618 791.664 674.605 787.702 674.745Z" fill="#3F3D56"/>
<path d="M673.339 719.712C673.899 719.181 674.303 718.507 674.505 717.762C674.707 717.017 674.699 716.23 674.484 715.489C673.119 714.963 671.636 714.828 670.199 715.099C668.762 715.37 667.43 716.037 666.352 717.025C665.502 717.885 664.769 718.853 664.173 719.905C662.288 722.981 660.62 726.655 661.713 730.094C661.802 730.469 661.965 730.822 662.192 731.133C662.42 731.444 662.707 731.707 663.037 731.905C663.527 732.102 664.055 732.185 664.581 732.147C666.658 732.145 668.733 732.017 670.795 731.765C672.061 731.61 673.532 731.252 674.021 730.075C674.664 728.526 673.107 726.774 673.561 725.16C673.86 724.438 674.312 723.79 674.887 723.261C675.172 722.995 675.391 722.666 675.527 722.3C675.663 721.934 675.711 721.542 675.669 721.154C675.486 720.396 674.326 719.967 673.909 720.625" fill="#3F3D56"/>
<path d="M684.109 705.749C682.264 705.325 680.362 705.206 678.478 705.395C678.062 705.383 677.649 705.476 677.278 705.668C676.92 705.932 676.659 706.309 676.539 706.738C676.141 708.015 676.239 709.395 676.813 710.603C677.387 711.811 678.395 712.759 679.636 713.257C680.312 713.413 680.96 713.673 681.556 714.029C683.149 715.264 682.134 717.79 682.435 719.783C682.774 722.021 684.94 723.899 684.543 726.128C684.23 727.883 682.355 729.273 682.657 731.031C682.973 732.871 685.309 733.424 687.17 733.572C688.249 733.761 689.36 733.633 690.368 733.205C691.379 732.514 692.098 731.473 692.386 730.283C693.148 728.015 693.468 725.621 693.329 723.231C693.321 722.145 693.048 721.076 692.534 720.119C691.974 719.36 691.352 718.649 690.676 717.991C687.109 713.842 690.865 707.653 684.109 705.749Z" fill="#3F3D56"/>
<path opacity="0.8" d="M1153.17 1030.78C1153.17 1030.78 879.969 873.962 762.352 903.675C762.352 903.675 513.087 930.5 484.199 989.515C484.199 989.515 404.962 741.9 376.074 733.647" stroke="#6C63FF" stroke-width="2" stroke-miterlimit="10"/>
<path opacity="0.8" d="M484.199 989.515C530.007 867.359 942.698 731.996 942.698 731.996C884.096 746.853 762.352 903.675 762.352 903.675C762.352 903.675 504.833 716.314 376.074 733.647C376.074 733.647 943.111 752.218 1153.17 1030.78" stroke="#6C63FF" stroke-width="2" stroke-miterlimit="10"/>
<path d="M376.074 745.615C382.683 745.615 388.042 740.256 388.042 733.647C388.042 727.037 382.683 721.679 376.074 721.679C369.464 721.679 364.105 727.037 364.105 733.647C364.105 740.256 369.464 745.615 376.074 745.615Z" fill="#63FFCC"/>
<path d="M484.199 1001.48C490.808 1001.48 496.167 996.125 496.167 989.515C496.167 982.905 490.808 977.547 484.199 977.547C477.589 977.547 472.231 982.905 472.231 989.515C472.231 996.125 477.589 1001.48 484.199 1001.48Z" fill="#63FFCC"/>
<path d="M942.698 743.964C949.308 743.964 954.666 738.606 954.666 731.996C954.666 725.386 949.308 720.028 942.698 720.028C936.088 720.028 930.73 725.386 930.73 731.996C930.73 738.606 936.088 743.964 942.698 743.964Z" fill="#63FFCC"/>
<path d="M1153.17 1042.75C1159.78 1042.75 1165.14 1037.39 1165.14 1030.78C1165.14 1024.17 1159.78 1018.82 1153.17 1018.82C1146.56 1018.82 1141.2 1024.17 1141.2 1030.78C1141.2 1037.39 1146.56 1042.75 1153.17 1042.75Z" fill="#63FFCC"/>
<path d="M762.352 915.643C768.962 915.643 774.32 910.285 774.32 903.675C774.32 897.066 768.962 891.707 762.352 891.707C755.742 891.707 750.384 897.066 750.384 903.675C750.384 910.285 755.742 915.643 762.352 915.643Z" fill="#63FFCC"/>
<path d="M117.588 228.911C119.294 224.12 124.052 221.292 128.897 221.835C130.916 222.061 132.934 222.241 134.962 222.122C185.547 219.147 248.202 248.111 314.9 287.776C253.842 238.37 197.959 194.665 132.233 239.579C127.539 242.787 120.887 241.654 118.156 236.666C117.059 234.663 116.663 232.261 117.317 229.785C117.394 229.493 117.484 229.201 117.588 228.911H117.588V228.911V228.911Z" fill="#E6E6E6"/>
<path d="M454.969 110.407C459.138 113.065 460.854 118.12 459.464 122.627L459.307 123.136C457.914 127.66 454.881 131.461 450.862 133.963C393.343 169.772 459.938 215.598 353.485 289.567V289.567C405.034 234.406 447.435 106.665 453.876 109.795C454.247 109.976 454.612 110.179 454.968 110.407H454.969V110.407Z" fill="#E6E6E6"/>
<path d="M543.134 390.42C540.989 394.875 536.173 397.179 531.533 396.334L531.009 396.239C526.352 395.393 522.217 392.832 519.256 389.138C476.873 336.276 439.276 407.841 353.193 310.921H353.193C414.083 355.558 545.955 382.495 543.611 389.263C543.476 389.653 543.317 390.039 543.134 390.42V390.42H543.134V390.42Z" fill="#E6E6E6"/>
<path d="M465.667 387.117C463.46 388.342 459.9 388.17 457.025 386.841L456.701 386.691C453.816 385.358 451.583 383.488 450.321 381.444C432.256 352.175 394.747 371.168 356.161 315.687H356.161C387.793 345.854 468.945 384.722 466.188 386.781C466.029 386.9 465.856 387.012 465.667 387.117V387.117Z" fill="#E6E6E6"/>
<path d="M483.074 270.374C482.529 272.838 480.04 275.39 477.14 276.661L476.813 276.805C473.902 278.082 471.022 278.514 468.654 278.104C434.766 272.228 424.123 312.903 357.005 305.016H357.005C400.559 301.329 483.454 266.332 483.169 269.761C483.152 269.959 483.121 270.163 483.074 270.374H483.074Z" fill="#E6E6E6"/>
<path d="M143.913 423.258C141.481 418.953 142.34 413.684 145.683 410.357L146.06 409.982C149.415 406.642 153.878 404.71 158.601 404.388C226.199 399.784 188.922 328.052 317.643 312.735V312.735C246.228 337.229 148.808 430.099 144.591 424.31C144.348 423.977 144.122 423.626 143.913 423.258V423.258V423.258Z" fill="#E6E6E6"/>
<path d="M415.764 422.484C413.264 424.153 410.055 423.82 407.92 421.877L407.679 421.658C405.535 419.708 404.198 417.019 403.821 414.109C398.423 372.452 356.633 398.23 342.407 319.155H342.407C359.941 362.422 419.698 419.197 416.372 422.026C416.181 422.188 415.978 422.342 415.764 422.484H415.764Z" fill="#E6E6E6"/>
<path d="M340.055 491C336.225 491.031 333.001 488.456 332.035 484.923L331.925 484.524C330.954 480.978 331.355 477.209 332.94 473.87C355.63 426.087 293.055 424.392 331.846 330.93H331.846C321.106 388.823 346.534 490.249 341.023 490.936C340.706 490.975 340.383 490.997 340.055 491V491H340.055Z" fill="#63FFCC"/>
<path d="M201.421 425.699C198.954 422.77 198.88 418.644 200.984 415.646L201.222 415.308C203.333 412.297 206.492 410.201 210.074 409.293C261.346 396.284 222.733 347.013 319.454 317.264V317.264C268.019 345.926 206.132 430.21 202.088 426.404C201.855 426.185 201.632 425.95 201.421 425.699H201.421Z" fill="#63FFCC"/>
<path d="M232.53 382.923C230.969 381.465 230.927 379.271 232.265 377.588L232.415 377.398C233.757 375.708 235.761 374.461 238.033 373.829C270.544 364.785 246.127 340.142 307.464 320.307C274.831 337.693 235.511 385.131 232.952 383.271C232.804 383.164 232.663 383.048 232.53 382.923V382.923Z" fill="#63FFCC"/>
<path d="M277.997 414.097C276.023 413.28 275.213 411.241 275.874 409.195L275.948 408.964C276.61 406.91 278.048 405.039 279.953 403.649C307.212 383.756 275.693 369.266 326.146 329.141C301.705 356.886 281.563 415.116 278.514 414.274C278.338 414.226 278.166 414.167 277.997 414.097V414.097Z" fill="#E6E6E6"/>
<path d="M144.981 275.891L149.94 291.151H165.985L153.004 300.582L157.962 315.842L144.981 306.411L132.001 315.842L136.959 300.582L123.978 291.151H140.023L144.981 275.891Z" fill="#63FFCC"/>
<path d="M366.089 93L371.047 108.26H387.092L374.112 117.691L379.07 132.95L366.089 123.519L353.108 132.95L358.067 117.691L345.086 108.26H361.131L366.089 93Z" fill="#E6E6E6"/>
<path d="M483.467 256.783L488.425 272.043H504.47L491.49 281.474L496.448 296.734L483.467 287.303L470.487 296.734L475.445 281.474L462.464 272.043H478.509L483.467 256.783Z" fill="#63FFCC"/>
<path d="M245.981 423.297L250.939 438.556H266.984L254.004 447.987L258.962 463.247L245.981 453.816L233.001 463.247L237.959 447.987L224.978 438.556H241.023L245.981 423.297Z" fill="#63FFCC"/>
<path d="M336.062 256.783L341.02 272.043H357.065L344.085 281.474L349.043 296.734L336.062 287.303L323.082 296.734L328.04 281.474L315.059 272.043H331.104L336.062 256.783Z" fill="#63FFCC"/>
<path d="M459.938 93L464.896 108.26H480.941L467.96 117.691L472.919 132.95L459.938 123.519L446.957 132.95L451.916 117.691L438.935 108.26H454.98L459.938 93Z" fill="#E6E6E6"/>
<path d="M136.572 394.587L142.86 409.349L158.842 407.93L146.746 418.472L153.033 433.234L139.27 424.987L127.174 435.529L130.763 419.89L117 411.644L132.982 410.225L136.572 394.587Z" fill="#E6E6E6"/>
<path d="M273.831 112.658C276.725 111.234 279.978 112.195 281.82 114.776L282.027 115.068C283.877 117.658 284.756 120.935 284.602 124.286C282.395 172.255 330.373 150.813 330.294 242.597H330.294C320.267 190.595 269.154 115.647 273.117 113.065C273.346 112.916 273.584 112.78 273.831 112.658H273.831Z" fill="#63FFCC"/>
<path d="M231.99 183.759C233.273 182.158 235.378 181.937 237.097 183.067L237.291 183.195C239.017 184.329 240.367 186.129 241.147 188.233C252.304 218.347 274.135 193.137 297.849 249.723C278.665 220.182 230.094 186.771 231.688 184.188C231.779 184.04 231.88 183.896 231.99 183.759L231.99 183.759Z" fill="#E6E6E6"/>
<path d="M195.059 271.292C195.235 269.248 196.862 267.894 198.92 267.877L199.152 267.876C201.217 267.858 203.34 268.604 205.157 269.919C231.174 288.747 235.304 255.655 286.475 289.504C254.106 275.616 195.158 274.849 195.047 271.817C195.04 271.642 195.044 271.467 195.059 271.292H195.059Z" fill="#E6E6E6"/>
<path d="M1059.48 245.133C1060.89 241.18 1064.82 238.847 1068.82 239.295C1070.48 239.482 1072.15 239.63 1073.82 239.532C1115.55 237.077 1167.25 260.974 1222.28 293.699C1171.9 252.937 1125.8 216.879 1071.57 253.935C1067.69 256.581 1062.21 255.647 1059.95 251.532C1059.05 249.879 1058.72 247.897 1059.26 245.854C1059.33 245.613 1059.4 245.372 1059.48 245.133L1059.48 245.133Z" fill="#E6E6E6"/>
<path d="M1337.84 147.361C1341.28 149.555 1342.7 153.726 1341.55 157.444L1341.42 157.864C1340.27 161.596 1337.77 164.732 1334.45 166.797C1287 196.34 1341.94 234.149 1254.11 295.177C1296.64 249.667 1331.62 144.274 1336.94 146.857C1337.25 147.006 1337.55 147.174 1337.84 147.361V147.361Z" fill="#E6E6E6"/>
<path d="M1410.58 378.386C1408.81 382.062 1404.84 383.962 1401.01 383.265L1400.58 383.187C1396.73 382.488 1393.32 380.376 1390.88 377.328C1355.91 333.715 1324.89 392.759 1253.87 312.795H1253.87C1304.11 349.623 1412.91 371.847 1410.97 377.431C1410.86 377.753 1410.73 378.071 1410.58 378.386L1410.58 378.386Z" fill="#E6E6E6"/>
<path d="M1346.67 375.661C1344.85 376.671 1341.91 376.53 1339.54 375.433L1339.27 375.31C1336.89 374.21 1335.05 372.667 1334.01 370.98C1319.1 346.832 1288.15 362.502 1256.32 316.727C1282.42 341.617 1349.37 373.685 1347.1 375.384C1346.97 375.482 1346.82 375.574 1346.67 375.661V375.661Z" fill="#E6E6E6"/>
<path d="M1361.03 279.342C1360.58 281.375 1358.53 283.481 1356.13 284.529L1355.86 284.648C1353.46 285.701 1351.09 286.058 1349.13 285.719C1321.17 280.872 1312.39 314.43 1257.02 307.924C1292.95 304.882 1361.34 276.007 1361.11 278.836C1361.09 278.999 1361.07 279.168 1361.03 279.342V279.342Z" fill="#E6E6E6"/>
<path d="M1081.21 405.479C1079.2 401.927 1079.91 397.579 1082.67 394.835L1082.98 394.525C1085.74 391.769 1089.43 390.176 1093.32 389.911C1149.09 386.112 1118.34 326.93 1224.54 314.292C1165.62 334.5 1085.24 411.123 1081.76 406.347C1081.56 406.072 1081.38 405.782 1081.21 405.479V405.479Z" fill="#E6E6E6"/>
<path d="M1305.49 404.841C1303.43 406.217 1300.78 405.943 1299.02 404.339L1298.82 404.158C1297.06 402.55 1295.95 400.332 1295.64 397.93C1291.19 363.562 1256.71 384.83 1244.97 319.589C1259.44 355.286 1308.74 402.129 1306 404.462C1305.84 404.597 1305.67 404.723 1305.49 404.841L1305.49 404.841Z" fill="#E6E6E6"/>
<path d="M1243.03 461.369C1239.87 461.395 1237.21 459.271 1236.41 456.355L1236.32 456.026C1235.52 453.101 1235.85 449.991 1237.16 447.236C1255.88 407.813 1204.25 406.414 1236.26 329.304V329.304C1227.4 377.069 1248.38 460.75 1243.83 461.316C1243.57 461.349 1243.3 461.367 1243.03 461.369V461.369Z" fill="#63FFCC"/>
<path d="M1128.65 407.493C1126.62 405.076 1126.55 401.673 1128.29 399.199L1128.49 398.92C1130.23 396.436 1132.83 394.707 1135.79 393.957C1178.09 383.224 1146.23 342.573 1226.03 318.029C1183.6 341.676 1132.54 411.215 1129.2 408.074C1129.01 407.894 1128.83 407.7 1128.65 407.493V407.493Z" fill="#63FFCC"/>
<path d="M1154.32 372.201C1153.03 370.998 1153 369.188 1154.1 367.799L1154.22 367.642C1155.33 366.248 1156.98 365.219 1158.86 364.698C1185.68 357.236 1165.54 336.904 1216.14 320.539C1189.22 334.884 1156.78 374.022 1154.67 372.488C1154.54 372.399 1154.43 372.304 1154.32 372.201V372.201Z" fill="#63FFCC"/>
<path d="M1191.83 397.92C1190.2 397.247 1189.53 395.564 1190.08 393.876L1190.14 393.686C1190.69 391.991 1191.87 390.447 1193.44 389.3C1215.93 372.888 1189.93 360.933 1231.56 327.827C1211.39 350.718 1194.77 398.761 1192.26 398.067C1192.11 398.027 1191.97 397.978 1191.83 397.92V397.92Z" fill="#E6E6E6"/>
<path d="M1082.09 283.894L1086.18 296.484H1099.41L1088.7 304.265L1092.8 316.855L1082.09 309.074L1071.38 316.855L1075.47 304.265L1064.76 296.484H1078L1082.09 283.894Z" fill="#63FFCC"/>
<path d="M1264.51 133L1268.6 145.59H1281.84L1271.13 153.371L1275.22 165.961L1264.51 158.18L1253.8 165.961L1257.89 153.371L1247.18 145.59H1260.42L1264.51 133Z" fill="#E6E6E6"/>
<path d="M1361.35 268.129L1365.44 280.719H1378.68L1367.97 288.5L1372.06 301.09L1361.35 293.309L1350.64 301.09L1354.73 288.5L1344.02 280.719H1357.26L1361.35 268.129Z" fill="#63FFCC"/>
<path d="M1165.42 405.511L1169.51 418.101H1182.74L1172.03 425.882L1176.13 438.472L1165.42 430.691L1154.71 438.472L1158.8 425.882L1148.09 418.101H1161.32L1165.42 405.511Z" fill="#63FFCC"/>
<path d="M1239.74 268.129L1243.83 280.719H1257.07L1246.36 288.5L1250.45 301.09L1239.74 293.309L1229.03 301.09L1233.12 288.5L1222.41 280.719H1235.65L1239.74 268.129Z" fill="#63FFCC"/>
<path d="M1341.94 133L1346.03 145.59H1359.27L1348.56 153.371L1352.65 165.961L1341.94 158.18L1331.23 165.961L1335.32 153.371L1324.61 145.59H1337.85L1341.94 133Z" fill="#E6E6E6"/>
<path d="M1075.15 381.824L1080.34 394.003L1093.52 392.833L1083.54 401.53L1088.73 413.709L1077.37 406.905L1067.39 415.603L1070.36 402.7L1059 395.896L1072.19 394.726L1075.15 381.824Z" fill="#E6E6E6"/>
<path d="M1188.39 149.219C1190.78 148.043 1193.46 148.836 1194.98 150.966L1195.16 151.207C1196.68 153.344 1197.41 156.047 1197.28 158.812C1195.46 198.389 1235.04 180.698 1234.98 256.424C1226.7 213.521 1184.53 151.685 1187.8 149.554C1187.99 149.432 1188.19 149.319 1188.39 149.219V149.219Z" fill="#63FFCC"/>
<path d="M1153.87 207.881C1154.93 206.559 1156.67 206.377 1158.09 207.31L1158.25 207.415C1159.67 208.351 1160.78 209.836 1161.43 211.572C1170.63 236.417 1188.64 215.618 1208.21 262.304C1192.38 237.931 1152.31 210.365 1153.62 208.235C1153.7 208.112 1153.78 207.994 1153.87 207.881L1153.87 207.881Z" fill="#E6E6E6"/>
<path d="M1123.4 280.1C1123.55 278.413 1124.89 277.296 1126.59 277.282L1126.78 277.281C1128.48 277.267 1130.23 277.882 1131.73 278.967C1153.2 294.501 1156.61 267.198 1198.83 295.126C1172.12 283.667 1123.48 283.034 1123.39 280.533C1123.39 280.388 1123.39 280.244 1123.4 280.1V280.1Z" fill="#E6E6E6"/>
</svg>
